<?xml version="1.0" standalone="no"?>
  <!DOCTYPE svg PUBLIC "-//W3C//DTD SVG 1.1//EN" "http://www.w3.org/Graphics/SVG/1.1/DTD/svg11.dtd" >
  <svg>
  <metadata>
  Created by font-carrier
  </metadata>
  <defs>
  <font id="Lato-BlackItalic" horiz-adv-x="2202" vert-adv-y="2202" >
    <font-face
      
      font-family="Lato Black"
      
      font-weight="400"
      
      font-stretch="normal"
      
      units-per-em="2000"
      
      ascent="1974"
      
      descent="-426"
      
    />
      <missing-glyph />

      

      
      <glyph glyph-name="uni21" unicode="&#x21;" d="M610 1457L540 883Q529 792 507 701.50Q485 611 456 516L254 516Q252 554 250.50 591Q249 628 249 665Q249 720 252 774Q255 828 262 883L332 1457L610 1457M150 157Q150 193 163.50 224Q177 255 200.50 278Q224 301 256 314.50Q288 328 326 328Q363 328 395 314.50Q427 301 451 278Q475 255 488.50 224Q502 193 502 157Q502 121 488.50 89.50Q475 58 451 35Q427 12 395-1Q363-14 326-14Q288-14 256-1Q224 12 200.50 35Q177 58 163.50 89.50Q150 121 150 157Z"  horiz-adv-x="698" vert-adv-y="2000"  />

      
      <glyph glyph-name="uni22" unicode="&#x22;" d="M476 1455L440 1169L394 1011Q379 959 353 931.50Q327 904 276 904Q232 904 211.50 931.50Q191 959 188 1011L180 1169L216 1455L476 1455M852 1455L816 1169L770 1011Q755 959 729 931.50Q703 904 652 904Q608 904 587.50 931.50Q567 959 564 1011L556 1169L592 1455L852 1455Z"  horiz-adv-x="828" vert-adv-y="2000"  />

      
      <glyph glyph-name="uni23" unicode="&#x23;" d="M837 397L718 0L578 0Q545 0 525 23.50Q505 47 505 83Q505 91 506 100Q507 109 510 119L593 397L420 397L334 104Q326 76 310.50 56Q295 36 275.50 23.50Q256 11 233.50 5.50Q211 0 188 0L54 0L175 397L82 397Q49 397 30.50 411.50Q12 426 12 458Q12 483 22 514L50 606L229 606L302 851L100 851L138 972Q152 1017 184.50 1037.50Q217 1058 282 1058L356 1058L446 1359Q460 1405 498.50 1430Q537 1455 584 1455L722 1455L601 1058L773 1058L894 1455L1028 1455Q1066 1455 1089 1435Q1112 1415 1112 1383Q1112 1369 1108 1357L1019 1058L1216 1058L1176 938Q1161 893 1129 872Q1097 851 1034 851L964 851L891 606L1006 606Q1039 606 1057.50 591.50Q1076 577 1076 545Q1076 520 1066 489L1038 397L837 397M473 606L647 606L720 851L548 851L473 606Z"  horiz-adv-x="1160" vert-adv-y="2000"  />

      
      <glyph glyph-name="uni24" unicode="&#x24;" d="M375-6Q319 3 265.50 20Q212 37 164 60.50Q116 84 74.50 113Q33 142 2 176L112 309Q126 326 146.50 337Q167 348 190 348Q214 348 237 335Q260 322 287.50 303.50Q315 285 349 266Q383 247 428 235L513 627Q449 645 386.50 670Q324 695 274 735Q224 775 193 835.50Q162 896 162 986Q162 1076 199 1160.50Q236 1245 305.50 1311.50Q375 1378 474 1420Q573 1462 697 1468L722 1581Q728 1609 752.50 1630.50Q777 1652 810 1652L920 1652L877 1456Q983 1436 1054.50 1392.50Q1126 1349 1174 1297L1088 1190Q1068 1165 1050 1154.50Q1032 1144 1008 1144Q993 1144 974 1151.50Q955 1159 932 1170.50Q909 1182 882 1194Q855 1206 824 1215L744 847Q808 827 872 802Q936 777 986.50 738.50Q1037 700 1068.50 644Q1100 588 1100 506Q1100 406 1062.50 315.50Q1025 225 954.50 155Q884 85 783.50 40.50Q683-4 556-13L528-144Q523-170 498-191.50Q473-213 440-213L330-213L375-6M808 436Q808 489 773.50 520.50Q739 552 685 574L609 228Q709 243 758.50 295.50Q808 348 808 436M450 1051Q450 997 484.50 963.50Q519 930 574 906L643 1222Q590 1215 553 1199Q516 1183 493 1160.50Q470 1138 460 1110Q450 1082 450 1051Z"  horiz-adv-x="1160" vert-adv-y="2000"  />

      
      <glyph glyph-name="uni25" unicode="&#x25;" d="M772 1155Q772 1062 739.50 986Q707 910 654.50 856Q602 802 535 772.50Q468 743 398 743Q334 743 282 765.50Q230 788 193 829Q156 870 136 927Q116 984 116 1053Q116 1146 145 1222.50Q174 1299 224 1354Q274 1409 342 1439Q410 1469 488 1469Q552 1469 604.50 1446.50Q657 1424 694.50 1382.50Q732 1341 752 1283Q772 1225 772 1155M542 1153Q542 1225 520.50 1254.50Q499 1284 464 1284Q437 1284 415 1271.50Q393 1259 378 1231.50Q363 1204 354.50 1160Q346 1116 346 1053Q346 984 366.50 957Q387 930 422 930Q448 930 470 941Q492 952 508 978Q524 1004 533 1047Q542 1090 542 1153M1222 1411Q1239 1427 1261.50 1441Q1284 1455 1322 1455L1540 1455L350 42Q333 25 310.50 12.50Q288 0 256 0L34 0L1222 1411M1454 394Q1454 301 1421.50 225Q1389 149 1336.50 95Q1284 41 1217 11.50Q1150-18 1080-18Q1016-18 964 4.50Q912 27 875 68Q838 109 818 166Q798 223 798 291Q798 385 827 462Q856 539 906 594Q956 649 1024 679Q1092 709 1170 709Q1234 709 1286.50 686Q1339 663 1376.50 622Q1414 581 1434 522.50Q1454 464 1454 394M1224 392Q1224 465 1202.50 493Q1181 521 1146 521Q1119 521 1097 509Q1075 497 1060 469.50Q1045 442 1036.50 398Q1028 354 1028 291Q1028 223 1048.50 195.50Q1069 168 1104 168Q1130 168 1152 179Q1174 190 1190 216.50Q1206 243 1215 286Q1224 329 1224 392Z"  horiz-adv-x="1512" vert-adv-y="2000"  />

      
      <glyph glyph-name="uni26" unicode="&#x26;" d="M732 1471Q822 1471 889 1444Q956 1417 1000.50 1371.50Q1045 1326 1067.50 1265Q1090 1204 1090 1137L910 1102Q893 1099 881 1099Q858 1099 845 1109.50Q832 1120 824 1145Q790 1251 704 1251Q670 1251 643.50 1235.50Q617 1220 599 1194Q581 1168 571.50 1133Q562 1098 562 1059Q562 1019 575.50 975Q589 931 622 880L894 521Q949 631 973 758Q978 785 992.50 802Q1007 819 1036 819L1248 819Q1229 672 1178 545Q1127 418 1051 315L1290 0L1030 0Q994 0 968.50 4.50Q943 9 923 19Q903 29 886.50 44.50Q870 60 852 83L834 106Q746 47 647 15.50Q548-16 442-16Q341-16 263 10.50Q185 37 132.50 86.50Q80 136 53 205.50Q26 275 26 361Q26 437 49.50 503.50Q73 570 114 626.50Q155 683 212 728.50Q269 774 335 807Q307 868 295.50 927.50Q284 987 284 1041Q284 1128 315 1206Q346 1284 404 1343Q462 1402 545 1436.50Q628 1471 732 1471M334 399Q334 358 343 324Q352 290 372.50 265.50Q393 241 426 227.50Q459 214 506 214Q558 214 608 232Q658 250 704 284L443 641Q381 588 357.50 527Q334 466 334 399Z"  horiz-adv-x="1334" vert-adv-y="2000"  />

      
      <glyph glyph-name="uni27" unicode="&#x27;" d="M476 1455L440 1169L394 1011Q379 959 353 931.50Q327 904 276 904Q232 904 211.50 931.50Q191 959 188 1011L180 1169L216 1455L476 1455Z"  horiz-adv-x="454" vert-adv-y="2000"  />

      
      <glyph glyph-name="uni28" unicode="&#x28;" d="M328 427Q328 361 332.50 287.50Q337 214 346 139.50Q355 65 369.50-6.50Q384-78 404-140Q408-152 410.50-162.50Q413-173 413-182Q413-209 398-225.50Q383-242 362-253L220-330Q180-246 151.50-153.50Q123-61 104.50 34Q86 129 77 224Q68 319 68 406Q68 562 88.50 709.50Q109 857 155 1001Q201 1145 274.50 1288.50Q348 1432 454 1582L578 1506Q592 1496 602.50 1483.50Q613 1471 613 1452Q613 1440 607 1426Q601 1412 590 1392Q533 1288 484.50 1176Q436 1064 401.50 943Q367 822 347.50 693Q328 564 328 427Z"  horiz-adv-x="552" vert-adv-y="2000"  />

      
      <glyph glyph-name="uni29" unicode="&#x29;" d="M258 825Q258 891 253.50 964.50Q249 1038 240 1112.50Q231 1187 216.50 1258.50Q202 1330 182 1392Q178 1404 175.50 1414.50Q173 1425 173 1434Q173 1461 188 1477.50Q203 1494 224 1505L366 1582Q406 1498 434.50 1405.50Q463 1313 481.50 1217.50Q500 1122 509 1027.50Q518 933 518 846Q518 690 497.50 542.50Q477 395 431 251Q385 107 311.50-36.50Q238-180 132-330L8-254Q-6-244-16.50-231.50Q-27-219-27-200Q-27-188-21-174Q-15-160-4-140Q53-37 101.50 75.50Q150 188 184.50 308.50Q219 429 238.50 558.50Q258 688 258 825Z"  horiz-adv-x="552" vert-adv-y="2000"  />

      
      <glyph glyph-name="uni2a" unicode="&#x2a;" d="M336 819L358 994Q363 1036 378 1071Q364 1057 347.50 1046Q331 1035 312 1025L170 938L116 1053L258 1140Q278 1151 297.50 1159Q317 1167 337 1171Q299 1177 266 1201L144 1290L228 1406L350 1316Q365 1306 379 1295Q393 1284 404 1271Q400 1288 400 1313Q400 1321 400 1329.50Q400 1338 402 1346L424 1522L564 1522L542 1347Q539 1327 534.50 1303Q530 1279 521 1262Q535 1276 551.50 1291Q568 1306 588 1316L730 1404L784 1288L642 1201Q622 1190 602 1182.50Q582 1175 562 1171Q581 1167 599 1159.50Q617 1152 634 1140L754 1051L672 938L550 1025Q534 1035 520.50 1046Q507 1057 496 1070Q498 1060 499 1050Q500 1040 500 1029Q500 1021 499.50 1012.50Q499 1004 498 996L476 819L336 819Z"  horiz-adv-x="736" vert-adv-y="2000"  />

      
      <glyph glyph-name="uni2b" unicode="&#x2b;" d="M784 1177L735 779L1110 779L1082 565L709 565L660 165L416 165L466 565L94 565L122 779L492 779L542 1177L784 1177Z"  horiz-adv-x="1160" vert-adv-y="2000"  />

      
      <glyph glyph-name="uni2c" unicode="&#x2c;" d="M30 176Q30 208 42 235.50Q54 263 76.50 283.50Q99 304 129.50 316Q160 328 198 328Q243 328 276 312.50Q309 297 331 270.50Q353 244 363.50 209.50Q374 175 374 137Q374 87 358 30.50Q342-26 310.50-83Q279-140 232-195Q185-250 124-295L70-247Q59-236 53.50-227Q48-218 48-205Q48-189 65.50-169Q83-149 105.50-123.50Q128-98 150-66.50Q172-35 182 5Q148 8 120 22Q92 36 72 58.50Q52 81 41 111Q30 141 30 176Z"  horiz-adv-x="472" vert-adv-y="2000"  />

      
      <glyph glyph-name="uni2d" unicode="&#x2d;" d="M122 728L624 728L592 486L92 486L122 728Z"  horiz-adv-x="686" vert-adv-y="2000"  />

      
      <glyph glyph-name="uni2e" unicode="&#x2e;" d="M24 157Q24 193 37.50 224Q51 255 74.50 278Q98 301 130 314.50Q162 328 200 328Q237 328 269 314.50Q301 301 325 278Q349 255 362.50 224Q376 193 376 157Q376 121 362.50 89.50Q349 58 325 35Q301 12 269-1Q237-14 200-14Q162-14 130-1Q98 12 74.50 35Q51 58 37.50 89.50Q24 121 24 157Z"  horiz-adv-x="472" vert-adv-y="2000"  />

      
      <glyph glyph-name="uni2f" unicode="&#x2f;" d="M204 7Q192-20 172.50-40Q153-60 130-73.50Q107-87 82.50-94Q58-101 36-101L-92-101L590 1357Q613 1407 657 1433Q701 1459 754 1459L880 1459L204 7Z"  horiz-adv-x="750" vert-adv-y="2000"  />

      
      <glyph glyph-name="uni30" unicode="&#x30;" d="M696 1471Q797 1471 880 1434Q963 1397 1022 1323Q1081 1249 1113.50 1137.50Q1146 1026 1146 878Q1146 651 1097 483Q1048 315 962.50 204Q877 93 761 38.50Q645-16 512-16Q411-16 328 21Q245 58 186 132.50Q127 207 94.50 318Q62 429 62 577Q62 804 111 972Q160 1140 245.50 1251Q331 1362 446.50 1416.50Q562 1471 696 1471M552 224Q613 224 665 264Q717 304 754.50 384.50Q792 465 813 587Q834 709 834 873Q834 979 818.50 1048Q803 1117 778 1158Q753 1199 721 1215.50Q689 1232 656 1232Q594 1232 542.50 1192Q491 1152 453.50 1071Q416 990 395 868Q374 746 374 583Q374 477 389.50 407.50Q405 338 430 297.50Q455 257 487 240.50Q519 224 552 224Z"  horiz-adv-x="1160" vert-adv-y="2000"  />

      
      <glyph glyph-name="uni31" unicode="&#x31;" d="M222 217L504 217L598 1001L619 1091L422 939Q405 926 388.50 922Q372 918 358 918Q332 918 314 928.50Q296 939 288 951L210 1077L708 1458L956 1458L803 217L1048 217L1020 0L196 0L222 217Z"  horiz-adv-x="1160" vert-adv-y="2000"  />

      
      <glyph glyph-name="uni32" unicode="&#x32;" d="M714 1471Q811 1471 888.50 1443.50Q966 1416 1019.50 1366.50Q1073 1317 1101.50 1249Q1130 1181 1130 1100Q1130 1010 1103.50 935.50Q1077 861 1031 794Q985 727 922.50 665Q860 603 788 537L458 236Q514 252 568 261Q622 270 668 270L958 270Q1003 270 1027 247Q1051 224 1051 186Q1051 184 1050.50 179.50Q1050 175 1048 157.50Q1046 140 1041.50 103Q1037 66 1028 0L10 0L22 96Q25 123 41 155.50Q57 188 88 215L564 641Q634 704 683 758Q732 812 762.50 863Q793 914 806.50 964.50Q820 1015 820 1071Q820 1144 781 1186Q742 1228 664 1228Q628 1228 596.50 1217.50Q565 1207 539 1188.50Q513 1170 493 1145Q473 1120 460 1091Q440 1048 412.50 1029Q385 1010 344 1010Q322 1010 302 1014L148 1041Q178 1149 233 1229.50Q288 1310 362 1364Q436 1418 525.50 1444.50Q615 1471 714 1471Z"  horiz-adv-x="1160" vert-adv-y="2000"  />

      
      <glyph glyph-name="uni33" unicode="&#x33;" d="M750 1471Q849 1471 925 1443.50Q1001 1416 1052 1369.50Q1103 1323 1129.50 1261.50Q1156 1200 1156 1131Q1156 1052 1139.50 993Q1123 934 1090.50 892Q1058 850 1009.50 822Q961 794 897 776Q1000 734 1051 661.50Q1102 589 1102 486Q1102 403 1080 334Q1058 265 1019.50 209Q981 153 927.50 111Q874 69 811 40.50Q748 12 677.50-2Q607-16 534-16Q430-16 351 6.50Q272 29 215 76.50Q158 124 121 197Q84 270 62 372L202 426Q221 434 238.50 437Q256 440 273 440Q304 440 326.50 428Q349 416 358 393Q391 306 438 266.50Q485 227 562 227Q620 227 665 247.50Q710 268 741 302.50Q772 337 788 383.50Q804 430 804 481Q804 517 793 546.50Q782 576 750.50 597Q719 618 663 629.50Q607 641 516 641L544 846Q635 847 695.50 862.50Q756 878 792 906.50Q828 935 843 976.50Q858 1018 858 1072Q858 1147 818.50 1187.50Q779 1228 702 1228Q628 1228 575 1188.50Q522 1149 496 1091Q476 1048 448.50 1029Q421 1010 381 1010Q372 1010 361.50 1011Q351 1012 340 1014L186 1041Q215 1149 270 1229.50Q325 1310 398.50 1364Q472 1418 561.50 1444.50Q651 1471 750 1471Z"  horiz-adv-x="1160" vert-adv-y="2000"  />

      
      <glyph glyph-name="uni34" unicode="&#x34;" d="M988 561L1138 561L1114 394Q1111 372 1094 355.50Q1077 339 1048 339L961 339L920 0L650 0L691 339L107 339Q78 339 54 357.50Q30 376 27 408L16 547L804 1457L1098 1457L988 561M766 961Q770 991 776.50 1025.50Q783 1060 793 1097L339 561L718 561L766 961Z"  horiz-adv-x="1160" vert-adv-y="2000"  />

      
      <glyph glyph-name="uni35" unicode="&#x35;" d="M1100 1333Q1096 1303 1083.50 1277.50Q1071 1252 1047.50 1233.50Q1024 1215 989 1205Q954 1195 906 1195L550 1195L475 938Q516 946 554 949Q592 952 627 952Q734 952 814.50 922Q895 892 948.50 839.50Q1002 787 1029 716Q1056 645 1056 563Q1056 436 1008 329.50Q960 223 876 146.50Q792 70 678.50 27Q565-16 434-16Q363-16 300.50-1.50Q238 13 185.50 38Q133 63 89.50 96Q46 129 12 166L120 291Q137 311 158 320Q179 329 200 329Q229 329 253.50 313Q278 297 308 277.50Q338 258 379 242Q420 226 482 226Q553 226 604.50 251Q656 276 689 317Q722 358 738 412Q754 466 754 525Q754 613 700 664.50Q646 716 537 716Q495 716 446 708Q397 700 340 682L162 732L376 1457L1116 1457L1100 1333Z"  horiz-adv-x="1160" vert-adv-y="2000"  />

      
      <glyph glyph-name="uni36" unicode="&#x36;" d="M738 919Q811 919 879.50 895.50Q948 872 1001 825Q1054 778 1086 707Q1118 636 1118 542Q1118 428 1073.50 326.50Q1029 225 949.50 149Q870 73 761.50 28.50Q653-16 526-16Q416-16 330 17.50Q244 51 185.50 110.50Q127 170 96.50 252.50Q66 335 66 433Q66 568 123.50 689.50Q181 811 292 939L678 1386Q703 1415 748 1435Q793 1455 846 1455L1112 1455L575 891Q612 905 652.50 912Q693 919 738 919M350 423Q350 377 362.50 339.50Q375 302 400 275.50Q425 249 462.50 234.50Q500 220 550 220Q604 220 652.50 240.50Q701 261 737 298Q773 335 794.50 385Q816 435 816 494Q816 543 801 581.50Q786 620 759 647Q732 674 693 688.50Q654 703 606 703Q552 703 505 683Q458 663 423.50 626.50Q389 590 369.50 538.50Q350 487 350 423Z"  horiz-adv-x="1160" vert-adv-y="2000"  />

      
      <glyph glyph-name="uni37" unicode="&#x37;" d="M1224 1457L1210 1342Q1205 1302 1195.50 1268Q1186 1234 1172 1212L486 66Q469 38 437 19Q405 0 372 0L120 0L776 1059Q801 1099 828.50 1132Q856 1165 888 1195L238 1195Q212 1195 195 1213Q178 1231 178 1254Q178 1265 180.50 1287.50Q183 1310 187 1338Q191 1366 195.50 1397Q200 1428 204 1457L1224 1457Z"  horiz-adv-x="1160" vert-adv-y="2000"  />

      
      <glyph glyph-name="uni38" unicode="&#x38;" d="M518-16Q411-16 325 11.50Q239 39 177.50 89Q116 139 83 209.50Q50 280 50 366Q50 435 66.50 496Q83 557 119 607.50Q155 658 211 696.50Q267 735 345 760Q262 801 221 869Q180 937 180 1028Q180 1123 220 1204Q260 1285 330.50 1344.50Q401 1404 495.50 1437.50Q590 1471 700 1471Q795 1471 873.50 1443.50Q952 1416 1007.50 1368.50Q1063 1321 1093.50 1256Q1124 1191 1124 1116Q1124 988 1063.50 896.50Q1003 805 882 756Q993 714 1042.50 638.50Q1092 563 1092 463Q1092 354 1049 265.50Q1006 177 929.50 114.50Q853 52 747.50 18Q642-16 518-16M546 210Q607 210 651.50 229Q696 248 725.50 281Q755 314 769.50 359.50Q784 405 784 458Q784 498 774 531.50Q764 565 741.50 588.50Q719 612 683.50 625Q648 638 598 638Q532 638 487 619.50Q442 601 414 568Q386 535 374 489.50Q362 444 362 391Q362 352 372.50 319Q383 286 405.50 262Q428 238 463 224Q498 210 546 210M626 864Q691 864 731 886.50Q771 909 793 943Q815 977 822.50 1018Q830 1059 830 1095Q830 1126 821.50 1154.50Q813 1183 794.50 1205Q776 1227 746.50 1240Q717 1253 674 1253Q620 1253 581.50 1235Q543 1217 518 1186.50Q493 1156 481.50 1116Q470 1076 470 1032Q470 1000 477.50 970Q485 940 503 916.50Q521 893 551 878.50Q581 864 626 864Z"  horiz-adv-x="1160" vert-adv-y="2000"  />

      
      <glyph glyph-name="uni39" unicode="&#x39;" d="M526 570Q460 570 396.50 592.50Q333 615 283 660Q233 705 202.50 773Q172 841 172 933Q172 1043 215 1140.50Q258 1238 334.50 1311.50Q411 1385 516 1428Q621 1471 744 1471Q850 1471 933 1439.50Q1016 1408 1072.50 1352Q1129 1296 1158.50 1218.50Q1188 1141 1188 1048Q1188 968 1172.50 898.50Q1157 829 1128 764.50Q1099 700 1058 639Q1017 578 966 517L594 67Q570 38 527.50 19Q485 0 432 0L156 0L684 554Q700 571 715 587.50Q730 604 744 620Q695 595 640 582.50Q585 570 526 570M904 1044Q904 1090 890 1125.50Q876 1161 850.50 1185.50Q825 1210 789 1223Q753 1236 710 1236Q657 1236 614 1216.50Q571 1197 540.50 1161.50Q510 1126 493 1078Q476 1030 476 973Q476 883 522 836Q568 789 660 789Q717 789 762 807.50Q807 826 838.50 859.50Q870 893 887 940Q904 987 904 1044Z"  horiz-adv-x="1160" vert-adv-y="2000"  />

      
      <glyph glyph-name="uni3a" unicode="&#x3a;" d="M24 157Q24 193 37.50 224Q51 255 74.50 278Q98 301 130 314.50Q162 328 200 328Q237 328 269 314.50Q301 301 325 278Q349 255 362.50 224Q376 193 376 157Q376 121 362.50 89.50Q349 58 325 35Q301 12 269-1Q237-14 200-14Q162-14 130-1Q98 12 74.50 35Q51 58 37.50 89.50Q24 121 24 157M120 840Q120 876 133.50 907Q147 938 170.50 961Q194 984 226 997.50Q258 1011 296 1011Q333 1011 365 997.50Q397 984 421 961Q445 938 458.50 907Q472 876 472 840Q472 804 458.50 772.50Q445 741 421 718Q397 695 365 682Q333 669 296 669Q258 669 226 682Q194 695 170.50 718Q147 741 133.50 772.50Q120 804 120 840Z"  horiz-adv-x="472" vert-adv-y="2000"  />

      
      <glyph glyph-name="uni3b" unicode="&#x3b;" d="M24 176Q24 208 36 235.50Q48 263 70.50 283.50Q93 304 123.50 316Q154 328 192 328Q237 328 270 312.50Q303 297 325 270.50Q347 244 357.50 209.50Q368 175 368 137Q368 87 352 30.50Q336-26 304.50-83Q273-140 226-195Q179-250 118-295L64-247Q53-236 47.50-227Q42-218 42-205Q42-189 59.50-169Q77-149 99.50-123.50Q122-98 144-66.50Q166-35 176 5Q142 8 114 22Q86 36 66 58.50Q46 81 35 111Q24 141 24 176M118 840Q118 876 131.50 907Q145 938 168.50 961Q192 984 224 997.50Q256 1011 294 1011Q331 1011 363 997.50Q395 984 419 961Q443 938 456.50 907Q470 876 470 840Q470 804 456.50 772.50Q443 741 419 718Q395 695 363 682Q331 669 294 669Q256 669 224 682Q192 695 168.50 718Q145 741 131.50 772.50Q118 804 118 840Z"  horiz-adv-x="472" vert-adv-y="2000"  />

      
      <glyph glyph-name="uni3c" unicode="&#x3c;" d="M151 735L1013 1159L986 944Q983 921 969 901.50Q955 882 926 868L624 715Q597 701 566.50 691.50Q536 682 503 674Q535 666 562.50 657.50Q590 649 614 635L881 481Q922 458 922 418Q922 410 921 406L893 191L136 614L151 735Z"  horiz-adv-x="1067" vert-adv-y="2000"  />

      
      <glyph glyph-name="uni3d" unicode="&#x3d;" d="M140 597L1046 597L1018 383L112 383L140 597M186 960L1090 960L1064 745L158 745L186 960Z"  horiz-adv-x="1160" vert-adv-y="2000"  />

      
      <glyph glyph-name="uni3e" unicode="&#x3e;" d="M961 615L99 191L126 406Q129 429 143 448.50Q157 468 186 482L488 635Q515 649 545.50 658.50Q576 668 609 676Q577 684 549.50 692.50Q522 701 498 715L231 869Q190 892 190 932Q190 940 191 944L219 1159L976 736L961 615Z"  horiz-adv-x="1067" vert-adv-y="2000"  />

      
      <glyph glyph-name="uni3f" unicode="&#x3f;" d="M138 1322Q177 1353 220.50 1380Q264 1407 313 1427.50Q362 1448 417 1459.50Q472 1471 534 1471Q619 1471 683 1447Q747 1423 789.50 1382.50Q832 1342 853 1288.50Q874 1235 874 1175Q874 1090 852.50 1031.50Q831 973 797.50 931Q764 889 723.50 858.50Q683 828 644.50 799Q606 770 575 737Q544 704 530 658L486 516L280 516L280 677Q280 729 303.50 769.50Q327 810 362.50 844Q398 878 439 908Q480 938 515.50 969.50Q551 1001 574.50 1037.50Q598 1074 598 1120Q598 1174 571 1206Q544 1238 478 1238Q431 1238 397.50 1226.50Q364 1215 339 1201.50Q314 1188 295 1176.50Q276 1165 258 1165Q238 1165 224 1173.50Q210 1182 202 1201L138 1322M184 157Q184 193 197.50 224Q211 255 234.50 278Q258 301 290 314.50Q322 328 360 328Q397 328 429 314.50Q461 301 485 278Q509 255 522.50 224Q536 193 536 157Q536 121 522.50 89.50Q509 58 485 35Q461 12 429-1Q397-14 360-14Q322-14 290-1Q258 12 234.50 35Q211 58 197.50 89.50Q184 121 184 157Z"  horiz-adv-x="820" vert-adv-y="2000"  />

      
      <glyph glyph-name="uni40" unicode="&#x40;" d="M1016 182Q988 182 961 188.50Q934 195 911.50 209.50Q889 224 872 247Q855 270 846 303Q783 238 719 210.50Q655 183 586 183Q533 183 493.50 202Q454 221 428 254Q402 287 389 332Q376 377 376 430Q376 491 392 555.50Q408 620 439.50 680Q471 740 518 793.50Q565 847 628 887Q691 927 769.50 950Q848 973 942 973Q984 973 1017 970Q1050 967 1078.50 961Q1107 955 1131.50 946.50Q1156 938 1182 926L1044 548Q1030 509 1023.50 479.50Q1017 450 1017 429Q1017 391 1035 376Q1053 361 1082 361Q1121 361 1155.50 394.50Q1190 428 1216 485.50Q1242 543 1257 620Q1272 697 1272 785Q1272 888 1244.50 967.50Q1217 1047 1164.50 1101.50Q1112 1156 1035.50 1184Q959 1212 862 1212Q731 1212 621 1156Q511 1100 431.50 1001.50Q352 903 307 770Q262 637 262 483Q262 351 297 250.50Q332 150 396.50 82Q461 14 552-21Q643-56 756-56Q829-56 889-48.50Q949-41 996-29Q1043-17 1077.50-2.50Q1112 12 1134 26Q1151 36 1165.50 39.50Q1180 43 1192 43Q1218 43 1232.50 28Q1247 13 1252-7L1274-88Q1224-121 1165.50-149Q1107-177 1039.50-198Q972-219 895.50-230.50Q819-242 734-242Q576-242 449-191Q322-140 232.50-46.50Q143 47 94.50 179Q46 311 46 473Q46 597 76 713.50Q106 830 160.50 932.50Q215 1035 292 1120.50Q369 1206 462 1267Q555 1328 662.50 1362Q770 1396 886 1396Q1010 1396 1118.50 1352.50Q1227 1309 1308 1229Q1389 1149 1435.50 1036.50Q1482 924 1482 785Q1482 660 1446 550Q1410 440 1347 358.50Q1284 277 1199 229.50Q1114 182 1016 182M670 369Q689 369 707.50 376Q726 383 744 400.50Q762 418 779.50 446.50Q797 475 812 517L912 791Q891 794 870 794Q822 794 775 766.50Q728 739 691 693Q654 647 631 586.50Q608 526 608 461Q608 369 670 369Z"  horiz-adv-x="1486" vert-adv-y="2000"  />

      
      <glyph glyph-name="uni41" unicode="&#x41;" d="M1288 0L1036 0Q994 0 968.50 19.50Q943 39 938 71L893 333L398 333L290 71Q279 43 247 21.50Q215 0 176 0L-80 0L616 1457L950 1457L1288 0M489 555L855 555L784 971Q775 1023 764.50 1076.50Q754 1130 747 1174Q739 1150 726 1119.50Q713 1089 700.50 1060Q688 1031 676.50 1006Q665 981 660 969L489 555Z"  horiz-adv-x="1326" vert-adv-y="2000"  />

      
      <glyph glyph-name="uni42" unicode="&#x42;" d="M44 0L224 1457L724 1457Q851 1457 941.50 1433Q1032 1409 1089.50 1364.50Q1147 1320 1173.50 1257.50Q1200 1195 1200 1119Q1200 1059 1184.50 1003.50Q1169 948 1135.50 901Q1102 854 1049 815.50Q996 777 921 751Q1039 719 1095.50 651.50Q1152 584 1152 481Q1152 380 1113.50 292.50Q1075 205 1002 140Q929 75 824.50 37.50Q720 0 588 0L44 0M446 622L400 245L614 245Q674 245 715 262.50Q756 280 781.50 311.50Q807 343 818.50 385Q830 427 830 477Q830 510 821.50 537Q813 564 792.50 582.50Q772 601 738.50 611.50Q705 622 656 622L446 622M472 838L628 838Q683 838 727 849Q771 860 802.50 886.50Q834 913 851 957Q868 1001 868 1066Q868 1147 825.50 1180.50Q783 1214 694 1214L518 1214L472 838Z"  horiz-adv-x="1208" vert-adv-y="2000"  />

      
      <glyph glyph-name="uni43" unicode="&#x43;" d="M678 252Q733 252 773.50 260.50Q814 269 843 282Q872 295 892 310.50Q912 326 928 339Q944 352 958 360.50Q972 369 988 369Q1004 369 1014.50 363.50Q1025 358 1030 351L1144 214Q1049 101 918.50 42.50Q788-16 622-16Q484-16 377.50 32.50Q271 81 198 166Q125 251 87.50 367.50Q50 484 50 619Q50 744 78 856Q106 968 157 1063Q208 1158 279.50 1234Q351 1310 438 1363Q525 1416 625 1444.50Q725 1473 834 1473Q916 1473 983.50 1457.50Q1051 1442 1105.50 1414.50Q1160 1387 1203 1349Q1246 1311 1278 1265L1164 1133Q1152 1119 1136 1108Q1120 1097 1094 1097Q1077 1097 1063 1105Q1049 1113 1034.50 1124.50Q1020 1136 1002 1150Q984 1164 959 1175.50Q934 1187 899.50 1195Q865 1203 818 1203Q726 1203 646.50 1164Q567 1125 508.50 1052.50Q450 980 417 876.50Q384 773 384 645Q384 552 406.50 479Q429 406 468 355.50Q507 305 561 278.50Q615 252 678 252Z"  horiz-adv-x="1182" vert-adv-y="2000"  />

      
      <glyph glyph-name="uni44" unicode="&#x44;" d="M1366 822Q1366 703 1339 596.50Q1312 490 1262 398.50Q1212 307 1140.50 233.50Q1069 160 980.50 108Q892 56 787.50 28Q683 0 568 0L44 0L224 1457L748 1457Q891 1457 1005.50 1408.50Q1120 1360 1200 1275Q1280 1190 1323 1074Q1366 958 1366 822M1032 814Q1032 903 1011.50 975.50Q991 1048 950.50 1099Q910 1150 851 1178Q792 1206 716 1206L520 1206L404 251L600 251Q700 251 780 290.50Q860 330 916 403Q972 476 1002 580Q1032 684 1032 814Z"  horiz-adv-x="1364" vert-adv-y="2000"  />

      
      <glyph glyph-name="uni45" unicode="&#x45;" d="M1060 1206L521 1206L477 854L890 854L858 612L447 612L403 251L946 251L914 0L44 0L224 1457L1092 1457L1060 1206Z"  horiz-adv-x="1036" vert-adv-y="2000"  />

      
      <glyph glyph-name="uni46" unicode="&#x46;" d="M1060 1206L521 1206L473 822L924 822L890 571L442 571L372 0L44 0L224 1457L1092 1457L1060 1206Z"  horiz-adv-x="1024" vert-adv-y="2000"  />

      
      <glyph glyph-name="uni47" unicode="&#x47;" d="M710 235Q770 235 818 245.50Q866 256 910 275L938 513L814 513Q786 513 771 526Q756 539 756 561L778 749L1264 749L1188 140Q1132 99 1072 69.50Q1012 40 946.50 21Q881 2 808.50-7Q736-16 654-16Q519-16 407.50 33.50Q296 83 216.50 170Q137 257 93.50 376Q50 495 50 634Q50 755 77.50 864.50Q105 974 156 1067Q207 1160 278.50 1235Q350 1310 437.50 1363Q525 1416 626 1444.50Q727 1473 838 1473Q931 1473 1006.50 1456Q1082 1439 1142 1410.50Q1202 1382 1249 1344.50Q1296 1307 1332 1267L1226 1136Q1190 1092 1145 1092Q1118 1092 1090 1110Q1054 1133 1023 1150.50Q992 1168 960.50 1179.50Q929 1191 893.50 1197Q858 1203 814 1203Q719 1203 640 1162.50Q561 1122 504 1048.50Q447 975 415.50 872Q384 769 384 645Q384 549 407.50 472.50Q431 396 474 343.50Q517 291 577 263Q637 235 710 235Z"  horiz-adv-x="1306" vert-adv-y="2000"  />

      
      <glyph glyph-name="uni48" unicode="&#x48;" d="M1226 0L898 0L974 620L448 620L372 0L44 0L224 1457L552 1457L476 842L1002 842L1078 1457L1406 1457L1226 0Z"  horiz-adv-x="1392" vert-adv-y="2000"  />

      
      <glyph glyph-name="uni49" unicode="&#x49;" d="M400 0L72 0L250 1457L578 1457L400 0Z"  horiz-adv-x="592" vert-adv-y="2000"  />

      
      <glyph glyph-name="uni4a" unicode="&#x4a;" d="M688 523Q673 401 633 302Q593 203 527 132Q461 61 369.50 22.50Q278-16 160-16Q107-16 56.50-10Q6-4-48 10L-24 197Q-21 222-6.50 238.50Q8 255 40 255Q64 255 94 249.50Q124 244 160 244Q241 244 293 307.50Q345 371 362 515L476 1457L802 1457L688 523Z"  horiz-adv-x="788" vert-adv-y="2000"  />

      
      <glyph glyph-name="uni4b" unicode="&#x4b;" d="M474 861L522 861Q557 861 584 872.50Q611 884 628 909L974 1392Q1002 1431 1038 1444Q1074 1457 1122 1457L1404 1457L946 862Q923 831 898 811Q873 791 846 777Q880 763 906 739.50Q932 716 950 676L1258 0L968 0Q940 0 920.50 4Q901 8 887.50 15.50Q874 23 865 34.50Q856 46 850 60L624 572Q611 601 586.50 612.50Q562 624 520 624L445 624L368 0L44 0L222 1457L548 1457L474 861Z"  horiz-adv-x="1320" vert-adv-y="2000"  />

      
      <glyph glyph-name="uni4c" unicode="&#x4c;" d="M402 260L892 260L860 0L44 0L224 1457L550 1457L402 260Z"  horiz-adv-x="956" vert-adv-y="2000"  />

      
      <glyph glyph-name="uni4d" unicode="&#x4d;" d="M830 640Q851 577 866 511Q882 544 899.50 576Q917 608 936 640L1382 1407Q1402 1441 1432 1449Q1462 1457 1490 1457L1746 1457L1566 0L1280 0L1382 848Q1385 875 1391.50 907.50Q1398 940 1406 975L968 223Q948 189 916 172.50Q884 156 846 156L802 156Q764 156 735.50 173Q707 190 696 223L440 977Q438 943 436.50 911Q435 879 432 853L332 0L44 0L224 1457L472 1457Q493 1457 509 1456Q525 1455 537.50 1450.50Q550 1446 559 1436Q568 1426 574 1407L830 640L830 640Z"  horiz-adv-x="1732" vert-adv-y="2000"  />

      
      <glyph glyph-name="uni4e" unicode="&#x4e;" d="M396 1457Q417 1457 431.50 1455.50Q446 1454 457.50 1448.50Q469 1443 478 1433Q487 1423 496 1407L1007 507Q1009 542 1013 574Q1017 606 1020 634L1118 1457L1406 1457L1226 0L1056 0Q1018 0 993 11Q968 22 950 54L441 953Q439 925 436.50 899Q434 873 432 850L332 0L44 0L224 1457L396 1457L396 1457Z"  horiz-adv-x="1392" vert-adv-y="2000"  />

      
      <glyph glyph-name="uni4f" unicode="&#x4f;" d="M1468 822Q1468 704 1440.50 596Q1413 488 1362.50 395Q1312 302 1240.50 226Q1169 150 1080 96.50Q991 43 887 13.50Q783-16 668-16Q524-16 409.50 34.50Q295 85 215 172.50Q135 260 92.50 378.50Q50 497 50 634Q50 752 77.50 860.50Q105 969 155.50 1062Q206 1155 278 1231Q350 1307 439 1360.50Q528 1414 632 1443.50Q736 1473 852 1473Q995 1473 1109.50 1422.50Q1224 1372 1303.50 1284Q1383 1196 1425.50 1077Q1468 958 1468 822M1134 814Q1134 904 1112.50 977.50Q1091 1051 1049.50 1103.50Q1008 1156 948 1184.50Q888 1213 812 1213Q712 1213 633 1171.50Q554 1130 498.50 1055Q443 980 413.50 874.50Q384 769 384 641Q384 551 405 478Q426 405 466.50 353Q507 301 567 272.50Q627 244 704 244Q804 244 883.50 285Q963 326 1018.50 401Q1074 476 1104 581Q1134 686 1134 814Z"  horiz-adv-x="1464" vert-adv-y="2000"  />

      
      <glyph glyph-name="uni50" unicode="&#x50;" d="M428 491L368 0L44 0L222 1457L704 1457Q834 1457 926.50 1425.50Q1019 1394 1078.50 1338.50Q1138 1283 1166 1207.50Q1194 1132 1194 1045Q1194 926 1157.50 824.50Q1121 723 1046 649Q971 575 856 533Q741 491 584 491L428 491M518 1214L459 736L616 736Q686 736 733.50 756.50Q781 777 810.50 814.50Q840 852 853 904Q866 956 866 1018Q866 1061 854.50 1097Q843 1133 819 1159Q795 1185 758.50 1199.50Q722 1214 672 1214L518 1214Z"  horiz-adv-x="1180" vert-adv-y="2000"  />

      
      <glyph glyph-name="uni51" unicode="&#x51;" d="M1468 822Q1468 711 1444 609Q1420 507 1375 417.50Q1330 328 1266 253.50Q1202 179 1123 124L1414-274L1146-274Q1089-274 1043-260.50Q997-247 968-204L827-1Q750-16 668-16Q524-16 409.50 34.50Q295 85 215 172.50Q135 260 92.50 378.50Q50 497 50 634Q50 752 77.50 860.50Q105 969 155.50 1062Q206 1155 278 1231Q350 1307 439 1360.50Q528 1414 632 1443.50Q736 1473 852 1473Q995 1473 1109.50 1422.50Q1224 1372 1303.50 1284Q1383 1196 1425.50 1077Q1468 958 1468 822M1134 814Q1134 904 1112.50 977.50Q1091 1051 1049.50 1103.50Q1008 1156 948 1184.50Q888 1213 812 1213Q712 1213 633 1171.50Q554 1130 498.50 1055Q443 980 413.50 874.50Q384 769 384 641Q384 551 405 478Q426 405 466.50 353Q507 301 567 272.50Q627 244 704 244Q804 244 883.50 285Q963 326 1018.50 401Q1074 476 1104 581Q1134 686 1134 814Z"  horiz-adv-x="1464" vert-adv-y="2000"  />

      
      <glyph glyph-name="uni52" unicode="&#x52;" d="M435 544L368 0L44 0L222 1457L664 1457Q798 1457 892.50 1428.50Q987 1400 1047 1350Q1107 1300 1134.50 1231.50Q1162 1163 1162 1083Q1162 1002 1140.50 930Q1119 858 1078 797.50Q1037 737 977.50 690.50Q918 644 842 614Q872 597 898.50 573Q925 549 940 513L1152 0L858 0Q817 0 789 16Q761 32 750 62L592 493Q581 521 562.50 532.50Q544 544 508 544L435 544M518 1214L463 769L582 769Q652 769 701 790.50Q750 812 780.50 848Q811 884 824.50 932Q838 980 838 1033Q838 1074 826 1107.50Q814 1141 788.50 1164.50Q763 1188 724.50 1201Q686 1214 634 1214L518 1214Z"  horiz-adv-x="1228" vert-adv-y="2000"  />

      
      <glyph glyph-name="uni53" unicode="&#x53;" d="M942 1165Q925 1141 907.50 1130Q890 1119 866 1119Q843 1119 820 1134Q797 1149 768.50 1167Q740 1185 703 1200Q666 1215 616 1215Q570 1215 535.50 1202Q501 1189 478 1166Q455 1143 443.50 1112Q432 1081 432 1044Q432 1004 454.50 977Q477 950 514.50 929.50Q552 909 599 892Q646 875 695.50 855Q745 835 792.50 809Q840 783 877.50 744Q915 705 937.50 650Q960 595 960 518Q960 408 922 311Q884 214 813 141.50Q742 69 640.50 26.50Q539-16 412-16Q349-16 285.50-2Q222 12 163.50 37.50Q105 63 55 98Q5 133-30 176L86 328Q99 345 120 356Q141 367 162 367Q190 367 216.50 347.50Q243 328 275 304.50Q307 281 349.50 261.50Q392 242 454 242Q545 242 594.50 291.50Q644 341 644 438Q644 483 621.50 512Q599 541 562.50 561Q526 581 479 596.50Q432 612 383 630Q334 648 287 672.50Q240 697 203.50 736.50Q167 776 144.50 833.50Q122 891 122 975Q122 1072 158.50 1161.50Q195 1251 263 1320Q331 1389 428 1430Q525 1471 646 1471Q708 1471 766.50 1458Q825 1445 876 1422Q927 1399 969 1367.50Q1011 1336 1040 1299L942 1165Z"  horiz-adv-x="1000" vert-adv-y="2000"  />

      
      <glyph glyph-name="uni54" unicode="&#x54;" d="M1206 1457L1172 1199L802 1199L654 0L330 0L476 1199L104 1199L136 1457L1206 1457Z"  horiz-adv-x="1104" vert-adv-y="2000"  />

      
      <glyph glyph-name="uni55" unicode="&#x55;" d="M640 256Q701 256 751 279.50Q801 303 839 346.50Q877 390 902 452Q927 514 936 591L1042 1457L1368 1457L1262 591Q1245 458 1191.50 346.50Q1138 235 1052.50 154.50Q967 74 854 29Q741-16 606-16Q484-16 388.50 21Q293 58 227.50 125.50Q162 193 128 287Q94 381 94 494Q94 541 100 591L204 1457L530 1457L424 591Q422 573 421 555.50Q420 538 420 521Q420 397 476.50 326.50Q533 256 640 256Z"  horiz-adv-x="1334" vert-adv-y="2000"  />

      
      <glyph glyph-name="uni56" unicode="&#x56;" d="M118 1457L380 1457Q422 1457 447 1437Q472 1417 478 1386L630 583Q639 534 651.50 472.50Q664 411 672 348Q693 411 720 471.50Q747 532 768 583L1108 1386Q1114 1399 1125 1412Q1136 1425 1151.50 1435Q1167 1445 1185.50 1451Q1204 1457 1224 1457L1488 1457L772 0L476 0L118 1457Z"  horiz-adv-x="1368" vert-adv-y="2000"  />

      
      <glyph glyph-name="uni57" unicode="&#x57;" d="M128 1457L384 1457Q426 1457 451.50 1437.50Q477 1418 482 1386L584 601Q588 573 590 543.50Q592 514 594 490Q596 461 596 434Q611 481 627.50 522.50Q644 564 658 601L956 1386Q967 1413 998 1435Q1029 1457 1070 1457L1146 1457Q1188 1457 1214.50 1437.50Q1241 1418 1246 1386L1358 601Q1363 566 1368.50 524.50Q1374 483 1378 438Q1391 483 1404 524Q1417 565 1430 601L1718 1386Q1728 1414 1760.50 1435.50Q1793 1457 1834 1457L2092 1457L1498 0L1202 0L1068 920Q1065 942 1061 968.50Q1057 995 1054 1024Q1043 995 1032.50 968.50Q1022 942 1014 920L658 0L364 0L128 1457Z"  horiz-adv-x="1980" vert-adv-y="2000"  />

      
      <glyph glyph-name="uni58" unicode="&#x58;" d="M472 777L156 1457L452 1457Q484 1457 497.50 1448.50Q511 1440 520 1420L712 960Q717 970 723 979Q729 988 736 999L992 1415Q1006 1438 1022.50 1447.50Q1039 1457 1062 1457L1404 1457L919 793L1270 0L978 0Q946 0 928 16Q910 32 902 52L687 587Q683 580 678.50 574Q674 568 670 562L348 52Q329 23 304 11.50Q279 0 250 0L-76 0L472 777Z"  horiz-adv-x="1324" vert-adv-y="2000"  />

      
      <glyph glyph-name="uni59" unicode="&#x59;" d="M799 558L730 0L404 0L473 555L98 1457L388 1457Q430 1457 453.50 1437.50Q477 1418 488 1386L628 945Q642 901 653.50 860Q665 819 673 781Q692 819 715 859.50Q738 900 764 945L1012 1386Q1027 1413 1056 1435Q1085 1457 1126 1457L1396 1457L799 558Z"  horiz-adv-x="1256" vert-adv-y="2000"  />

      
      <glyph glyph-name="uni5a" unicode="&#x5a;" d="M1212 1457L1198 1359Q1195 1339 1185.50 1321Q1176 1303 1164 1286L428 251L1044 251L1012 0L-28 0L-16 96Q-13 116-3.50 134Q6 152 18 169L755 1206L172 1206L204 1457L1212 1457Z"  horiz-adv-x="1120" vert-adv-y="2000"  />

      
      <glyph glyph-name="uni5b" unicode="&#x5b;" d="M-22-320L208 1555L628 1555L614 1441Q610 1412 585.50 1391Q561 1370 528 1370L435 1370L249-134L346-134Q376-134 394.50-152.50Q413-171 413-198Q413-199 412.50-202Q412-205 410.50-216.50Q409-228 406-252.50Q403-277 398-320L-22-320Z"  horiz-adv-x="552" vert-adv-y="2000"  />

      
      <glyph glyph-name="uni5c" unicode="&#x5c;" d="M100 1459L226 1459Q279 1459 314.50 1432Q350 1405 364 1357L688-101L562-101Q515-101 474.50-73.50Q434-46 420 7L100 1459Z"  horiz-adv-x="748" vert-adv-y="2000"  />

      
      <glyph glyph-name="uni5d" unicode="&#x5d;" d="M-30-207Q-25-177-2-155.50Q21-134 54-134L149-134L335 1370L238 1370Q207 1370 188 1388Q169 1406 169 1432Q169 1434 169.50 1436.50Q170 1439 170 1441L186 1555L606 1555L374-320L-46-320L-30-207Z"  horiz-adv-x="552" vert-adv-y="2000"  />

      
      <glyph glyph-name="uni5e" unicode="&#x5e;" d="M1114 768L886 768Q859 768 841 781.50Q823 795 812 816L688 1053Q671 1085 656.50 1114Q642 1143 631 1172Q621 1143 608 1114Q595 1085 578 1053L458 816Q447 796 428.50 782Q410 768 380 768L140 768L526 1457L728 1457L1114 768Z"  horiz-adv-x="1160" vert-adv-y="2000"  />

      
      <glyph glyph-name="uni5f" unicode="&#x5f;" d="M652-114L628-300L-98-300L-74-114L652-114Z"  horiz-adv-x="726" vert-adv-y="2000"  />

      
      <glyph glyph-name="uni60" unicode="&#x60;" d="M278 1471Q322 1471 342.50 1456.50Q363 1442 374 1413L468 1168L298 1168Q265 1168 245.50 1177Q226 1186 208 1208L-2 1471L278 1471Z"  horiz-adv-x="612" vert-adv-y="2000"  />

      
      <glyph glyph-name="uni61" unicode="&#x61;" d="M897 0L731 0Q702 0 682.50 7.50Q663 15 651.50 28Q640 41 635.50 59Q631 77 631 98L631 172Q567 84 489 34Q411-16 317-16Q261-16 209 6.50Q157 29 117 74.50Q77 120 53 190.50Q29 261 29 357Q29 498 80.50 624.50Q132 751 224.50 846Q317 941 444 997Q571 1053 723 1053Q797 1053 873 1043Q949 1033 1023 1007L897 0M441 229Q475 229 507 254.50Q539 280 567.50 324Q596 368 620 427Q644 486 661 553L697 840L679 840Q603 840 540.50 806Q478 772 433 713.50Q388 655 363.50 577.50Q339 500 339 412Q339 362 347 327Q355 292 368.50 270.50Q382 249 400.50 239Q419 229 441 229Z"  horiz-adv-x="1058" vert-adv-y="2000"  />

      
      <glyph glyph-name="uni62" unicode="&#x62;" d="M43 0L225 1497L529 1497L452 874Q521 958 602.50 1005.50Q684 1053 775 1053Q839 1053 892 1030.50Q945 1008 983.50 960Q1022 912 1043.50 837.50Q1065 763 1065 660Q1065 524 1023.50 401.50Q982 279 912 186Q842 93 750.50 38.50Q659-16 559-16Q482-16 423.50 13.50Q365 43 324 91L321 81Q307 39 285 19.50Q263 0 213 0L43 0M651 818Q618 818 582.50 793Q547 768 514 724.50Q481 681 452.50 622.50Q424 564 405 498L375 256Q404 232 440 222Q476 212 509 212Q563 212 608.50 248Q654 284 687 342.50Q720 401 738.50 476Q757 551 757 629Q757 728 728 773Q699 818 651 818Z"  horiz-adv-x="1100" vert-adv-y="2000"  />

      
      <glyph glyph-name="uni63" unicode="&#x63;" d="M855 182Q805 127 759 89Q713 51 664 28Q615 5 559.50-5.50Q504-16 437-16Q346-16 273 15Q200 46 148.50 103Q97 160 69 241Q41 322 41 423Q41 550 82.50 664Q124 778 198.50 864Q273 950 375 1000.50Q477 1051 599 1051Q703 1051 777.50 1015.50Q852 980 911 904L811 789Q800 778 786 769.50Q772 761 755 761Q735 761 721.50 769.50Q708 778 692 787.50Q676 797 653 805.50Q630 814 593 814Q547 814 503.50 787.50Q460 761 426 711Q392 661 371.50 588Q351 515 351 422Q351 370 363 331.50Q375 293 396 267.50Q417 242 445 229Q473 216 505 216Q553 216 582.50 229.50Q612 243 634 259Q656 275 675 288.50Q694 302 721 302Q736 302 750.50 295Q765 288 775 276L855 182L855 182Z"  horiz-adv-x="876" vert-adv-y="2000"  />

      
      <glyph glyph-name="uni64" unicode="&#x64;" d="M765 0Q736 0 716.50 7.50Q697 15 685.50 28Q674 41 669.50 59Q665 77 665 98L665 185Q594 91 508 37.50Q422-16 325-16Q261-16 208 6.50Q155 29 116.50 77Q78 125 56.50 199.50Q35 274 35 378Q35 468 54 553.50Q73 639 107 714Q141 789 188 851.50Q235 914 291.50 958.50Q348 1003 411 1028Q474 1053 541 1053Q605 1053 656.50 1031.50Q708 1010 747 975L813 1497L1117 1497L931 0L765 0M449 220Q481 220 515.50 244Q550 268 582.50 310Q615 352 643 408.50Q671 465 691 530L723 782Q694 805 658.50 815Q623 825 591 825Q537 825 491.50 789Q446 753 413 694.50Q380 636 361.50 561Q343 486 343 408Q343 309 372 264.50Q401 220 449 220Z"  horiz-adv-x="1102" vert-adv-y="2000"  />

      
      <glyph glyph-name="uni65" unicode="&#x65;" d="M951 782Q951 711 923 652Q895 593 825.50 547.50Q756 502 638.50 470Q521 438 343 420Q345 314 389.50 265Q434 216 521 216Q562 216 592 223Q622 230 644.50 241Q667 252 685 264Q703 276 719.50 287Q736 298 754 305Q772 312 795 312Q810 312 824 304.50Q838 297 849 285L929 192Q874 138 821.50 98.50Q769 59 713.50 33.50Q658 8 595.50-4Q533-16 459-16Q367-16 290 15.50Q213 47 157.50 104.50Q102 162 71.50 243Q41 324 41 423Q41 506 59.50 585Q78 664 112.50 733.50Q147 803 197 861.50Q247 920 309.50 962Q372 1004 446.50 1027.50Q521 1051 605 1051Q688 1051 752.50 1027Q817 1003 861 964.50Q905 926 928 878Q951 830 951 782M587 842Q510 842 452 780.50Q394 719 365 612Q462 627 522 643.50Q582 660 615 679.50Q648 699 659.50 721.50Q671 744 671 770Q671 796 651 819Q631 842 587 842Z"  horiz-adv-x="968" vert-adv-y="2000"  />

      
      <glyph glyph-name="uni66" unicode="&#x66;" d="M484 823L391 50L337-124Q319-182 282-214Q245-246 177-246L51-246L180 824L119 838Q93 844 75.50 859.50Q58 875 58 902Q58 909 59 913L75 1035L206 1035L213 1094Q224 1183 262 1255Q300 1327 359 1378Q418 1429 495.50 1457Q573 1485 663 1485Q698 1485 727.50 1480.50Q757 1476 787 1466L759 1310Q754 1284 731 1276Q708 1268 685 1268Q608 1268 562.50 1227Q517 1186 505 1084L499 1035L709 1035L681 823L484 823Z"  horiz-adv-x="664" vert-adv-y="2000"  />

      
      <glyph glyph-name="uni67" unicode="&#x67;" d="M901 727Q901 663 883.50 618Q866 573 845 533Q824 493 806.50 451Q789 409 789 352Q789 311 802.50 276.50Q816 242 832 206Q848 170 861.50 130Q875 90 875 38Q875-42 840-113.50Q805-185 739-238.50Q673-292 576.50-323.50Q480-355 357-355Q256-355 176-334Q96-313 40.50-277Q-15-241-45-191.50Q-75-142-75-85Q-75 3-30.50 61.50Q14 120 84 155.50Q154 191 239 205.50Q324 220 405 220Q451 220 492.50 216Q534 212 569 205Q567 217 567 229.50Q567 242 567 256Q567 309 594 377Q555 351 504.50 336Q454 321 379 321Q320 321 266 340.50Q212 360 170.50 400Q129 440 104 500.50Q79 561 79 644Q79 721 108.50 794.50Q138 868 196.50 925.50Q255 983 341.50 1018Q428 1053 543 1053Q602 1053 656.50 1039.50Q711 1026 757 999L1055 999L1041 902Q1032 841 983 825L895 795Q901 762 901 727M469 501Q506 501 533.50 520Q561 539 579.50 569.50Q598 600 607.50 638Q617 676 617 715Q617 780 590 816Q563 852 507 852Q470 852 442.50 834.50Q415 817 397 788Q379 759 370 721Q361 683 361 642Q361 576 388 538.50Q415 501 469 501M593 14Q593 20 593 26Q593 32 592 37Q541 45 498.50 49Q456 53 421 53Q367 53 328.50 45Q290 37 265.50 23.50Q241 10 230-8.50Q219-27 219-47Q219-98 256.50-124Q294-150 383-150Q429-150 468-138Q507-126 534.50-104.50Q562-83 577.50-53Q593-23 593 14Z"  horiz-adv-x="1008" vert-adv-y="2000"  />

      
      <glyph glyph-name="uni68" unicode="&#x68;" d="M43 0L225 1497L535 1497L462 901Q533 979 612 1016Q691 1053 775 1053Q833 1053 882.50 1032Q932 1011 967 970.50Q1002 930 1022 871Q1042 812 1042 735Q1042 717 1040.50 698Q1039 679 1037 659L959 0L649 0L727 659Q729 675 730 688.50Q731 702 731 714Q731 768 712 789Q693 810 655 810Q624 810 590 791.50Q556 773 524.50 739Q493 705 465.50 657Q438 609 420 550L353 0L43 0Z"  horiz-adv-x="1108" vert-adv-y="2000"  />

      
      <glyph glyph-name="uni69" unicode="&#x69;" d="M485 1037L361 0L55 0L179 1037L485 1037M543 1321Q543 1284 527 1251.50Q511 1219 485 1194.50Q459 1170 425.50 1155.50Q392 1141 357 1141Q322 1141 290 1155.50Q258 1170 233.50 1194.50Q209 1219 194 1251.50Q179 1284 179 1321Q179 1358 194 1391Q209 1424 234.50 1449Q260 1474 292 1488.50Q324 1503 359 1503Q395 1503 428 1489Q461 1475 486.50 1450Q512 1425 527.50 1392Q543 1359 543 1321Z"  horiz-adv-x="540" vert-adv-y="2000"  />

      
      <glyph glyph-name="uni6a" unicode="&#x6a;" d="M487 1037L361-2Q352-75 324.50-139.50Q297-204 249.50-252.50Q202-301 134-329Q66-357-23-357Q-67-357-98-352.50Q-129-348-161-339L-131-176Q-127-155-113.50-145Q-100-135-67-135Q-35-135-13.50-129Q8-123 22-108Q36-93 44-67.50Q52-42 57-2L183 1037L487 1037M533 1321Q533 1284 517 1251.50Q501 1219 475 1194.50Q449 1170 415.50 1155.50Q382 1141 347 1141Q312 1141 280 1155.50Q248 1170 223.50 1194.50Q199 1219 184 1251.50Q169 1284 169 1321Q169 1358 184 1391Q199 1424 224.50 1449Q250 1474 282 1488.50Q314 1503 349 1503Q385 1503 418 1489Q451 1475 476.50 1450Q502 1425 517.50 1392Q533 1359 533 1321Z"  horiz-adv-x="534" vert-adv-y="2000"  />

      
      <glyph glyph-name="uni6b" unicode="&#x6b;" d="M537 1497L434 658L455 658Q481 658 497 666Q513 674 529 695L743 987Q762 1013 785 1025Q808 1037 841 1037L1119 1037L829 668Q809 642 785 622Q761 602 735 587Q756 570 771.50 547.50Q787 525 799 496L1007 0L737 0Q704 0 682.50 11.50Q661 23 649 52L505 419Q494 444 481.50 451.50Q469 459 441 459L409 459L353 0L47 0L231 1497L537 1497Z"  horiz-adv-x="1074" vert-adv-y="2000"  />

      
      <glyph glyph-name="uni6c" unicode="&#x6c;" d="M43 0L225 1497L531 1497L349 0L43 0Z"  horiz-adv-x="520" vert-adv-y="2000"  />

      
      <glyph glyph-name="uni6d" unicode="&#x6d;" d="M35 0L161 1037L321 1037Q369 1037 396 1014.50Q423 992 423 941L423 880Q489 968 562 1010.50Q635 1053 715 1053Q803 1053 861 996Q919 939 935 830Q1004 945 1086 999Q1168 1053 1271 1053Q1329 1053 1376.50 1032.50Q1424 1012 1457.50 972Q1491 932 1509.50 874Q1528 816 1528 740Q1528 721 1526.50 700.50Q1525 680 1523 659L1445 0L1139 0L1217 659Q1219 676 1220 690Q1221 704 1221 717Q1221 768 1205 788Q1189 808 1157 808Q1126 808 1097.50 791.50Q1069 775 1043.50 743.50Q1018 712 997 667.50Q976 623 960 568L893 0L587 0L665 659Q667 676 668 690Q669 704 669 717Q669 768 653 788Q637 808 605 808Q574 808 545 791Q516 774 490.50 742Q465 710 444 664.50Q423 619 407 563L339 0L35 0Z"  horiz-adv-x="1594" vert-adv-y="2000"  />

      
      <glyph glyph-name="uni6e" unicode="&#x6e;" d="M641 0L719 659Q721 675 722 688.50Q723 702 723 714Q723 767 704.50 787.50Q686 808 649 808Q615 808 578 787Q541 766 507.50 728Q474 690 446 635.50Q418 581 402 515L345 0L35 0L159 1037L319 1037Q367 1037 394 1014.50Q421 992 421 941L421 858Q496 958 585 1005.50Q674 1053 769 1053Q827 1053 875.50 1032Q924 1011 959 970.50Q994 930 1014 871Q1034 812 1034 735Q1034 717 1032.50 698Q1031 679 1029 659L951 0L641 0Z"  horiz-adv-x="1100" vert-adv-y="2000"  />

      
      <glyph glyph-name="uni6f" unicode="&#x6f;" d="M471 214Q523 214 564 245.50Q605 277 633.50 331.50Q662 386 677.50 458.50Q693 531 693 613Q693 726 662.50 774.50Q632 823 563 823Q511 823 470 791.50Q429 760 400.50 706Q372 652 356.50 579Q341 506 341 424Q341 313 371.50 263.50Q402 214 471 214M443-16Q356-16 280.50 13Q205 42 149.50 97.50Q94 153 62.50 234.50Q31 316 31 422Q31 560 76.50 675.50Q122 791 199 875Q276 959 377.50 1006Q479 1053 591 1053Q678 1053 753 1024Q828 995 883.50 939.50Q939 884 971 802.50Q1003 721 1003 615Q1003 479 957.50 363.50Q912 248 835 163.50Q758 79 656.50 31.50Q555-16 443-16Z"  horiz-adv-x="1034" vert-adv-y="2000"  />

      
      <glyph glyph-name="uni70" unicode="&#x70;" d="M-5-329L161 1037L321 1037Q369 1037 396 1014.50Q423 992 423 941L423 847Q494 943 581 998Q668 1053 767 1053Q831 1053 884 1030.50Q937 1008 975.50 960Q1014 912 1035.50 837.50Q1057 763 1057 660Q1057 524 1015.50 401.50Q974 279 904 186Q834 93 742.50 38.50Q651-16 551-16Q486-16 435 5Q384 26 345 61L297-329L-5-329M643 818Q611 818 576 793.50Q541 769 508.50 726.50Q476 684 447.50 627Q419 570 400 505L369 255Q398 232 433.50 222Q469 212 501 212Q555 212 600.50 248Q646 284 679 342.50Q712 401 730.50 476Q749 551 749 629Q749 728 720 773Q691 818 643 818Z"  horiz-adv-x="1082" vert-adv-y="2000"  />

      
      <glyph glyph-name="uni71" unicode="&#x71;" d="M855-329L651-329Q625-329 608-320.50Q591-312 580-299Q569-286 564.50-270Q560-254 560-238Q560-228 561-223L608 142Q547 67 474.50 25.50Q402-16 317-16Q261-16 209 6.50Q157 29 117 74.50Q77 120 53 190.50Q29 261 29 357Q29 498 80.50 624.50Q132 751 224.50 846Q317 941 444 997Q571 1053 723 1053Q797 1053 873 1043Q949 1033 1023 1007L855-329M441 229Q474 229 506 254.50Q538 280 566.50 323.50Q595 367 619 425.50Q643 484 660 550L697 840L679 840Q603 840 540.50 806Q478 772 433 713.50Q388 655 363.50 577.50Q339 500 339 412Q339 362 347 327Q355 292 368.50 270.50Q382 249 400.50 239Q419 229 441 229Z"  horiz-adv-x="1058" vert-adv-y="2000"  />

      
      <glyph glyph-name="uni72" unicode="&#x72;" d="M35 0L161 1037L321 1037Q369 1037 396 1014.50Q423 992 423 941L423 823Q483 929 553 986Q623 1043 698 1043Q740 1043 781 1024L725 737Q674 759 628 759Q551 759 491.50 689.50Q432 620 395 466L339 0L35 0Z"  horiz-adv-x="750" vert-adv-y="2000"  />

      
      <glyph glyph-name="uni73" unicode="&#x73;" d="M743 819Q729 801 717 793Q705 785 685 785Q665 785 645.50 794Q626 803 603.50 814.50Q581 826 552.50 835Q524 844 487 844Q418 844 388.50 817.50Q359 791 359 749Q359 722 375.50 703Q392 684 419 669Q446 654 480.50 641.50Q515 629 551 613.50Q587 598 621.50 578Q656 558 683 529Q710 500 726.50 460Q743 420 743 365Q743 287 712 217.50Q681 148 623 96.50Q565 45 482.50 14.50Q400-16 297-16Q248-16 200-6Q152 4 109.50 21Q67 38 32 61.50Q-3 85-25 112L51 226Q65 246 83.50 257.50Q102 269 129 269Q154 269 172 257Q190 245 211 231Q232 217 261 205Q290 193 337 193Q403 193 435 222.50Q467 252 467 292Q467 323 450.50 343Q434 363 407 377.50Q380 392 346 403.50Q312 415 276 429Q240 443 206 461.50Q172 480 145 508Q118 536 101.50 577Q85 618 85 676Q85 748 111.50 816Q138 884 190.50 936.50Q243 989 321 1021Q399 1053 503 1053Q607 1053 688.50 1017Q770 981 823 929L743 819Z"  horiz-adv-x="790" vert-adv-y="2000"  />

      
      <glyph glyph-name="uni74" unicode="&#x74;" d="M135 224Q135 231 135 241Q135 251 136.50 269.50Q138 288 141.50 318.50Q145 349 151 399L204 823L121 823Q102 823 89 835.50Q76 848 76 873Q76 874 78 890.50Q80 907 82 925.50Q84 944 86 960Q88 976 88 978L91 1005L248 1037L335 1290Q350 1338 403 1338L571 1338L533 1035L765 1035L739 823L507 823L457 416Q452 375 449.50 351.50Q447 328 445.50 315.50Q444 303 443.50 298.50Q443 294 443 293Q443 264 456.50 244.50Q470 225 499 225Q515 225 525.50 228.50Q536 232 544 236.50Q552 241 559 244.50Q566 248 575 248Q589 248 596 241.50Q603 235 609 221L677 74Q615 29 544 6.50Q473-16 401-16Q341-16 293 0.50Q245 17 210.50 48.50Q176 80 156.50 124Q137 168 135 224Z"  horiz-adv-x="730" vert-adv-y="2000"  />

      
      <glyph glyph-name="uni75" unicode="&#x75;" d="M459 1037L381 379Q379 363 378 349.50Q377 336 377 324Q377 271 395.50 250Q414 229 451 229Q482 229 516.50 247.50Q551 266 583 299.50Q615 333 642.50 381Q670 429 688 488L755 1037L1065 1037L939 0L781 0Q671 0 671 102L671 168Q596 74 510 29Q424-16 331-16Q273-16 224.50 5Q176 26 140.50 66.50Q105 107 85.50 166.50Q66 226 66 303Q66 321 67.50 340Q69 359 71 379L149 1037L459 1037Z"  horiz-adv-x="1098" vert-adv-y="2000"  />

      
      <glyph glyph-name="uni76" unicode="&#x76;" d="M63 1037L319 1037Q351 1037 370 1021.50Q389 1006 393 983L461 518Q470 459 476 402.50Q482 346 486 289Q504 345 525.50 401Q547 457 571 518L753 983Q762 1007 785 1022Q808 1037 835 1037L1081 1037L577 0L315 0L63 1037Z"  horiz-adv-x="1032" vert-adv-y="2000"  />

      
      <glyph glyph-name="uni77" unicode="&#x77;" d="M73 1037L311 1037Q341 1037 362 1022Q383 1007 385 983L415 518Q415 514 415.50 510.50Q416 507 416 503Q419 455 421 410Q423 365 424 320Q442 368 462.50 417Q483 466 503 518L677 984Q685 1007 708.50 1022.50Q732 1038 759 1038L893 1038Q925 1038 944.50 1022.50Q964 1007 967 984L1027 518Q1034 467 1040.50 418Q1047 369 1052 321Q1066 369 1082 417Q1098 465 1115 518L1261 983Q1269 1006 1291.50 1021.50Q1314 1037 1341 1037L1569 1037L1147 0L905 0Q887 0 875.50 12Q864 24 859 52L783 569Q780 591 777.50 612.50Q775 634 773 656Q765 633 756 611Q747 589 739 567L541 52Q520 0 475 0L243 0L73 1037Z"  horiz-adv-x="1510" vert-adv-y="2000"  />

      
      <glyph glyph-name="uni78" unicode="&#x78;" d="M346 562L113 1037L397 1037Q427 1037 440.50 1029Q454 1021 463 1001L578 734Q585 747 593 759Q601 771 609 784L745 995Q771 1037 811 1037L1093 1037L733 563L991 0L707 0Q677 0 659.50 16Q642 32 633 54L504 371Q499 360 493 350Q487 340 481 332L297 54Q283 33 263.50 16.50Q244 0 215 0L-59 0L346 562Z"  horiz-adv-x="1070" vert-adv-y="2000"  />

      
      <glyph glyph-name="uni79" unicode="&#x79;" d="M421-270Q405-301 381.50-315Q358-329 325-329L93-329L330 93L73 1037L335 1037Q368 1037 384.50 1021Q401 1005 407 983L497 536Q503 507 508 478.50Q513 450 516 421Q528 450 542 479.50Q556 509 569 538L761 983Q773 1006 796 1021.50Q819 1037 843 1037L1093 1037L421-270Z"  horiz-adv-x="1032" vert-adv-y="2000"  />

      
      <glyph glyph-name="uni7a" unicode="&#x7a;" d="M889 913Q885 881 870.50 852Q856 823 839 802L391 230L799 230L771 0L-5 0L11 126Q13 145 27 173.50Q41 202 61 228L513 807L119 807L147 1037L905 1037L889 913Z"  horiz-adv-x="892" vert-adv-y="2000"  />

      
      <glyph glyph-name="uni7b" unicode="&#x7b;" d="M96 432Q96 477 77.50 505.50Q59 534 14 534L36 701Q73 701 96 717Q119 733 132 764.50Q145 796 149.50 844Q154 892 154 956Q154 967 153.50 984Q153 1001 153 1019.50Q153 1038 152.50 1055Q152 1072 152 1084Q152 1198 177 1285.50Q202 1373 254.50 1433Q307 1493 389 1524Q471 1555 584 1555L630 1555L614 1425Q612 1410 604.50 1400Q597 1390 587 1383Q577 1376 566.50 1373Q556 1370 548 1370Q491 1370 461 1329Q431 1288 422 1216Q415 1161 413 1112.50Q411 1064 409.50 1018.50Q408 973 406.50 929.50Q405 886 400 841Q395 803 381 767.50Q367 732 344.50 702Q322 672 291.50 650Q261 628 222 616Q285 594 315.50 542Q346 490 346 427Q346 370 334.50 315.50Q323 261 309 207Q295 153 283.50 98Q272 43 272-16Q272-70 294-102Q316-134 364-134Q380-134 398-146.50Q416-159 416-185Q416-192 414-211Q412-230 409-251.50Q406-273 403.50-292.50Q401-312 400-320L352-320Q263-320 198.50-298.50Q134-277 92.50-237.50Q51-198 31.50-143Q12-88 12-22Q12 42 25 100.50Q38 159 54 214Q70 269 83 323Q96 377 96 432Z"  horiz-adv-x="552" vert-adv-y="2000"  />

      
      <glyph glyph-name="uni7c" unicode="&#x7c;" d="M120 1557L360 1557L360-329L120-329L120 1557Z"  horiz-adv-x="600" vert-adv-y="2000"  />

      
      <glyph glyph-name="uni7d" unicode="&#x7d;" d="M430 151Q430 37 405-50.50Q380-138 327.50-198Q275-258 193.50-289Q112-320 0-320L-48-320L-30-192Q-25-162-2-148Q21-134 38-134Q94-133 123.50-92.50Q153-52 162 19Q169 73 171.50 121.50Q174 170 175 215.50Q176 261 177.50 304.50Q179 348 184 392Q188 430 202 465.50Q216 501 238.50 531Q261 561 291.50 583Q322 605 360 617Q297 639 266.50 691.50Q236 744 236 809Q236 865 248 919Q260 973 274 1027Q288 1081 300 1136.50Q312 1192 312 1251Q312 1304 290.50 1336.50Q269 1369 222 1370Q214 1370 204.50 1372.50Q195 1375 187 1381Q179 1387 173.50 1396Q168 1405 168 1418Q168 1419 170 1435Q172 1451 174 1470.50Q176 1490 178 1506.50Q180 1523 180 1524L184 1555L232 1555Q320 1555 384 1533.50Q448 1512 489.50 1472.50Q531 1433 550.50 1377.50Q570 1322 570 1255Q570 1192 557 1133.50Q544 1075 529 1020Q514 965 501 911Q488 857 488 803Q488 758 505.50 729.50Q523 701 568 701L548 534Q511 534 488 518.50Q465 503 452 471Q439 439 434.50 391Q430 343 430 278L430 151Z"  horiz-adv-x="552" vert-adv-y="2000"  />

      
      <glyph glyph-name="uni7e" unicode="&#x7e;" d="M670 677Q718 677 744 708Q770 739 770 799L1020 799Q1020 714 997.50 646Q975 578 933 530.50Q891 483 829.50 457.50Q768 432 690 432Q637 432 590.50 443.50Q544 455 504 469.50Q464 484 430.50 495.50Q397 507 370 507Q322 507 296 476Q270 445 270 385L20 385Q20 470 42.50 538Q65 606 107 653.50Q149 701 210.50 726.50Q272 752 350 752Q403 752 449.50 740.50Q496 729 536 714.50Q576 700 609.50 688.50Q643 677 670 677Z"  horiz-adv-x="1160" vert-adv-y="2000"  />

      
      <glyph glyph-name="unia1" unicode="&#xa1;" d="M110-331L176 198Q187 290 209 380.50Q231 471 260 565L464 565Q466 527 467.50 490.50Q469 454 469 417Q469 362 466 307.50Q463 253 456 198L392-331L110-331M222 882Q222 918 235.50 949Q249 980 272.50 1003Q296 1026 328 1039.50Q360 1053 398 1053Q435 1053 467 1039.50Q499 1026 523 1003Q547 980 560.50 949Q574 918 574 882Q574 846 560.50 814.50Q547 783 523 760Q499 737 467 724Q435 711 398 711Q360 711 328 724Q296 737 272.50 760Q249 783 235.50 814.50Q222 846 222 882Z"  horiz-adv-x="698" vert-adv-y="2000"  />

      
      <glyph glyph-name="unia2" unicode="&#xa2;" d="M461-7Q384 8 320 45.50Q256 83 209 140.50Q162 198 136 275Q110 352 110 446Q110 569 149.50 676Q189 783 264 863.50Q339 944 447.50 993Q556 1042 694 1048L726 1192Q729 1205 737 1217.50Q745 1230 756.50 1240Q768 1250 782.50 1256.50Q797 1263 814 1263L924 1263L873 1034Q948 1018 1007 984.50Q1066 951 1114 900L1024 798Q1010 781 996.50 773.50Q983 766 960 766Q945 766 931.50 771Q918 776 902 784Q886 792 867.50 800.50Q849 809 825 817L690 204Q736 210 768 223Q800 236 824.50 249.50Q849 263 869 273.50Q889 284 912 284Q950 284 964 261L1034 158Q990 115 942 84.50Q894 54 844 34Q794 14 743 3Q692-8 642-12L614-141Q608-169 583.50-191Q559-213 526-213L416-213L461-7M404 460Q404 375 431.50 316Q459 257 513 228L645 827Q582 816 536 786Q490 756 461 708.50Q432 661 418 598Q404 535 404 460Z"  horiz-adv-x="1160" vert-adv-y="2000"  />

      
      <glyph glyph-name="unia3" unicode="&#xa3;" d="M929 662Q927 649 919.50 636Q912 623 900 613Q888 603 872.50 597Q857 591 839 591L497 591L478 426Q470 363 449 313.50Q428 264 390 221Q439 232 487.50 238.50Q536 245 584 245L1102 245L1086 125Q1083 103 1071 81Q1059 59 1040.50 41Q1022 23 997 11.50Q972 0 944 0L-12 0L12 180Q80 194 115.50 232.50Q151 271 160 346L190 591L44 591L59 708Q61 721 68.50 733.50Q76 746 88 756Q100 766 115.50 772.50Q131 779 149 779L213 779L240 1000Q252 1095 294.50 1180.50Q337 1266 407.50 1330.50Q478 1395 575 1433Q672 1471 792 1471Q880 1471 946 1451Q1012 1431 1061 1396Q1110 1361 1143 1311.50Q1176 1262 1198 1204L1068 1127Q1051 1116 1033 1112.50Q1015 1109 998 1109Q952 1109 922 1145Q904 1167 888.50 1183Q873 1199 855.50 1209Q838 1219 815.50 1223.50Q793 1228 762 1228Q676 1228 617.50 1169.50Q559 1111 546 1002L519 779L943 779L929 662L929 662Z"  horiz-adv-x="1160" vert-adv-y="2000"  />

      
      <glyph glyph-name="unia4" unicode="&#xa4;" d="M238 674Q238 723 249.50 768Q261 813 282 853L128 1006L284 1154L434 1006Q475 1028 521 1040Q567 1052 618 1052Q666 1052 710.50 1040.50Q755 1029 795 1008L948 1160L1102 1010L949 859Q972 818 985 771.50Q998 725 998 674Q998 625 986.50 580Q975 535 953 495L1108 343L952 194L801 342Q760 320 714 308Q668 296 618 296Q570 296 525.50 307Q481 318 441 338L288 188L134 338L286 488Q263 529 250.50 576Q238 623 238 674M466 674Q466 642 478 613Q490 584 510.50 562Q531 540 558.50 527.50Q586 515 618 515Q650 515 678 527.50Q706 540 727 562Q748 584 760 613Q772 642 772 674Q772 708 760 737Q748 766 727 788Q706 810 678 822.50Q650 835 618 835Q586 835 558.50 822.50Q531 810 510.50 788Q490 766 478 737Q466 708 466 674Z"  horiz-adv-x="1160" vert-adv-y="2000"  />

      
      <glyph glyph-name="unia5" unicode="&#xa5;" d="M142 637L395 637L104 1455L354 1455Q395 1455 419 1435.50Q443 1416 452 1384L576 945Q590 894 600 851Q610 808 615 766Q629 808 649.50 851Q670 894 696 945L922 1384Q936 1412 965.50 1433.50Q995 1455 1036 1455L1288 1455L793 637L1048 637L1028 477L725 477L714 389L1016 389L996 230L694 230L666 0L368 0L396 230L90 230L112 389L415 389L426 477L122 477L142 637Z"  horiz-adv-x="1160" vert-adv-y="2000"  />

      
      <glyph glyph-name="unia6" unicode="&#xa6;" d="M120 1557L360 1557L360 738L120 738L120 1557M120 490L360 490L360-329L120-329L120 490Z"  horiz-adv-x="600" vert-adv-y="2000"  />

      
      <glyph glyph-name="unia7" unicode="&#xa7;" d="M860 1232Q846 1213 832 1205Q818 1197 798 1197Q777 1197 757.50 1206.50Q738 1216 715.50 1228Q693 1240 666 1249.50Q639 1259 602 1259Q567 1259 541.50 1250.50Q516 1242 499.50 1227Q483 1212 474.50 1192Q466 1172 466 1150Q466 1116 498.50 1091Q531 1066 580 1041.50Q629 1017 686 990Q743 963 792 926.50Q841 890 873.50 840Q906 790 906 719Q906 631 864 556.50Q822 482 727 435Q757 403 775.50 361.50Q794 320 794 266Q794 184 764 114Q734 44 676.50-7.50Q619-59 535-88Q451-117 342-117Q293-117 244.50-107.50Q196-98 152.50-81Q109-64 72.50-41Q36-18 12 9L96 120Q110 140 128.50 150Q147 160 176 160Q201 160 219.50 148Q238 136 260 122Q282 108 313 96Q344 84 394 84Q456 84 491 113.50Q526 143 526 197Q526 241 493.50 270Q461 299 412 322Q363 345 306 368.50Q249 392 200 426.50Q151 461 118.50 512Q86 563 86 641Q86 732 131 803.50Q176 875 267 917Q236 952 217 997Q198 1042 198 1104Q198 1177 225 1243Q252 1309 306 1359.50Q360 1410 439.50 1439.50Q519 1469 624 1469Q676 1469 723.50 1459Q771 1449 811.50 1431.50Q852 1414 884.50 1389.50Q917 1365 940 1337L860 1232M358 714Q358 682 377.50 657.50Q397 633 429 612.50Q461 592 501 573Q541 554 583 533Q612 553 624 579Q636 605 636 635Q636 668 617 692.50Q598 717 566.50 737Q535 757 495 775.50Q455 794 413 815Q383 795 370.50 770.50Q358 746 358 714Z"  horiz-adv-x="934" vert-adv-y="2000"  />

      
      <glyph glyph-name="unia8" unicode="&#xa8;" d="M376 1317Q376 1285 363 1257Q350 1229 327.50 1208.50Q305 1188 275.50 1176Q246 1164 212 1164Q180 1164 151.50 1176Q123 1188 101.50 1208.50Q80 1229 67 1257Q54 1285 54 1317Q54 1350 67 1379Q80 1408 101.50 1429.50Q123 1451 151.50 1463.50Q180 1476 212 1476Q246 1476 275.50 1463.50Q305 1451 327.50 1429.50Q350 1408 363 1379Q376 1350 376 1317M762 1317Q762 1285 749.50 1257Q737 1229 715 1208.50Q693 1188 663.50 1176Q634 1164 600 1164Q567 1164 538 1176Q509 1188 487 1208.50Q465 1229 452.50 1257Q440 1285 440 1317Q440 1350 452.50 1379Q465 1408 487 1429.50Q509 1451 538 1463.50Q567 1476 600 1476Q634 1476 663.50 1463.50Q693 1451 715 1429.50Q737 1408 749.50 1379Q762 1350 762 1317Z"  horiz-adv-x="612" vert-adv-y="2000"  />

      
      <glyph glyph-name="unia9" unicode="&#xa9;" d="M1014 542Q1026 542 1037 536Q1048 530 1056 521L1158 416Q1104 341 1016.50 302.50Q929 264 814 264Q713 264 631.50 300.50Q550 337 493 400.50Q436 464 405 549Q374 634 374 732Q374 834 410 919.50Q446 1005 508.50 1067.50Q571 1130 655 1164.50Q739 1199 836 1199Q951 1199 1034 1159Q1117 1119 1168 1059L1086 950Q1079 941 1066.50 931Q1054 921 1034 921Q1014 921 999.50 930Q985 939 967 950Q949 961 922.50 970Q896 979 852 979Q751 979 699.50 912.50Q648 846 648 732Q648 672 661.50 626Q675 580 699 549Q723 518 756.50 502Q790 486 830 486Q877 486 904.50 494.50Q932 503 950 513Q968 523 981 532Q994 541 1014 542M70 729Q70 832 96.50 927Q123 1022 171.50 1104.50Q220 1187 288 1255Q356 1323 439 1371.50Q522 1420 616.50 1446.50Q711 1473 814 1473Q917 1473 1012.50 1446.50Q1108 1420 1190.50 1371.50Q1273 1323 1341.50 1255Q1410 1187 1458.50 1104.50Q1507 1022 1533.50 927Q1560 832 1560 729Q1560 627 1533.50 532Q1507 437 1458.50 354.50Q1410 272 1341.50 204Q1273 136 1190.50 87.50Q1108 39 1012.50 12.50Q917-14 814-14Q711-14 616.50 12.50Q522 39 439 87.50Q356 136 288 204Q220 272 171.50 354.50Q123 437 96.50 531.50Q70 626 70 729M236 729Q236 602 280.50 492Q325 382 403 300.50Q481 219 586.50 172.50Q692 126 814 126Q937 126 1043.50 172.50Q1150 219 1229 300.50Q1308 382 1353 492Q1398 602 1398 729Q1398 814 1377.50 892Q1357 970 1319.50 1037.50Q1282 1105 1229 1160.50Q1176 1216 1111 1255Q1046 1294 971 1315.50Q896 1337 814 1337Q692 1337 586.50 1290Q481 1243 403 1160.50Q325 1078 280.50 967Q236 856 236 729Z"  horiz-adv-x="1570" vert-adv-y="2000"  />

      
      <glyph glyph-name="uniaa" unicode="&#xaa;" d="M542 842Q513 842 498.50 849.50Q484 857 476 882L468 909Q445 890 424 876Q403 862 381.50 852.50Q360 843 336.50 838.50Q313 834 284 834Q207 834 165.50 873Q124 912 124 982Q124 1018 138.50 1057Q153 1096 192 1129Q231 1162 300.50 1185Q370 1208 480 1211L482 1229Q482 1244 481 1259Q480 1274 475 1285.50Q470 1297 459.50 1304.50Q449 1312 430 1312Q403 1312 385.50 1305.50Q368 1299 353 1291.50Q338 1284 322.50 1278Q307 1272 284 1272Q261 1272 248 1283.50Q235 1295 228 1310L198 1377Q260 1430 330.50 1453.50Q401 1477 478 1477Q526 1477 565 1460Q604 1443 632 1413Q660 1383 675.50 1342.50Q691 1302 691 1256Q691 1249 691 1242.50Q691 1236 690 1229L642 842L542 842M372 974Q395 974 414.50 983Q434 992 457 1014L465 1085Q423 1083 397 1076.50Q371 1070 356 1059.50Q341 1049 335.50 1035.50Q330 1022 330 1007Q330 989 339.50 981.50Q349 974 372 974Z"  horiz-adv-x="652" vert-adv-y="2000"  />

      
      <glyph glyph-name="uniab" unicode="&#xab;" d="M111 525L117 562L409 962L501 918Q539 900 539 866Q539 852 533 838Q527 824 517 808L385 589Q376 574 365.50 562.50Q355 551 344 543Q352 534 360 523Q368 512 373 498L453 279Q457 268 459.50 258Q462 248 462 238Q462 191 409 167L305 123L111 525M449 525L455 562L747 962L839 918Q877 900 877 866Q877 852 871 838Q865 824 855 808L723 589Q714 574 703.50 562.50Q693 551 682 543Q690 534 698 523Q706 512 711 498L791 279Q795 268 797.50 258Q800 248 800 238Q800 191 747 167L643 123L449 525Z"  horiz-adv-x="964" vert-adv-y="2000"  />

      
      <glyph glyph-name="uniac" unicode="&#xac;" d="M162 779L1068 779L1006 286L754 286L789 565L136 565L162 779Z"  horiz-adv-x="1160" vert-adv-y="2000"  />

      
      <glyph glyph-name="uniad" unicode="&#xad;" d="M122 728L624 728L592 486L92 486L122 728Z"  horiz-adv-x="686" vert-adv-y="2000"  />

      
      <glyph glyph-name="uniae" unicode="&#xae;" d="M64 729Q64 832 90.50 927Q117 1022 165.50 1104.50Q214 1187 282 1255Q350 1323 433 1371.50Q516 1420 610.50 1446.50Q705 1473 808 1473Q911 1473 1006.50 1446.50Q1102 1420 1184.50 1371.50Q1267 1323 1335.50 1255Q1404 1187 1452.50 1104.50Q1501 1022 1527.50 927Q1554 832 1554 729Q1554 627 1527.50 532Q1501 437 1452.50 354.50Q1404 272 1335.50 204Q1267 136 1184.50 87.50Q1102 39 1006.50 12.50Q911-14 808-14Q705-14 610.50 12.50Q516 39 433 87.50Q350 136 282 204Q214 272 165.50 354.50Q117 437 90.50 531.50Q64 626 64 729M230 729Q230 602 274.50 492Q319 382 397 300.50Q475 219 580.50 172.50Q686 126 808 126Q923 126 1023.50 167Q1124 208 1202 281L986 281Q931 281 910 320L818 551Q810 569 796 576Q782 583 758 583L726 583L726 281L458 281L458 1182L810 1182Q910 1182 982.50 1164Q1055 1146 1101.50 1112Q1148 1078 1170 1028Q1192 978 1192 914Q1192 872 1182 833.50Q1172 795 1151.50 762.50Q1131 730 1098.50 704Q1066 678 1021 661Q1050 646 1070 622.50Q1090 599 1106 566L1230 309Q1306 390 1349 497Q1392 604 1392 729Q1392 814 1371.50 892Q1351 970 1313.50 1037.50Q1276 1105 1223 1160.50Q1170 1216 1105 1255Q1040 1294 965 1315.50Q890 1337 808 1337Q686 1337 580.50 1290Q475 1243 397 1160.50Q319 1078 274.50 967Q230 856 230 729M726 767L790 767Q838 767 865.50 774.50Q893 782 907 796Q921 810 924.50 831.50Q928 853 928 880Q928 906 924.50 925.50Q921 945 909 958.50Q897 972 873.50 979Q850 986 810 986L726 986L726 767Z"  horiz-adv-x="1570" vert-adv-y="2000"  />

      
      <glyph glyph-name="uniaf" unicode="&#xaf;" d="M132 1387L706 1387L682 1203L108 1203L132 1387Z"  horiz-adv-x="612" vert-adv-y="2000"  />

      
      <glyph glyph-name="unib0" unicode="&#xb0;" d="M112 1119Q112 1193 140 1258Q168 1323 217 1371Q266 1419 332.50 1447Q399 1475 476 1475Q553 1475 620 1447Q687 1419 736.50 1371Q786 1323 814 1258Q842 1193 842 1119Q842 1047 814 982.50Q786 918 736.50 870Q687 822 620 793.50Q553 765 476 765Q399 765 332.50 793.50Q266 822 217 870Q168 918 140 982.50Q112 1047 112 1119M326 1117Q326 1084 337 1055.50Q348 1027 368 1005.50Q388 984 415.50 972Q443 960 476 960Q509 960 536.50 972Q564 984 584 1005.50Q604 1027 615 1055.50Q626 1084 626 1117Q626 1151 615 1180.50Q604 1210 584 1231.50Q564 1253 536.50 1265.50Q509 1278 476 1278Q443 1278 415.50 1265.50Q388 1253 368 1231.50Q348 1210 337 1180.50Q326 1151 326 1117Z"  horiz-adv-x="794" vert-adv-y="2000"  />

      
      <glyph glyph-name="unib1" unicode="&#xb1;" d="M796 1266L754 926L1128 926L1100 712L728 712L688 388L446 388L486 712L114 712L140 926L512 926L554 1266L796 1266M62 295L1050 295L1022 80L36 80L62 295Z"  horiz-adv-x="1160" vert-adv-y="2000"  />

      
      <glyph glyph-name="unib2" unicode="&#xb2;" d="M492 1656Q550 1656 593.50 1640Q637 1624 665.50 1597Q694 1570 708 1534Q722 1498 722 1458Q722 1412 707 1374Q692 1336 666.50 1302.50Q641 1269 608 1238Q575 1207 540 1175L419 1065Q453 1075 485.50 1080.50Q518 1086 544 1086L624 1086Q655 1086 670.50 1071.50Q686 1057 686 1032Q686 1027 683.50 1006.50Q681 986 679 962Q675 934 672 900L106 900L116 967Q119 986 129.50 1008Q140 1030 160 1048L384 1245Q409 1267 430.50 1292Q452 1317 468.50 1342Q485 1367 494.50 1391Q504 1415 504 1436Q504 1459 494 1475Q484 1491 460 1491Q437 1491 422.50 1480Q408 1469 392 1445Q378 1424 361 1413Q344 1402 317 1402Q304 1402 288 1405L172 1424Q205 1544 290 1600Q375 1656 492 1656Z"  horiz-adv-x="668" vert-adv-y="2000"  />

      
      <glyph glyph-name="unib3" unicode="&#xb3;" d="M514 1656Q571 1656 613.50 1640Q656 1624 684.50 1598.50Q713 1573 727.50 1540.50Q742 1508 742 1475Q742 1409 716 1365Q690 1321 624 1295Q669 1277 691.50 1246Q714 1215 714 1165Q714 1093 686 1041.50Q658 990 614.50 956.50Q571 923 516.50 907.50Q462 892 410 892Q358 892 316 901Q274 910 241 933Q208 956 184.50 995.50Q161 1035 148 1097L246 1135Q270 1144 293 1144Q315 1144 330.50 1136Q346 1128 352 1112Q361 1087 379 1075Q397 1063 420 1063Q456 1063 478 1085Q500 1107 500 1148Q500 1186 472.50 1198Q445 1210 378 1210L396 1354Q436 1354 462.50 1358Q489 1362 504.50 1371.50Q520 1381 526 1396.50Q532 1412 532 1435Q532 1457 521.50 1472Q511 1487 482 1487Q455 1487 440.50 1477Q426 1467 414 1447Q399 1424 383.50 1413Q368 1402 344 1402Q332 1402 314 1405L206 1424Q222 1484 252.50 1527.50Q283 1571 323.50 1599.50Q364 1628 412.50 1642Q461 1656 514 1656Z"  horiz-adv-x="668" vert-adv-y="2000"  />

      
      <glyph glyph-name="unib4" unicode="&#xb4;" d="M802 1471L528 1208Q504 1185 481.50 1176.50Q459 1168 426 1168L248 1168L402 1413Q420 1441 444.50 1456Q469 1471 514 1471L802 1471Z"  horiz-adv-x="612" vert-adv-y="2000"  />

      
      <glyph glyph-name="unib5" unicode="&#xb5;" d="M456 1035L374 377Q372 366 372 356.50Q372 347 372 338Q372 276 397.50 243Q423 210 474 210Q518 210 559 230.50Q600 251 640 286L734 1035L1032 1035L904 0L718 0Q664 0 652 50L642 111Q613 85 588 67.50Q563 50 538 39.50Q513 29 486.50 24.50Q460 20 430 20Q389 20 355 32Q321 44 294 66Q300 27 300-16Q300-42 298-66.50Q296-91 294-114L268-331L120-331Q63-331 33-304.50Q3-278 3-230Q3-225 3-220.50Q3-216 4-211L158 1035L456 1035Z"  horiz-adv-x="1072" vert-adv-y="2000"  />

      
      <glyph glyph-name="unib6" unicode="&#xb6;" d="M1550 1457L1518 1206L1309 1206L1134-216L864-216L1039 1206L843 1206L668-216L398-216L499 606Q404 606 327 634.50Q250 663 196 713Q142 763 113 831Q84 899 84 979Q84 1075 122 1161.50Q160 1248 228.50 1314Q297 1380 392.50 1418.50Q488 1457 604 1457L1550 1457Z"  horiz-adv-x="1458" vert-adv-y="2000"  />

      
      <glyph glyph-name="unib7" unicode="&#xb7;" d="M78 596Q78 641 95.50 681Q113 721 143.50 750.50Q174 780 214.50 797Q255 814 302 814Q349 814 390.50 797Q432 780 462.50 750.50Q493 721 510.50 681Q528 641 528 596Q528 551 510.50 511.50Q493 472 462.50 442.50Q432 413 390.50 396Q349 379 302 379Q255 379 214.50 396Q174 413 143.50 442.50Q113 472 95.50 511.50Q78 551 78 596Z"  horiz-adv-x="570" vert-adv-y="2000"  />

      
      <glyph glyph-name="unib8" unicode="&#xb8;" d="M96-214Q111-214 122.50-219Q134-224 152-224Q175-224 185.50-212Q196-200 196-186Q196-166 170.50-155.50Q145-145 82-136L142 17L328 17L304-47Q375-68 402.50-102.50Q430-137 430-178Q430-217 409.50-248.50Q389-280 353-302Q317-324 267-335.50Q217-347 158-347Q120-347 88.50-343Q57-339 22-329L62-239Q67-228 74.50-221Q82-214 96-214Z"  horiz-adv-x="612" vert-adv-y="2000"  />

      
      <glyph glyph-name="unib9" unicode="&#xb9;" d="M226 1050L355 1050L390 1342L402 1395L344 1353Q333 1345 322 1342.50Q311 1340 301 1340Q284 1340 271 1347Q258 1354 252 1363L198 1451L462 1648L642 1648L568 1050L654 1050L636 900L206 900L226 1050Z"  horiz-adv-x="668" vert-adv-y="2000"  />

      
      <glyph glyph-name="uniba" unicode="&#xba;" d="M486 1475Q550 1475 602 1455.50Q654 1436 691 1400Q728 1364 748 1313Q768 1262 768 1199Q768 1114 740.50 1045.50Q713 977 664.50 929Q616 881 550 855.50Q484 830 408 830Q343 830 290.50 849.50Q238 869 200.50 905Q163 941 142.50 993Q122 1045 122 1110Q122 1194 150 1262Q178 1330 227.50 1377Q277 1424 343 1449.50Q409 1475 486 1475M430 998Q489 998 512.50 1049.50Q536 1101 536 1199Q536 1306 466 1306Q429 1306 407 1291.50Q385 1277 373 1251Q361 1225 357.50 1188Q354 1151 354 1106Q354 998 430 998Z"  horiz-adv-x="728" vert-adv-y="2000"  />

      
      <glyph glyph-name="unibb" unicode="&#xbb;" d="M532 562L528 525L236 123L144 167Q105 186 105 221Q105 235 110.50 249Q116 263 126 279L260 498Q268 512 278.50 523Q289 534 300 542Q282 560 272 589L190 808Q182 829 182 846Q182 869 195 888Q208 907 236 918L340 962L532 562M870 562L866 525L574 123L482 167Q443 186 443 221Q443 235 448.50 249Q454 263 464 279L598 498Q606 512 616.50 523Q627 534 638 542Q620 560 610 589L528 808Q520 829 520 846Q520 869 533 888Q546 907 574 918L678 962L870 562Z"  horiz-adv-x="964" vert-adv-y="2000"  />

      
      <glyph glyph-name="unibc" unicode="&#xbc;" d="M476 85Q441 35 402.50 17.50Q364 0 316 0L194 0L1145 1357Q1179 1405 1220.50 1430Q1262 1455 1316 1455L1438 1455L476 85M1322 310L1404 310L1390 189Q1387 175 1375.50 163Q1364 151 1346 151L1302 151L1284 0L1106 0L1124 151L848 151Q821 151 806.50 163.50Q792 176 790 195L782 297L1170 748L1376 748L1322 310M186 858L315 858L350 1150L362 1203L304 1161Q284 1147 257 1147Q240 1147 229 1154.50Q218 1162 212 1171L158 1259L422 1456L602 1456L528 858L614 858L596 708L166 708L186 858M1156 413Q1162 467 1179 536L990 310L1143 310L1156 413Z"  horiz-adv-x="1475" vert-adv-y="2000"  />

      
      <glyph glyph-name="unibd" unicode="&#xbd;" d="M448 85Q413 35 374.50 17.50Q336 0 288 0L166 0L1117 1357Q1151 1405 1192.50 1430Q1234 1455 1288 1455L1410 1455L448 85M1172 756Q1230 756 1273.50 740Q1317 724 1345.50 697Q1374 670 1388 634Q1402 598 1402 558Q1402 512 1387 474Q1372 436 1346.50 402.50Q1321 369 1288 338Q1255 307 1220 275L1099 165Q1133 175 1165.50 180.50Q1198 186 1224 186L1304 186Q1335 186 1350.50 171.50Q1366 157 1366 132Q1366 130 1365.50 123Q1365 116 1362 88L1352 0L786 0L796 67Q798 86 809 108Q820 130 840 148L1064 345Q1089 367 1110.50 392Q1132 417 1148.50 442Q1165 467 1174.50 491Q1184 515 1184 536Q1184 559 1174 575Q1164 591 1140 591Q1117 591 1102.50 579.50Q1088 568 1072 545Q1057 524 1041 513Q1025 502 998 502Q991 502 982 503Q973 504 953 507L852 524Q885 644 970 700Q1055 756 1172 756M196 858L325 858L360 1150L372 1203L314 1161Q294 1147 267 1147Q250 1147 239 1154.50Q228 1162 222 1171L168 1259L432 1456L612 1456L538 858L624 858L606 708L176 708L196 858Z"  horiz-adv-x="1475" vert-adv-y="2000"  />

      
      <glyph glyph-name="unibe" unicode="&#xbe;" d="M488 85Q453 35 414.50 17.50Q376 0 328 0L206 0L1157 1357Q1191 1405 1232.50 1430Q1274 1455 1328 1455L1450 1455L488 85M1332 310L1414 310L1400 189Q1397 175 1385.50 163Q1374 151 1356 151L1312 151L1294 0L1116 0L1134 151L858 151Q831 151 816.50 163.50Q802 176 800 195L792 297L1180 748L1386 748L1332 310M486 1464Q543 1464 585.50 1448Q628 1432 656.50 1406.50Q685 1381 699.50 1348.50Q714 1316 714 1283Q714 1217 688 1173Q662 1129 596 1103Q641 1085 663.50 1054Q686 1023 686 973Q686 901 658 849.50Q630 798 586.50 764.50Q543 731 488.50 715.50Q434 700 382 700Q330 700 288 709Q246 718 213 741Q180 764 156.50 803.50Q133 843 120 905L218 943Q242 952 265 952Q287 952 302.50 944Q318 936 324 920Q333 895 351 883Q369 871 392 871Q428 871 450 893Q472 915 472 956Q472 994 444.50 1006Q417 1018 350 1018L368 1162Q408 1162 434.50 1166Q461 1170 476.50 1179.50Q492 1189 498 1204.50Q504 1220 504 1243Q504 1265 493.50 1280Q483 1295 454 1295Q427 1295 412.50 1285Q398 1275 386 1255Q371 1232 355.50 1221Q340 1210 316 1210Q304 1210 286 1213L178 1232Q194 1292 224.50 1335.50Q255 1379 295.50 1407.50Q336 1436 384.50 1450Q433 1464 486 1464M1166 413Q1172 467 1189 536L1000 310L1153 310L1166 413Z"  horiz-adv-x="1475" vert-adv-y="2000"  />

      
      <glyph glyph-name="unibf" unicode="&#xbf;" d="M720-198Q681-228 637.50-255.50Q594-283 545-303Q496-323 441-335Q386-347 324-347Q244-347 180.50-326Q117-305 73.50-266Q30-227 7-171.50Q-16-116-16-47Q-16 32 6 88.50Q28 145 62 186Q96 227 137 256.50Q178 286 215.50 312Q253 338 282.50 364Q312 390 322 424L366 565L570 565L570 403Q570 356 548.50 320Q527 284 495 254Q463 224 426 197.50Q389 171 357 143Q325 115 303.50 82Q282 49 282 6Q282-55 310.50-84Q339-113 380-113Q427-113 460.50-102Q494-91 519-77.50Q544-64 563-52.50Q582-41 600-41Q637-41 656-75L720-198M322 883Q322 919 335.50 950Q349 981 372.50 1004Q396 1027 428 1040.50Q460 1054 498 1054Q535 1054 567 1040.50Q599 1027 623 1004Q647 981 660.50 950Q674 919 674 883Q674 847 660.50 815.50Q647 784 623 761Q599 738 567 725Q535 712 498 712Q460 712 428 725Q396 738 372.50 761Q349 784 335.50 815.50Q322 847 322 883Z"  horiz-adv-x="820" vert-adv-y="2000"  />

      
      <glyph glyph-name="unic0" unicode="&#xc0;" d="M1288 0L1036 0Q994 0 968.50 19.50Q943 39 938 71L893 333L398 333L290 71Q279 43 247 21.50Q215 0 176 0L-80 0L616 1457L950 1457L1288 0M489 555L855 555L784 971Q775 1023 764.50 1076.50Q754 1130 747 1174Q739 1150 726 1119.50Q713 1089 700.50 1060Q688 1031 676.50 1006Q665 981 660 969L489 555M712 1796Q734 1796 749 1794Q764 1792 776 1787.50Q788 1783 798 1774Q808 1765 820 1752L962 1551L706 1551Q673 1551 654.50 1561.50Q636 1572 614 1592L382 1796L712 1796Z"  horiz-adv-x="1326" vert-adv-y="2000"  />

      
      <glyph glyph-name="unic1" unicode="&#xc1;" d="M1288 0L1036 0Q994 0 968.50 19.50Q943 39 938 71L893 333L398 333L290 71Q279 43 247 21.50Q215 0 176 0L-80 0L616 1457L950 1457L1288 0M489 555L855 555L784 971Q775 1023 764.50 1076.50Q754 1130 747 1174Q739 1150 726 1119.50Q713 1089 700.50 1060Q688 1031 676.50 1006Q665 981 660 969L489 555M1274 1796L992 1592Q960 1569 935 1560Q910 1551 879 1551L634 1551L826 1752Q841 1765 853 1774Q865 1783 878.50 1787.50Q892 1792 907.50 1794Q923 1796 946 1796L1274 1796Z"  horiz-adv-x="1326" vert-adv-y="2000"  />

      
      <glyph glyph-name="unic2" unicode="&#xc2;" d="M1288 0L1036 0Q994 0 968.50 19.50Q943 39 938 71L893 333L398 333L290 71Q279 43 247 21.50Q215 0 176 0L-80 0L616 1457L950 1457L1288 0M489 555L855 555L784 971Q775 1023 764.50 1076.50Q754 1130 747 1174Q739 1150 726 1119.50Q713 1089 700.50 1060Q688 1031 676.50 1006Q665 981 660 969L489 555M1166 1551L940 1551Q923 1551 903 1555Q883 1559 872 1569L800 1632L712 1569Q699 1560 678.50 1555.50Q658 1551 640 1551L416 1551L668 1776L968 1776L1166 1551Z"  horiz-adv-x="1326" vert-adv-y="2000"  />

      
      <glyph glyph-name="unic3" unicode="&#xc3;" d="M1288 0L1036 0Q994 0 968.50 19.50Q943 39 938 71L893 333L398 333L290 71Q279 43 247 21.50Q215 0 176 0L-80 0L616 1457L950 1457L1288 0M489 555L855 555L784 971Q775 1023 764.50 1076.50Q754 1130 747 1174Q739 1150 726 1119.50Q713 1089 700.50 1060Q688 1031 676.50 1006Q665 981 660 969L489 555M930 1723Q948 1723 962.50 1735.50Q977 1748 980 1776L1142 1776Q1135 1722 1116 1678Q1097 1634 1067 1602Q1037 1570 998.50 1552.50Q960 1535 914 1535Q880 1535 848.50 1545Q817 1555 789 1566.50Q761 1578 737.50 1588Q714 1598 698 1598Q680 1598 666.50 1584Q653 1570 650 1541L486 1541Q493 1595 512.50 1639.50Q532 1684 562 1716.50Q592 1749 630.50 1766.50Q669 1784 714 1784Q748 1784 780 1774.50Q812 1765 840 1753.50Q868 1742 890.50 1732.50Q913 1723 930 1723Z"  horiz-adv-x="1326" vert-adv-y="2000"  />

      
      <glyph glyph-name="unic4" unicode="&#xc4;" d="M1288 0L1036 0Q994 0 968.50 19.50Q943 39 938 71L893 333L398 333L290 71Q279 43 247 21.50Q215 0 176 0L-80 0L616 1457L950 1457L1288 0M489 555L855 555L784 971Q775 1023 764.50 1076.50Q754 1130 747 1174Q739 1150 726 1119.50Q713 1089 700.50 1060Q688 1031 676.50 1006Q665 981 660 969L489 555M738 1666Q738 1638 727 1614Q716 1590 696.50 1572Q677 1554 651 1544Q625 1534 596 1534Q569 1534 544.50 1544Q520 1554 501 1572Q482 1590 471 1614Q460 1638 460 1666Q460 1694 471 1719.50Q482 1745 501 1763.50Q520 1782 544.50 1793Q569 1804 596 1804Q625 1804 651 1793Q677 1782 696.50 1763.50Q716 1745 727 1719.50Q738 1694 738 1666M1096 1666Q1096 1638 1085 1614Q1074 1590 1055 1572Q1036 1554 1010.50 1544Q985 1534 956 1534Q927 1534 902 1544Q877 1554 858.50 1572Q840 1590 829 1614Q818 1638 818 1666Q818 1694 829 1719.50Q840 1745 858.50 1763.50Q877 1782 902 1793Q927 1804 956 1804Q985 1804 1010.50 1793Q1036 1782 1055 1763.50Q1074 1745 1085 1719.50Q1096 1694 1096 1666Z"  horiz-adv-x="1326" vert-adv-y="2000"  />

      
      <glyph glyph-name="unic5" unicode="&#xc5;" d="M1288 0L1036 0Q994 0 968.50 19.50Q943 39 938 71L893 333L398 333L290 71Q279 43 247 21.50Q215 0 176 0L-80 0L616 1457L950 1457L1288 0M489 555L855 555L784 971Q775 1023 764.50 1076.50Q754 1130 747 1174Q739 1150 726 1119.50Q713 1089 700.50 1060Q688 1031 676.50 1006Q665 981 660 969L489 555M568 1701Q568 1747 586.50 1784.50Q605 1822 635.50 1848.50Q666 1875 706 1889.50Q746 1904 790 1904Q836 1904 877 1889.50Q918 1875 949.50 1848.50Q981 1822 999.50 1784.50Q1018 1747 1018 1701Q1018 1657 999.50 1620.50Q981 1584 949.50 1558Q918 1532 877 1518Q836 1504 790 1504Q746 1504 706 1518Q666 1532 635.50 1558Q605 1584 586.50 1620.50Q568 1657 568 1701M714 1701Q714 1666 733.50 1643.50Q753 1621 794 1621Q830 1621 851 1643.50Q872 1666 872 1701Q872 1739 851 1761Q830 1783 794 1783Q753 1783 733.50 1761Q714 1739 714 1701Z"  horiz-adv-x="1326" vert-adv-y="2000"  />

      
      <glyph glyph-name="unic6" unicode="&#xc6;" d="M716 1457L1772 1457L1740 1206L1142 1206L1142 852L1568 852L1538 610L1142 610L1142 251L1624 251L1592 0L834 0L834 333L405 333L274 71Q260 42 226.50 21Q193 0 152 0L-102 0L716 1457M516 555L834 555L834 1198Q813 1147 792 1102Q771 1057 748 1019L516 555Z"  horiz-adv-x="1716" vert-adv-y="2000"  />

      
      <glyph glyph-name="unic7" unicode="&#xc7;" d="M486-214Q501-214 512.50-219Q524-224 542-224Q565-224 575.50-212Q586-200 586-186Q586-166 560.50-155.50Q535-145 472-136L522-8Q408 9 320 63Q232 117 172 199.50Q112 282 81 389Q50 496 50 619Q50 744 78 856Q106 968 157 1063Q208 1158 279.50 1234Q351 1310 438 1363Q525 1416 625 1444.50Q725 1473 834 1473Q916 1473 983.50 1457.50Q1051 1442 1105.50 1414.50Q1160 1387 1203 1349Q1246 1311 1278 1265L1164 1133Q1152 1119 1136 1108Q1120 1097 1094 1097Q1077 1097 1063 1105Q1049 1113 1034.50 1124.50Q1020 1136 1002 1150Q984 1164 959 1175.50Q934 1187 899.50 1195Q865 1203 818 1203Q726 1203 646.50 1164Q567 1125 508.50 1052.50Q450 980 417 876.50Q384 773 384 645Q384 552 406.50 479Q429 406 468 355.50Q507 305 561 278.50Q615 252 678 252Q733 252 773.50 260.50Q814 269 843 282Q872 295 892 310.50Q912 326 928 339Q944 352 958 360.50Q972 369 988 369Q1004 369 1014.50 363.50Q1025 358 1030 351L1144 214Q1061 116 952 59Q843 2 707-12L694-47Q765-68 792.50-102.50Q820-137 820-178Q820-217 799.50-248.50Q779-280 743-302Q707-324 657-335.50Q607-347 548-347Q510-347 478.50-343Q447-339 412-329L452-239Q457-228 464.50-221Q472-214 486-214Z"  horiz-adv-x="1182" vert-adv-y="2000"  />

      
      <glyph glyph-name="unic8" unicode="&#xc8;" d="M1060 1206L521 1206L477 854L890 854L858 612L447 612L403 251L946 251L914 0L44 0L224 1457L1092 1457L1060 1206M590 1796Q612 1796 627 1794Q642 1792 654 1787.50Q666 1783 676 1774Q686 1765 698 1752L840 1551L584 1551Q551 1551 532.50 1561.50Q514 1572 492 1592L260 1796L590 1796Z"  horiz-adv-x="1036" vert-adv-y="2000"  />

      
      <glyph glyph-name="unic9" unicode="&#xc9;" d="M1060 1206L521 1206L477 854L890 854L858 612L447 612L403 251L946 251L914 0L44 0L224 1457L1092 1457L1060 1206M1122 1796L840 1592Q808 1569 783 1560Q758 1551 727 1551L482 1551L674 1752Q689 1765 701 1774Q713 1783 726.50 1787.50Q740 1792 755.50 1794Q771 1796 794 1796L1122 1796Z"  horiz-adv-x="1036" vert-adv-y="2000"  />

      
      <glyph glyph-name="unica" unicode="&#xca;" d="M1060 1206L521 1206L477 854L890 854L858 612L447 612L403 251L946 251L914 0L44 0L224 1457L1092 1457L1060 1206M1044 1551L818 1551Q801 1551 781 1555Q761 1559 750 1569L678 1632L590 1569Q577 1560 556.50 1555.50Q536 1551 518 1551L294 1551L546 1776L846 1776L1044 1551Z"  horiz-adv-x="1036" vert-adv-y="2000"  />

      
      <glyph glyph-name="unicb" unicode="&#xcb;" d="M1060 1206L521 1206L477 854L890 854L858 612L447 612L403 251L946 251L914 0L44 0L224 1457L1092 1457L1060 1206M616 1666Q616 1638 605 1614Q594 1590 574.50 1572Q555 1554 529 1544Q503 1534 474 1534Q447 1534 422.50 1544Q398 1554 379 1572Q360 1590 349 1614Q338 1638 338 1666Q338 1694 349 1719.50Q360 1745 379 1763.50Q398 1782 422.50 1793Q447 1804 474 1804Q503 1804 529 1793Q555 1782 574.50 1763.50Q594 1745 605 1719.50Q616 1694 616 1666M974 1666Q974 1638 963 1614Q952 1590 933 1572Q914 1554 888.50 1544Q863 1534 834 1534Q805 1534 780 1544Q755 1554 736.50 1572Q718 1590 707 1614Q696 1638 696 1666Q696 1694 707 1719.50Q718 1745 736.50 1763.50Q755 1782 780 1793Q805 1804 834 1804Q863 1804 888.50 1793Q914 1782 933 1763.50Q952 1745 963 1719.50Q974 1694 974 1666Z"  horiz-adv-x="1036" vert-adv-y="2000"  />

      
      <glyph glyph-name="unicc" unicode="&#xcc;" d="M400 0L72 0L250 1457L578 1457L400 0M349 1796Q371 1796 386 1794Q401 1792 413 1787.50Q425 1783 435 1774Q445 1765 457 1752L599 1551L343 1551Q310 1551 291.50 1561.50Q273 1572 251 1592L19 1796L349 1796Z"  horiz-adv-x="592" vert-adv-y="2000"  />

      
      <glyph glyph-name="unicd" unicode="&#xcd;" d="M400 0L72 0L250 1457L578 1457L400 0M881 1796L599 1592Q567 1569 542 1560Q517 1551 486 1551L241 1551L433 1752Q448 1765 460 1774Q472 1783 485.50 1787.50Q499 1792 514.50 1794Q530 1796 553 1796L881 1796Z"  horiz-adv-x="592" vert-adv-y="2000"  />

      
      <glyph glyph-name="unice" unicode="&#xce;" d="M400 0L72 0L250 1457L578 1457L400 0M803 1551L577 1551Q560 1551 540 1555Q520 1559 509 1569L437 1632L349 1569Q336 1560 315.50 1555.50Q295 1551 277 1551L53 1551L305 1776L605 1776L803 1551Z"  horiz-adv-x="592" vert-adv-y="2000"  />

      
      <glyph glyph-name="unicf" unicode="&#xcf;" d="M400 0L72 0L250 1457L578 1457L400 0M375 1666Q375 1638 364 1614Q353 1590 333.50 1572Q314 1554 288 1544Q262 1534 233 1534Q206 1534 181.50 1544Q157 1554 138 1572Q119 1590 108 1614Q97 1638 97 1666Q97 1694 108 1719.50Q119 1745 138 1763.50Q157 1782 181.50 1793Q206 1804 233 1804Q262 1804 288 1793Q314 1782 333.50 1763.50Q353 1745 364 1719.50Q375 1694 375 1666M733 1666Q733 1638 722 1614Q711 1590 692 1572Q673 1554 647.50 1544Q622 1534 593 1534Q564 1534 539 1544Q514 1554 495.50 1572Q477 1590 466 1614Q455 1638 455 1666Q455 1694 466 1719.50Q477 1745 495.50 1763.50Q514 1782 539 1793Q564 1804 593 1804Q622 1804 647.50 1793Q673 1782 692 1763.50Q711 1745 722 1719.50Q733 1694 733 1666Z"  horiz-adv-x="592" vert-adv-y="2000"  />

      
      <glyph glyph-name="unid0" unicode="&#xd0;" d="M92 819L240 819L318 1457L842 1457Q986 1457 1100.50 1408.50Q1215 1360 1295 1275Q1375 1190 1417.50 1074Q1460 958 1460 822Q1460 703 1433 596.50Q1406 490 1356 398.50Q1306 307 1234.50 233.50Q1163 160 1074.50 108Q986 56 882.50 28Q779 0 664 0L140 0L218 641L68 641L92 819M1126 814Q1126 903 1105.50 975.50Q1085 1048 1044.50 1099Q1004 1150 945 1178Q886 1206 810 1206L614 1206L568 819L880 819L858 641L546 641L500 251L696 251Q796 251 875.50 290.50Q955 330 1010.50 403Q1066 476 1096 580Q1126 684 1126 814Z"  horiz-adv-x="1458" vert-adv-y="2000"  />

      
      <glyph glyph-name="unid1" unicode="&#xd1;" d="M396 1457Q417 1457 431.50 1455.50Q446 1454 457.50 1448.50Q469 1443 478 1433Q487 1423 496 1407L1007 507Q1009 542 1013 574Q1017 606 1020 634L1118 1457L1406 1457L1226 0L1056 0Q1018 0 993 11Q968 22 950 54L441 953Q439 925 436.50 899Q434 873 432 850L332 0L44 0L224 1457L396 1457L396 1457M956 1723Q974 1723 988.50 1735.50Q1003 1748 1006 1776L1168 1776Q1161 1722 1142 1678Q1123 1634 1093 1602Q1063 1570 1024.50 1552.50Q986 1535 940 1535Q906 1535 874.50 1545Q843 1555 815 1566.50Q787 1578 763.50 1588Q740 1598 724 1598Q706 1598 692.50 1584Q679 1570 676 1541L512 1541Q519 1595 538.50 1639.50Q558 1684 588 1716.50Q618 1749 656.50 1766.50Q695 1784 740 1784Q774 1784 806 1774.50Q838 1765 866 1753.50Q894 1742 916.50 1732.50Q939 1723 956 1723Z"  horiz-adv-x="1392" vert-adv-y="2000"  />

      
      <glyph glyph-name="unid2" unicode="&#xd2;" d="M1468 822Q1468 704 1440.50 596Q1413 488 1362.50 395Q1312 302 1240.50 226Q1169 150 1080 96.50Q991 43 887 13.50Q783-16 668-16Q524-16 409.50 34.50Q295 85 215 172.50Q135 260 92.50 378.50Q50 497 50 634Q50 752 77.50 860.50Q105 969 155.50 1062Q206 1155 278 1231Q350 1307 439 1360.50Q528 1414 632 1443.50Q736 1473 852 1473Q995 1473 1109.50 1422.50Q1224 1372 1303.50 1284Q1383 1196 1425.50 1077Q1468 958 1468 822M1134 814Q1134 904 1112.50 977.50Q1091 1051 1049.50 1103.50Q1008 1156 948 1184.50Q888 1213 812 1213Q712 1213 633 1171.50Q554 1130 498.50 1055Q443 980 413.50 874.50Q384 769 384 641Q384 551 405 478Q426 405 466.50 353Q507 301 567 272.50Q627 244 704 244Q804 244 883.50 285Q963 326 1018.50 401Q1074 476 1104 581Q1134 686 1134 814M778 1796Q800 1796 815 1794Q830 1792 842 1787.50Q854 1783 864 1774Q874 1765 886 1752L1028 1551L772 1551Q739 1551 720.50 1561.50Q702 1572 680 1592L448 1796L778 1796Z"  horiz-adv-x="1464" vert-adv-y="2000"  />

      
      <glyph glyph-name="unid3" unicode="&#xd3;" d="M1468 822Q1468 704 1440.50 596Q1413 488 1362.50 395Q1312 302 1240.50 226Q1169 150 1080 96.50Q991 43 887 13.50Q783-16 668-16Q524-16 409.50 34.50Q295 85 215 172.50Q135 260 92.50 378.50Q50 497 50 634Q50 752 77.50 860.50Q105 969 155.50 1062Q206 1155 278 1231Q350 1307 439 1360.50Q528 1414 632 1443.50Q736 1473 852 1473Q995 1473 1109.50 1422.50Q1224 1372 1303.50 1284Q1383 1196 1425.50 1077Q1468 958 1468 822M1134 814Q1134 904 1112.50 977.50Q1091 1051 1049.50 1103.50Q1008 1156 948 1184.50Q888 1213 812 1213Q712 1213 633 1171.50Q554 1130 498.50 1055Q443 980 413.50 874.50Q384 769 384 641Q384 551 405 478Q426 405 466.50 353Q507 301 567 272.50Q627 244 704 244Q804 244 883.50 285Q963 326 1018.50 401Q1074 476 1104 581Q1134 686 1134 814M1310 1796L1028 1592Q996 1569 971 1560Q946 1551 915 1551L670 1551L862 1752Q877 1765 889 1774Q901 1783 914.50 1787.50Q928 1792 943.50 1794Q959 1796 982 1796L1310 1796Z"  horiz-adv-x="1464" vert-adv-y="2000"  />

      
      <glyph glyph-name="unid4" unicode="&#xd4;" d="M1468 822Q1468 704 1440.50 596Q1413 488 1362.50 395Q1312 302 1240.50 226Q1169 150 1080 96.50Q991 43 887 13.50Q783-16 668-16Q524-16 409.50 34.50Q295 85 215 172.50Q135 260 92.50 378.50Q50 497 50 634Q50 752 77.50 860.50Q105 969 155.50 1062Q206 1155 278 1231Q350 1307 439 1360.50Q528 1414 632 1443.50Q736 1473 852 1473Q995 1473 1109.50 1422.50Q1224 1372 1303.50 1284Q1383 1196 1425.50 1077Q1468 958 1468 822M1134 814Q1134 904 1112.50 977.50Q1091 1051 1049.50 1103.50Q1008 1156 948 1184.50Q888 1213 812 1213Q712 1213 633 1171.50Q554 1130 498.50 1055Q443 980 413.50 874.50Q384 769 384 641Q384 551 405 478Q426 405 466.50 353Q507 301 567 272.50Q627 244 704 244Q804 244 883.50 285Q963 326 1018.50 401Q1074 476 1104 581Q1134 686 1134 814M1232 1551L1006 1551Q989 1551 969 1555Q949 1559 938 1569L866 1632L778 1569Q765 1560 744.50 1555.50Q724 1551 706 1551L482 1551L734 1776L1034 1776L1232 1551Z"  horiz-adv-x="1464" vert-adv-y="2000"  />

      
      <glyph glyph-name="unid5" unicode="&#xd5;" d="M1468 822Q1468 704 1440.50 596Q1413 488 1362.50 395Q1312 302 1240.50 226Q1169 150 1080 96.50Q991 43 887 13.50Q783-16 668-16Q524-16 409.50 34.50Q295 85 215 172.50Q135 260 92.50 378.50Q50 497 50 634Q50 752 77.50 860.50Q105 969 155.50 1062Q206 1155 278 1231Q350 1307 439 1360.50Q528 1414 632 1443.50Q736 1473 852 1473Q995 1473 1109.50 1422.50Q1224 1372 1303.50 1284Q1383 1196 1425.50 1077Q1468 958 1468 822M1134 814Q1134 904 1112.50 977.50Q1091 1051 1049.50 1103.50Q1008 1156 948 1184.50Q888 1213 812 1213Q712 1213 633 1171.50Q554 1130 498.50 1055Q443 980 413.50 874.50Q384 769 384 641Q384 551 405 478Q426 405 466.50 353Q507 301 567 272.50Q627 244 704 244Q804 244 883.50 285Q963 326 1018.50 401Q1074 476 1104 581Q1134 686 1134 814M996 1723Q1014 1723 1028.50 1735.50Q1043 1748 1046 1776L1208 1776Q1201 1722 1182 1678Q1163 1634 1133 1602Q1103 1570 1064.50 1552.50Q1026 1535 980 1535Q946 1535 914.50 1545Q883 1555 855 1566.50Q827 1578 803.50 1588Q780 1598 764 1598Q746 1598 732.50 1584Q719 1570 716 1541L552 1541Q559 1595 578.50 1639.50Q598 1684 628 1716.50Q658 1749 696.50 1766.50Q735 1784 780 1784Q814 1784 846 1774.50Q878 1765 906 1753.50Q934 1742 956.50 1732.50Q979 1723 996 1723Z"  horiz-adv-x="1464" vert-adv-y="2000"  />

      
      <glyph glyph-name="unid6" unicode="&#xd6;" d="M1468 822Q1468 704 1440.50 596Q1413 488 1362.50 395Q1312 302 1240.50 226Q1169 150 1080 96.50Q991 43 887 13.50Q783-16 668-16Q524-16 409.50 34.50Q295 85 215 172.50Q135 260 92.50 378.50Q50 497 50 634Q50 752 77.50 860.50Q105 969 155.50 1062Q206 1155 278 1231Q350 1307 439 1360.50Q528 1414 632 1443.50Q736 1473 852 1473Q995 1473 1109.50 1422.50Q1224 1372 1303.50 1284Q1383 1196 1425.50 1077Q1468 958 1468 822M1134 814Q1134 904 1112.50 977.50Q1091 1051 1049.50 1103.50Q1008 1156 948 1184.50Q888 1213 812 1213Q712 1213 633 1171.50Q554 1130 498.50 1055Q443 980 413.50 874.50Q384 769 384 641Q384 551 405 478Q426 405 466.50 353Q507 301 567 272.50Q627 244 704 244Q804 244 883.50 285Q963 326 1018.50 401Q1074 476 1104 581Q1134 686 1134 814M804 1666Q804 1638 793 1614Q782 1590 762.50 1572Q743 1554 717 1544Q691 1534 662 1534Q635 1534 610.50 1544Q586 1554 567 1572Q548 1590 537 1614Q526 1638 526 1666Q526 1694 537 1719.50Q548 1745 567 1763.50Q586 1782 610.50 1793Q635 1804 662 1804Q691 1804 717 1793Q743 1782 762.50 1763.50Q782 1745 793 1719.50Q804 1694 804 1666M1162 1666Q1162 1638 1151 1614Q1140 1590 1121 1572Q1102 1554 1076.50 1544Q1051 1534 1022 1534Q993 1534 968 1544Q943 1554 924.50 1572Q906 1590 895 1614Q884 1638 884 1666Q884 1694 895 1719.50Q906 1745 924.50 1763.50Q943 1782 968 1793Q993 1804 1022 1804Q1051 1804 1076.50 1793Q1102 1782 1121 1763.50Q1140 1745 1151 1719.50Q1162 1694 1162 1666Z"  horiz-adv-x="1464" vert-adv-y="2000"  />

      
      <glyph glyph-name="unid7" unicode="&#xd7;" d="M1106 985L755 673L1046 341L870 190L581 518L210 188L72 339L446 672L170 987L346 1139L620 827L968 1137L1106 985Z"  horiz-adv-x="1160" vert-adv-y="2000"  />

      
      <glyph glyph-name="unid8" unicode="&#xd8;" d="M1468 822Q1468 704 1440.50 596Q1413 488 1362.50 395Q1312 302 1240.50 226Q1169 150 1080 96.50Q991 43 887 13.50Q783-16 668-16Q584-16 510.50 1Q437 18 374 50L312-29Q293-53 270-69Q247-85 222.50-95Q198-105 173-109Q148-113 126-113L-2-113L219 168Q137 257 93.50 376Q50 495 50 634Q50 752 77.50 860.50Q105 969 155.50 1062Q206 1155 278 1231Q350 1307 439 1360.50Q528 1414 632 1443.50Q736 1473 852 1473Q946 1473 1027 1451Q1108 1429 1176 1388L1220 1444Q1237 1466 1251.50 1481Q1266 1496 1282 1505Q1298 1514 1317 1517.50Q1336 1521 1362 1521L1528 1521L1323 1260Q1394 1173 1431 1061.50Q1468 950 1468 822M384 641Q384 518 423 428L994 1157Q957 1184 911.50 1198.50Q866 1213 812 1213Q712 1213 633 1171.50Q554 1130 498.50 1055Q443 980 413.50 874.50Q384 769 384 641M1134 814Q1134 862 1127.50 905.50Q1121 949 1109 987L553 279Q618 244 704 244Q804 244 883.50 285Q963 326 1018.50 401Q1074 476 1104 581Q1134 686 1134 814Z"  horiz-adv-x="1464" vert-adv-y="2000"  />

      
      <glyph glyph-name="unid9" unicode="&#xd9;" d="M640 256Q701 256 751 279.50Q801 303 839 346.50Q877 390 902 452Q927 514 936 591L1042 1457L1368 1457L1262 591Q1245 458 1191.50 346.50Q1138 235 1052.50 154.50Q967 74 854 29Q741-16 606-16Q484-16 388.50 21Q293 58 227.50 125.50Q162 193 128 287Q94 381 94 494Q94 541 100 591L204 1457L530 1457L424 591Q422 573 421 555.50Q420 538 420 521Q420 397 476.50 326.50Q533 256 640 256M718 1795Q740 1795 755 1793Q770 1791 782 1786.50Q794 1782 804 1773Q814 1764 826 1751L968 1550L712 1550Q679 1550 660.50 1560.50Q642 1571 620 1591L388 1795L718 1795Z"  horiz-adv-x="1334" vert-adv-y="2000"  />

      
      <glyph glyph-name="unida" unicode="&#xda;" d="M640 256Q701 256 751 279.50Q801 303 839 346.50Q877 390 902 452Q927 514 936 591L1042 1457L1368 1457L1262 591Q1245 458 1191.50 346.50Q1138 235 1052.50 154.50Q967 74 854 29Q741-16 606-16Q484-16 388.50 21Q293 58 227.50 125.50Q162 193 128 287Q94 381 94 494Q94 541 100 591L204 1457L530 1457L424 591Q422 573 421 555.50Q420 538 420 521Q420 397 476.50 326.50Q533 256 640 256M1250 1795L968 1591Q936 1568 911 1559Q886 1550 855 1550L610 1550L802 1751Q817 1764 829 1773Q841 1782 854.50 1786.50Q868 1791 883.50 1793Q899 1795 922 1795L1250 1795Z"  horiz-adv-x="1334" vert-adv-y="2000"  />

      
      <glyph glyph-name="unidb" unicode="&#xdb;" d="M640 256Q701 256 751 279.50Q801 303 839 346.50Q877 390 902 452Q927 514 936 591L1042 1457L1368 1457L1262 591Q1245 458 1191.50 346.50Q1138 235 1052.50 154.50Q967 74 854 29Q741-16 606-16Q484-16 388.50 21Q293 58 227.50 125.50Q162 193 128 287Q94 381 94 494Q94 541 100 591L204 1457L530 1457L424 591Q422 573 421 555.50Q420 538 420 521Q420 397 476.50 326.50Q533 256 640 256M1172 1550L946 1550Q929 1550 909 1554Q889 1558 878 1568L806 1631L718 1568Q705 1559 684.50 1554.50Q664 1550 646 1550L422 1550L674 1775L974 1775L1172 1550Z"  horiz-adv-x="1334" vert-adv-y="2000"  />

      
      <glyph glyph-name="unidc" unicode="&#xdc;" d="M640 256Q701 256 751 279.50Q801 303 839 346.50Q877 390 902 452Q927 514 936 591L1042 1457L1368 1457L1262 591Q1245 458 1191.50 346.50Q1138 235 1052.50 154.50Q967 74 854 29Q741-16 606-16Q484-16 388.50 21Q293 58 227.50 125.50Q162 193 128 287Q94 381 94 494Q94 541 100 591L204 1457L530 1457L424 591Q422 573 421 555.50Q420 538 420 521Q420 397 476.50 326.50Q533 256 640 256M744 1665Q744 1637 733 1613Q722 1589 702.50 1571Q683 1553 657 1543Q631 1533 602 1533Q575 1533 550.50 1543Q526 1553 507 1571Q488 1589 477 1613Q466 1637 466 1665Q466 1693 477 1718.50Q488 1744 507 1762.50Q526 1781 550.50 1792Q575 1803 602 1803Q631 1803 657 1792Q683 1781 702.50 1762.50Q722 1744 733 1718.50Q744 1693 744 1665M1102 1665Q1102 1637 1091 1613Q1080 1589 1061 1571Q1042 1553 1016.50 1543Q991 1533 962 1533Q933 1533 908 1543Q883 1553 864.50 1571Q846 1589 835 1613Q824 1637 824 1665Q824 1693 835 1718.50Q846 1744 864.50 1762.50Q883 1781 908 1792Q933 1803 962 1803Q991 1803 1016.50 1792Q1042 1781 1061 1762.50Q1080 1744 1091 1718.50Q1102 1693 1102 1665Z"  horiz-adv-x="1334" vert-adv-y="2000"  />

      
      <glyph glyph-name="unidd" unicode="&#xdd;" d="M799 558L730 0L404 0L473 555L98 1457L388 1457Q430 1457 453.50 1437.50Q477 1418 488 1386L628 945Q642 901 653.50 860Q665 819 673 781Q692 819 715 859.50Q738 900 764 945L1012 1386Q1027 1413 1056 1435Q1085 1457 1126 1457L1396 1457L799 558M1236 1793L954 1589Q922 1566 897 1557Q872 1548 841 1548L596 1548L788 1749Q803 1762 815 1771Q827 1780 840.50 1784.50Q854 1789 869.50 1791Q885 1793 908 1793L1236 1793Z"  horiz-adv-x="1256" vert-adv-y="2000"  />

      
      <glyph glyph-name="unide" unicode="&#xde;" d="M578 1216L736 1216Q865 1216 957.50 1184.50Q1050 1153 1110 1098.50Q1170 1044 1198 969.50Q1226 895 1226 808Q1226 688 1189.50 586.50Q1153 485 1078 411Q1003 337 888 295.50Q773 254 616 254L459 254L428 0L104 0L282 1457L608 1457L578 1216M548 973L489 499L648 499Q718 499 765.50 519.50Q813 540 842.50 577.50Q872 615 885 667Q898 719 898 781Q898 824 886.50 859Q875 894 851 919.50Q827 945 790.50 959Q754 973 704 973L548 973Z"  horiz-adv-x="1180" vert-adv-y="2000"  />

      
      <glyph glyph-name="unidf" unicode="&#xdf;" d="M785 1483Q898 1483 974 1450Q1050 1417 1096 1367.50Q1142 1318 1161.50 1261Q1181 1204 1181 1155Q1181 1090 1161.50 1045Q1142 1000 1113 968Q1084 936 1050 913Q1016 890 987 869.50Q958 849 938.50 827Q919 805 919 775Q919 749 938 728Q957 707 985 685Q1013 663 1046 638Q1079 613 1107 578Q1135 543 1154 496.50Q1173 450 1173 386Q1173 285 1136 209.50Q1099 134 1038 84Q977 34 899.50 9Q822-16 741-16Q700-16 659-6Q618 4 580 21Q542 38 509 61.50Q476 85 451 112L535 222Q549 240 568.50 251.50Q588 263 615 263Q640 263 659 251Q678 239 697 224Q716 209 738.50 197Q761 185 793 185Q810 185 827 194Q844 203 857.50 219.50Q871 236 879 258.50Q887 281 887 308Q887 344 865.50 370Q844 396 812 418.50Q780 441 742 464Q704 487 672 517.50Q640 548 618.50 589Q597 630 597 689Q597 760 619 808.50Q641 857 673.50 892.50Q706 928 744 954.50Q782 981 814.50 1008.50Q847 1036 869 1068Q891 1100 891 1147Q891 1204 855.50 1239Q820 1274 745 1274Q687 1274 643.50 1239.50Q600 1205 569 1149.50Q538 1094 519 1023.50Q500 953 491 881L391 50L337-124Q319-182 282-214Q245-246 177-246L51-246L181 824L105 842Q75 849 56.50 863Q38 877 38 903Q38 904 38.50 907Q39 910 40.50 922.50Q42 935 45 960.50Q48 986 53 1031L222 1031Q252 1120 305 1201.50Q358 1283 430 1345.50Q502 1408 591.50 1445.50Q681 1483 785 1483Z"  horiz-adv-x="1214" vert-adv-y="2000"  />

      
      <glyph glyph-name="unie0" unicode="&#xe0;" d="M897 0L731 0Q702 0 682.50 7.50Q663 15 651.50 28Q640 41 635.50 59Q631 77 631 98L631 172Q567 84 489 34Q411-16 317-16Q261-16 209 6.50Q157 29 117 74.50Q77 120 53 190.50Q29 261 29 357Q29 498 80.50 624.50Q132 751 224.50 846Q317 941 444 997Q571 1053 723 1053Q797 1053 873 1043Q949 1033 1023 1007L897 0M441 229Q475 229 507 254.50Q539 280 567.50 324Q596 368 620 427Q644 486 661 553L697 840L679 840Q603 840 540.50 806Q478 772 433 713.50Q388 655 363.50 577.50Q339 500 339 412Q339 362 347 327Q355 292 368.50 270.50Q382 249 400.50 239Q419 229 441 229M673 1471Q717 1471 737.50 1456.50Q758 1442 769 1413L863 1168L693 1168Q660 1168 640.50 1177Q621 1186 603 1208L393 1471L673 1471Z"  horiz-adv-x="1058" vert-adv-y="2000"  />

      
      <glyph glyph-name="unie1" unicode="&#xe1;" d="M897 0L731 0Q702 0 682.50 7.50Q663 15 651.50 28Q640 41 635.50 59Q631 77 631 98L631 172Q567 84 489 34Q411-16 317-16Q261-16 209 6.50Q157 29 117 74.50Q77 120 53 190.50Q29 261 29 357Q29 498 80.50 624.50Q132 751 224.50 846Q317 941 444 997Q571 1053 723 1053Q797 1053 873 1043Q949 1033 1023 1007L897 0M441 229Q475 229 507 254.50Q539 280 567.50 324Q596 368 620 427Q644 486 661 553L697 840L679 840Q603 840 540.50 806Q478 772 433 713.50Q388 655 363.50 577.50Q339 500 339 412Q339 362 347 327Q355 292 368.50 270.50Q382 249 400.50 239Q419 229 441 229M1099 1471L825 1208Q801 1185 778.50 1176.50Q756 1168 723 1168L545 1168L699 1413Q717 1441 741.50 1456Q766 1471 811 1471L1099 1471Z"  horiz-adv-x="1058" vert-adv-y="2000"  />

      
      <glyph glyph-name="unie2" unicode="&#xe2;" d="M897 0L731 0Q702 0 682.50 7.50Q663 15 651.50 28Q640 41 635.50 59Q631 77 631 98L631 172Q567 84 489 34Q411-16 317-16Q261-16 209 6.50Q157 29 117 74.50Q77 120 53 190.50Q29 261 29 357Q29 498 80.50 624.50Q132 751 224.50 846Q317 941 444 997Q571 1053 723 1053Q797 1053 873 1043Q949 1033 1023 1007L897 0M441 229Q475 229 507 254.50Q539 280 567.50 324Q596 368 620 427Q644 486 661 553L697 840L679 840Q603 840 540.50 806Q478 772 433 713.50Q388 655 363.50 577.50Q339 500 339 412Q339 362 347 327Q355 292 368.50 270.50Q382 249 400.50 239Q419 229 441 229M1043 1168L845 1168Q828 1168 812.50 1174Q797 1180 791 1188L727 1263Q722 1268 716.50 1273.50Q711 1279 706 1286Q698 1279 691.50 1273.50Q685 1268 679 1263L595 1188Q586 1180 569.50 1174Q553 1168 535 1168L329 1168L581 1455L863 1455L1043 1168Z"  horiz-adv-x="1058" vert-adv-y="2000"  />

      
      </font>
</defs>
</svg>
