<?xml version="1.0" standalone="no"?>
  <!DOCTYPE svg PUBLIC "-//W3C//DTD SVG 1.1//EN" "http://www.w3.org/Graphics/SVG/1.1/DTD/svg11.dtd" >
  <svg>
  <metadata>
  Created by font-carrier
  </metadata>
  <defs>
  <font id="Lato-Hairline" horiz-adv-x="2258" vert-adv-y="2258" >
    <font-face
      
      font-family="Lato Hairline"
      
      font-weight="400"
      
      font-stretch="normal"
      
      units-per-em="2000"
      
      ascent="1974"
      
      descent="-426"
      
    />
      <missing-glyph />

      

      
      <glyph glyph-name="uni21" unicode="&#x21;" d="M322 1400L322 828Q322 784 321.50 745.50Q321 707 320.50 667Q320 627 318.50 581Q317 535 316 476L300 476Q298 535 297 581Q296 627 295.50 667Q295 707 294.50 745.50Q294 784 294 828L294 1400L322 1400M240 48Q240 75 258.50 94.50Q277 114 304 114Q331 114 350.50 94.50Q370 75 370 48Q370 21 350.50 2.50Q331-16 304-16Q277-16 258.50 2.50Q240 21 240 48Z"  horiz-adv-x="610" vert-adv-y="2000"  />

      
      <glyph glyph-name="uni22" unicode="&#x22;" d="M224 1400L224 1106L222 954Q222 946 214 946Q206 946 206 954L204 1106L204 1400L224 1400M478 1400L478 1106L476 954Q476 946 468 946Q460 946 460 954L458 1106L458 1400L478 1400Z"  horiz-adv-x="682" vert-adv-y="2000"  />

      
      <glyph glyph-name="uni23" unicode="&#x23;" d="M723 460L620 0L614 0Q601 0 601 8Q601 13 605 29L701 460L359 460L260 16Q257 0 244 0L234 0L337 460L122 460Q108 460 108 472L108 478L339 478L437 922L164 922L164 928Q164 940 178 940L439 940L538 1384Q541 1400 556 1400L564 1400L461 940L803 940L906 1400L916 1400Q926 1400 926 1391Q926 1387 921 1367L825 940L1060 940L1060 934Q1060 922 1046 922L823 922L725 478L990 478Q1004 478 1004 466L1004 460L723 460M361 478L703 478L801 922L459 922L361 478Z"  horiz-adv-x="1160" vert-adv-y="2000"  />

      
      <glyph glyph-name="uni24" unicode="&#x24;" d="M579-16Q509-16 453.50-3.50Q398 9 351.50 32.50Q305 56 266.50 89.50Q228 123 192 166L196 170Q199 173 201 174.50Q203 176 208 176Q214 176 225.50 163.50Q237 151 256.50 132Q276 113 304 90.50Q332 68 371.50 49Q411 30 462 17Q513 4 579 4L605 730Q539 751 477 776Q415 801 366.50 839.50Q318 878 289 934Q260 990 260 1074Q260 1140 284.50 1201Q309 1262 356 1308.50Q403 1355 471.50 1383.50Q540 1412 629 1414L636 1602Q636 1618 648 1618L658 1618L650 1414Q748 1412 823.50 1379Q899 1346 966 1276L962 1270Q959 1264 952 1264Q942 1264 924 1283.50Q906 1303 871.50 1327Q837 1351 783.50 1371.50Q730 1392 650 1394L627 747Q698 724 767 698.50Q836 673 890.50 635Q945 597 978.50 539.50Q1012 482 1012 394Q1012 310 984.50 237Q957 164 904 109Q851 54 774.50 21Q698-12 600-15L592-258Q592-274 580-274L570-274L579-16M990 390Q990 472 958.50 526.50Q927 581 876 617.50Q825 654 759.50 678Q694 702 626 724L601 4Q693 7 765.50 39Q838 71 888 123.50Q938 176 964 244.50Q990 313 990 390M282 1074Q282 999 309 947Q336 895 381 859Q426 823 484.50 799Q543 775 606 754L629 1393Q545 1391 480.50 1364.50Q416 1338 371.50 1294Q327 1250 304.50 1193Q282 1136 282 1074Z"  horiz-adv-x="1160" vert-adv-y="2000"  />

      
      <glyph glyph-name="uni25" unicode="&#x25;" d="M660 1064Q660 974 637.50 908Q615 842 577 799Q539 756 488 735Q437 714 380 714Q322 714 271 735Q220 756 182 799Q144 842 122 908Q100 974 100 1064Q100 1155 122 1221Q144 1287 182 1330.50Q220 1374 271 1395Q322 1416 380 1416Q437 1416 488 1395Q539 1374 577 1330.50Q615 1287 637.50 1221Q660 1155 660 1064M638 1064Q638 1151 617.50 1214Q597 1277 561.50 1318Q526 1359 479 1378.50Q432 1398 380 1398Q327 1398 280.50 1378.50Q234 1359 198.50 1318Q163 1277 142.50 1214Q122 1151 122 1064Q122 977 142.50 914Q163 851 198.50 810.50Q234 770 280.50 751Q327 732 380 732Q432 732 479 751Q526 770 561.50 810.50Q597 851 617.50 914Q638 977 638 1064M1224 1392Q1229 1400 1240 1400L1254 1400L266 8Q261 0 250 0L236 0L1224 1392M1400 334Q1400 244 1377.50 178Q1355 112 1317 69Q1279 26 1228 5Q1177-16 1120-16Q1062-16 1011 5Q960 26 922 69Q884 112 862 178Q840 244 840 334Q840 425 862 491Q884 557 922 600.50Q960 644 1011 665Q1062 686 1120 686Q1177 686 1228 665Q1279 644 1317 600.50Q1355 557 1377.50 491Q1400 425 1400 334M1378 334Q1378 421 1357.50 484Q1337 547 1301.50 588Q1266 629 1219 648.50Q1172 668 1120 668Q1067 668 1020.50 648.50Q974 629 938.50 588Q903 547 882.50 484Q862 421 862 334Q862 247 882.50 184Q903 121 938.50 80.50Q974 40 1020.50 21Q1067 2 1120 2Q1172 2 1219 21Q1266 40 1301.50 80.50Q1337 121 1357.50 184Q1378 247 1378 334Z"  horiz-adv-x="1500" vert-adv-y="2000"  />

      
      <glyph glyph-name="uni26" unicode="&#x26;" d="M658 1416Q716 1416 770.50 1394.50Q825 1373 867.50 1337Q910 1301 936 1253Q962 1205 962 1152L956 1152Q951 1152 946.50 1155.50Q942 1159 940 1168Q938 1195 920 1234Q902 1273 867.50 1309Q833 1345 780.50 1370.50Q728 1396 658 1396Q590 1396 533 1375Q476 1354 435 1316.50Q394 1279 371 1226.50Q348 1174 348 1110Q348 1017 397.50 931.50Q447 846 546 752L1022 296Q1073 372 1102 453Q1131 534 1140 606Q1142 614 1144 618Q1146 622 1154 622L1162 622Q1159 547 1128 457.50Q1097 368 1038 281L1332 0L1316 0Q1307 0 1301 1Q1295 2 1286 10L1025 263Q984 206 931 155.50Q878 105 813.50 66.50Q749 28 674 6Q599-16 514-16Q443-16 373.50 7.50Q304 31 249 76.50Q194 122 160 189Q126 256 126 344Q126 419 154 487Q182 555 231.50 611Q281 667 347 709.50Q413 752 490 777Q449 820 418 859.50Q387 899 366 938.50Q345 978 334.50 1020Q324 1062 324 1110Q324 1177 348.50 1233Q373 1289 417.50 1329.50Q462 1370 523 1393Q584 1416 658 1416M150 344Q150 257 184.50 193Q219 129 272.50 87Q326 45 390.50 24.50Q455 4 514 4Q598 4 671 25.50Q744 47 806.50 84Q869 121 920 171Q971 221 1010 277L505 762Q429 738 364 696Q299 654 251.50 599.50Q204 545 177 480Q150 415 150 344Z"  horiz-adv-x="1362" vert-adv-y="2000"  />

      
      <glyph glyph-name="uni27" unicode="&#x27;" d="M224 1400L224 1106L222 954Q222 946 214 946Q206 946 206 954L204 1106L204 1400L224 1400Z"  horiz-adv-x="428" vert-adv-y="2000"  />

      
      <glyph glyph-name="uni28" unicode="&#x28;" d="M222 632Q222 399 288 189.50Q354-20 486-218Q490-223 490-227Q490-231 486-234L476-240Q398-121 345-12Q292 97 260 202.50Q228 308 214 413.50Q200 519 200 632Q200 744 214 850Q228 956 260 1061.50Q292 1167 345 1276Q398 1385 476 1504L486 1498Q490 1496 490 1491Q490 1487 486 1482Q354 1284 288 1074Q222 864 222 632Z"  horiz-adv-x="600" vert-adv-y="2000"  />

      
      <glyph glyph-name="uni29" unicode="&#x29;" d="M376 632Q376 864 310 1074Q244 1284 112 1482Q108 1487 108 1491Q108 1496 112 1498L122 1504Q200 1385 253 1276Q306 1167 338 1061.50Q370 956 384 850Q398 744 398 632Q398 519 384 413.50Q370 308 338 202.50Q306 97 253-12Q200-121 122-240L112-234Q108-231 108-227Q108-223 112-218Q244-20 310 189.50Q376 399 376 632Z"  horiz-adv-x="600" vert-adv-y="2000"  />

      
      <glyph glyph-name="uni2a" unicode="&#x2a;" d="M388 926L388 1154Q388 1165 389.50 1172.50Q391 1180 395 1197Q382 1184 377 1180.50Q372 1177 360 1170L158 1052L148 1070L350 1188Q360 1193 367.50 1195.50Q375 1198 391 1203Q374 1210 367 1212Q360 1214 350 1220L146 1338L156 1356L360 1238Q365 1235 368.50 1232.50Q372 1230 375 1227Q378 1224 382.50 1219.50Q387 1215 395 1208Q391 1226 389.50 1234Q388 1242 388 1254L388 1482L408 1482L408 1254Q408 1242 407.50 1234Q407 1226 402 1208Q416 1222 421.50 1227Q427 1232 438 1238L640 1356L650 1338L448 1220Q438 1214 430.50 1210.50Q423 1207 408 1203Q425 1198 431.50 1195.50Q438 1193 448 1188L652 1070L642 1052L438 1170Q433 1173 429.50 1175Q426 1177 422.50 1179.50Q419 1182 414 1186Q409 1190 402 1198Q405 1180 406.50 1172.50Q408 1165 408 1154L408 926L388 926Z"  horiz-adv-x="800" vert-adv-y="2000"  />

      
      <glyph glyph-name="uni2b" unicode="&#x2b;" d="M588 1150L588 680L1040 680L1040 660L588 660L588 188L568 188L568 660L118 660L118 680L568 680L568 1150L588 1150Z"  horiz-adv-x="1160" vert-adv-y="2000"  />

      
      <glyph glyph-name="uni2c" unicode="&#x2c;" d="M124 52Q124 76 140.50 95Q157 114 184 114Q211 114 228.50 94Q246 74 246 36Q246-41 212.50-112.50Q179-184 128-238L125-235Q122-232 122-229Q122-226 127-219Q137-206 154-183.50Q171-161 187-131Q203-101 214.50-65Q226-29 226 11Q209-8 180-8Q156-8 140 8.50Q124 25 124 52Z"  horiz-adv-x="370" vert-adv-y="2000"  />

      
      <glyph glyph-name="uni2d" unicode="&#x2d;" d="M100 598L540 598L540 578L100 578L100 598Z"  horiz-adv-x="640" vert-adv-y="2000"  />

      
      <glyph glyph-name="uni2e" unicode="&#x2e;" d="M120 48Q120 75 138.50 94.50Q157 114 184 114Q211 114 230.50 94.50Q250 75 250 48Q250 21 230.50 2.50Q211-16 184-16Q157-16 138.50 2.50Q120 21 120 48Z"  horiz-adv-x="370" vert-adv-y="2000"  />

      
      <glyph glyph-name="uni2f" unicode="&#x2f;" d="M32-66Q29-74 22.50-76Q16-78 10-78L2-78L642 1428Q648 1440 662 1440L672 1440L32-66Z"  horiz-adv-x="684" vert-adv-y="2000"  />

      
      <glyph glyph-name="uni30" unicode="&#x30;" d="M1076 700Q1076 516 1036.50 381.50Q997 247 929.50 159Q862 71 771.50 28.50Q681-14 580-14Q479-14 388.50 28.50Q298 71 230.50 159Q163 247 123.50 381.50Q84 516 84 700Q84 884 123.50 1018.50Q163 1153 230.50 1241.50Q298 1330 388.50 1373Q479 1416 580 1416Q681 1416 771.50 1373Q862 1330 929.50 1241.50Q997 1153 1036.50 1018.50Q1076 884 1076 700M1050 700Q1050 880 1012.50 1011Q975 1142 911 1227.50Q847 1313 761.50 1354.50Q676 1396 580 1396Q484 1396 398 1354.50Q312 1313 247.50 1227.50Q183 1142 145.50 1011Q108 880 108 700Q108 520 145.50 389Q183 258 247.50 173Q312 88 398 47Q484 6 580 6Q676 6 761.50 47Q847 88 911 173Q975 258 1012.50 389Q1050 520 1050 700Z"  horiz-adv-x="1160" vert-adv-y="2000"  />

      
      <glyph glyph-name="uni31" unicode="&#x31;" d="M328 20L668 20L668 1316Q668 1330 669 1344.50Q670 1359 672 1373L310 1046Q305 1041 300 1041Q294 1041 290 1046L284 1054L678 1408L692 1408L692 20L1024 20L1024 0L328 0L328 20Z"  horiz-adv-x="1160" vert-adv-y="2000"  />

      
      <glyph glyph-name="uni32" unicode="&#x32;" d="M602 1416Q674 1416 743.50 1395Q813 1374 867 1329.50Q921 1285 954.50 1216Q988 1147 988 1050Q988 970 962.50 901Q937 832 894 769Q851 706 794.50 645.50Q738 585 676 522L182 18Q203 20 230.50 21Q258 22 292 22L1016 22Q1026 22 1026 12L1026 0L150 0L150 8Q150 14 153 18Q156 22 158 24L662 536Q724 599 779 659Q834 719 875 781Q916 843 940 909Q964 975 964 1050Q964 1141 933 1206.50Q902 1272 851 1314Q800 1356 735 1376Q670 1396 602 1396Q524 1396 458.50 1372Q393 1348 343 1304.50Q293 1261 260.50 1201Q228 1141 216 1068Q213 1052 200 1052L190 1052Q201 1136 235.50 1203.50Q270 1271 324 1318Q378 1365 448.50 1390.50Q519 1416 602 1416Z"  horiz-adv-x="1160" vert-adv-y="2000"  />

      
      <glyph glyph-name="uni33" unicode="&#x33;" d="M608 1416Q680 1416 748 1396Q816 1376 869 1334Q922 1292 954 1225.50Q986 1159 986 1066Q986 995 959 935.50Q932 876 887.50 832Q843 788 785 759.50Q727 731 666 722Q753 715 820.50 686Q888 657 933.50 611Q979 565 1002.50 503.50Q1026 442 1026 370Q1026 293 993.50 223Q961 153 903 100Q845 47 765 15.50Q685-16 590-16Q506-16 442.50 1Q379 18 332.50 45.50Q286 73 254.50 109.50Q223 146 202 185Q181 224 168.50 263Q156 302 148 336L152 338Q156 340 160 340Q168 340 171.50 333.50Q175 327 178 315Q181 301 189.50 272.50Q198 244 216 209.50Q234 175 262.50 138.50Q291 102 336 72Q381 42 443 23Q505 4 590 4Q693 4 770 38.50Q847 73 898.50 126.50Q950 180 976 244.50Q1002 309 1002 370Q1002 442 977 504Q952 566 898 612Q844 658 760 684.50Q676 711 558 712L558 728Q650 731 725 756.50Q800 782 852.50 826.50Q905 871 933.50 931.50Q962 992 962 1066Q962 1153 932.50 1215.50Q903 1278 853.50 1318Q804 1358 740 1377Q676 1396 608 1396Q530 1396 464 1372Q398 1348 348 1304.50Q298 1261 265 1201Q232 1141 220 1068Q217 1052 206 1052L196 1052Q207 1136 241.50 1203.50Q276 1271 330 1318Q384 1365 454.50 1390.50Q525 1416 608 1416Z"  horiz-adv-x="1160" vert-adv-y="2000"  />

      
      <glyph glyph-name="uni34" unicode="&#x34;" d="M820 452L1116 452L1116 444Q1116 432 1100 432L820 432L820 0L796 0L796 432L102 432Q91 432 88.50 434.50Q86 437 84 442L82 450L806 1402L820 1402L820 452M796 1322Q796 1330 796 1339Q796 1348 798 1357L110 452L796 452L796 1322Z"  horiz-adv-x="1160" vert-adv-y="2000"  />

      
      <glyph glyph-name="uni35" unicode="&#x35;" d="M956 1390Q956 1385 952 1381.50Q948 1378 942 1378L376 1378L275 823Q351 843 419 852Q487 861 547 861Q656 861 738.50 830.50Q821 800 876.50 745.50Q932 691 960 614.50Q988 538 988 446Q988 336 950 250Q912 164 848 105Q784 46 699.50 15Q615-16 522-16Q468-16 418-7Q368 2 324.50 16.50Q281 31 245 49.50Q209 68 182 88L188 96Q192 102 200 102Q207 102 231 87.50Q255 73 295.50 55Q336 37 392.50 22.50Q449 8 522 8Q611 8 691 36.50Q771 65 831 120.50Q891 176 926.50 258.50Q962 341 962 448Q962 533 937.50 605Q913 677 862 729.50Q811 782 732.50 811.50Q654 841 547 841Q487 841 417.50 831.50Q348 822 268 802L250 810L356 1400L956 1400L956 1390Z"  horiz-adv-x="1160" vert-adv-y="2000"  />

      
      <glyph glyph-name="uni36" unicode="&#x36;" d="M608 818Q703 818 780 787Q857 756 911 701Q965 646 994.50 570Q1024 494 1024 404Q1024 310 991 233Q958 156 898.50 100.50Q839 45 757 14.50Q675-16 578-16Q486-16 409.50 13.50Q333 43 277.50 100Q222 157 191 240Q160 323 160 430Q160 504 202 607.50Q244 711 344 846L750 1394Q753 1399 756 1399.50Q759 1400 762 1400L782 1400L364 836Q310 763 273.50 703.50Q237 644 215 590Q241 643 282.50 685Q324 727 375.50 756.50Q427 786 486 802Q545 818 608 818M184 414Q184 325 212 250Q240 175 291.50 120.50Q343 66 416 35Q489 4 578 4Q677 4 755.50 34Q834 64 888 117.50Q942 171 971 244.50Q1000 318 1000 404Q1000 495 971.50 568Q943 641 891.50 692Q840 743 768 770.50Q696 798 610 798Q508 798 428.50 762.50Q349 727 295 671.50Q241 616 212.50 548Q184 480 184 414Z"  horiz-adv-x="1160" vert-adv-y="2000"  />

      
      <glyph glyph-name="uni37" unicode="&#x37;" d="M1060 1400L1060 1388Q1060 1382 1056 1374L360 12Q354 0 338 0L326 0L1024 1364Q1027 1371 1032 1378L158 1378Q146 1378 146 1390L146 1400L1060 1400Z"  horiz-adv-x="1160" vert-adv-y="2000"  />

      
      <glyph glyph-name="uni38" unicode="&#x38;" d="M580-16Q483-16 402.50 10Q322 36 263.50 84Q205 132 172.50 201.50Q140 271 140 358Q140 446 168.50 511.50Q197 577 245 622.50Q293 668 355.50 694Q418 720 486 731Q416 744 361 775Q306 806 268.50 850Q231 894 211.50 949.50Q192 1005 192 1068Q192 1140 218.50 1203.50Q245 1267 294.50 1314Q344 1361 416 1388.50Q488 1416 580 1416Q671 1416 743.50 1388.50Q816 1361 865.50 1314Q915 1267 941.50 1203.50Q968 1140 968 1068Q968 1005 948 949.50Q928 894 890.50 850Q853 806 798.50 775Q744 744 674 731Q742 720 804.50 694Q867 668 915 622.50Q963 577 991.50 511.50Q1020 446 1020 358Q1020 271 987.50 201.50Q955 132 896.50 84Q838 36 757.50 10Q677-16 580-16M580 4Q671 4 747 29Q823 54 878.50 100Q934 146 965 211.50Q996 277 996 358Q996 431 976.50 486Q957 541 924 581.50Q891 622 848.50 648.50Q806 675 760 691Q714 707 667 713.50Q620 720 580 720Q539 720 492.50 713.50Q446 707 400 691Q354 675 311.50 648.50Q269 622 236 581.50Q203 541 183.50 486Q164 431 164 358Q164 277 195 211.50Q226 146 281.50 100Q337 54 413 29Q489 4 580 4M580 740Q671 740 739.50 767.50Q808 795 853.50 840.50Q899 886 921.50 945Q944 1004 944 1068Q944 1138 919 1198.50Q894 1259 847 1302.50Q800 1346 732.50 1371Q665 1396 580 1396Q495 1396 427.50 1371Q360 1346 313 1302.50Q266 1259 241 1198.50Q216 1138 216 1068Q216 1004 238.50 945Q261 886 306.50 840.50Q352 795 420 767.50Q488 740 580 740Z"  horiz-adv-x="1160" vert-adv-y="2000"  />

      
      <glyph glyph-name="uni39" unicode="&#x39;" d="M594 614Q502 614 427.50 644Q353 674 300.50 727Q248 780 220 853Q192 926 192 1012Q192 1100 225 1174Q258 1248 315.50 1302Q373 1356 451.50 1386Q530 1416 622 1416Q708 1416 781.50 1385.50Q855 1355 909 1299Q963 1243 993.50 1164Q1024 1085 1024 988Q1024 939 1012 894Q1000 849 977.50 801.50Q955 754 922 701.50Q889 649 846 586L456 6Q453 1 450 0.50Q447 0 444 0L424 0L828 596Q878 670 916 727.50Q954 785 977 844Q952 791 911.50 748.50Q871 706 821 676Q771 646 713 630Q655 614 594 614M1000 1002Q1000 1087 971.50 1159.50Q943 1232 892.50 1284.50Q842 1337 773 1366.50Q704 1396 622 1396Q533 1396 458.50 1368Q384 1340 330 1289.50Q276 1239 246 1168Q216 1097 216 1012Q216 925 243.50 855Q271 785 320.50 736Q370 687 439.50 660.50Q509 634 592 634Q689 634 765 668Q841 702 893.50 755Q946 808 973 873.50Q1000 939 1000 1002Z"  horiz-adv-x="1160" vert-adv-y="2000"  />

      
      <glyph glyph-name="uni3a" unicode="&#x3a;" d="M160 48Q160 75 178.50 94.50Q197 114 224 114Q251 114 270.50 94.50Q290 75 290 48Q290 21 270.50 2.50Q251-16 224-16Q197-16 178.50 2.50Q160 21 160 48M160 886Q160 913 178.50 932.50Q197 952 224 952Q251 952 270.50 932.50Q290 913 290 886Q290 859 270.50 840.50Q251 822 224 822Q197 822 178.50 840.50Q160 859 160 886Z"  horiz-adv-x="450" vert-adv-y="2000"  />

      
      <glyph glyph-name="uni3b" unicode="&#x3b;" d="M164 52Q164 76 180.50 95Q197 114 224 114Q251 114 268.50 94Q286 74 286 36Q286-41 252.50-112.50Q219-184 168-238L165-235Q162-232 162-229Q162-226 167-219Q177-206 194-183.50Q211-161 227-131Q243-101 254.50-65Q266-29 266 11Q249-8 220-8Q196-8 180 8.50Q164 25 164 52M160 886Q160 913 178.50 932.50Q197 952 224 952Q251 952 270.50 932.50Q290 913 290 886Q290 859 270.50 840.50Q251 822 224 822Q197 822 178.50 840.50Q160 859 160 886Z"  horiz-adv-x="450" vert-adv-y="2000"  />

      
      <glyph glyph-name="uni3c" unicode="&#x3c;" d="M170 676L900 1048L900 1037Q900 1025 881 1016L238 690Q226 684 214.50 678.50Q203 673 191 670Q203 666 214.50 661Q226 656 238 650L881 324Q900 314 900 303L900 292L170 664L170 676Z"  horiz-adv-x="1160" vert-adv-y="2000"  />

      
      <glyph glyph-name="uni3d" unicode="&#x3d;" d="M180 540L980 540L980 520L180 520L180 540M180 834L980 834L980 814L180 814L180 834Z"  horiz-adv-x="1160" vert-adv-y="2000"  />

      
      <glyph glyph-name="uni3e" unicode="&#x3e;" d="M260 292L260 303Q260 314 279 324L922 650Q933 655 944.50 660.50Q956 666 968 670Q956 673 945 678.50Q934 684 922 690L279 1016Q260 1025 260 1037L260 1048L990 676L990 664L260 292Z"  horiz-adv-x="1160" vert-adv-y="2000"  />

      
      <glyph glyph-name="uni3f" unicode="&#x3f;" d="M32 1280Q56 1305 86.50 1329.50Q117 1354 154.50 1373.50Q192 1393 236.50 1404.50Q281 1416 334 1416Q395 1416 453 1396.50Q511 1377 555.50 1340.50Q600 1304 627 1251.50Q654 1199 654 1132Q654 1056 629.50 1001Q605 946 568 904.50Q531 863 488 831Q445 799 407.50 770.50Q370 742 344.50 713Q319 684 318 648L312 476L296 476L296 650Q296 689 320.50 719.50Q345 750 382.50 779Q420 808 463 839Q506 870 543.50 911Q581 952 605.50 1005.50Q630 1059 630 1132Q630 1194 605 1243Q580 1292 539 1326Q498 1360 444.50 1378Q391 1396 334 1396Q263 1396 211 1376Q159 1356 123.50 1332Q88 1308 68.50 1288Q49 1268 45 1268Q41 1268 37 1273L32 1280M240 48Q240 75 258.50 94.50Q277 114 304 114Q331 114 350.50 94.50Q370 75 370 48Q370 21 350.50 2.50Q331-16 304-16Q277-16 258.50 2.50Q240 21 240 48Z"  horiz-adv-x="694" vert-adv-y="2000"  />

      
      <glyph glyph-name="uni40" unicode="&#x40;" d="M1168 190Q1078 190 1038.50 237Q999 284 999 363Q999 376 1000 389.50Q1001 403 1003 417Q952 302 877 249Q802 196 712 196Q659 196 621 214.50Q583 233 557.50 264.50Q532 296 520 338.50Q508 381 508 430Q508 486 522.50 543.50Q537 601 565 653.50Q593 706 634 752Q675 798 727 831.50Q779 865 842 884.50Q905 904 978 904Q1019 904 1061.50 896.50Q1104 889 1134 874L1046 538Q1032 486 1026 445Q1020 404 1020 371Q1020 321 1032.50 289.50Q1045 258 1066 240.50Q1087 223 1114 216.50Q1141 210 1170 210Q1234 210 1293 241.50Q1352 273 1397 332.50Q1442 392 1469 477.50Q1496 563 1496 670Q1496 827 1443.50 943Q1391 1059 1302.50 1135.50Q1214 1212 1098.50 1249Q983 1286 856 1286Q763 1286 674.50 1261.50Q586 1237 507.50 1190.50Q429 1144 363.50 1077Q298 1010 250.50 926.50Q203 843 176.50 743.50Q150 644 150 532Q150 350 209 210.50Q268 71 368.50-23.50Q469-118 603-166Q737-214 886-214Q1031-214 1158.50-178.50Q1286-143 1399-68Q1403-65 1408-65Q1415-65 1418-71L1424-82Q1309-159 1176-197.50Q1043-236 886-236Q729-236 591-186Q453-136 350-38.50Q247 59 187.50 202Q128 345 128 532Q128 702 186 844.50Q244 987 343.50 1089.50Q443 1192 575 1249Q707 1306 856 1306Q942 1306 1025 1288.50Q1108 1271 1181.50 1236.50Q1255 1202 1317 1149.50Q1379 1097 1423.50 1026Q1468 955 1493 866Q1518 777 1518 670Q1518 560 1490 471.50Q1462 383 1414 320.50Q1366 258 1302.50 224Q1239 190 1168 190M716 216Q757 216 801 230Q845 244 886 280.50Q927 317 962.50 380.50Q998 444 1024 542L1108 866Q1077 874 1049 879Q1021 884 978 884Q909 884 849 865Q789 846 739.50 813.50Q690 781 651.50 736.50Q613 692 586.50 641.50Q560 591 546 537Q532 483 532 430Q532 386 543.50 347Q555 308 577.50 279Q600 250 634.50 233Q669 216 716 216Z"  horiz-adv-x="1642" vert-adv-y="2000"  />

      
      <glyph glyph-name="uni41" unicode="&#x41;" d="M1208 0L1190 0Q1181 0 1178 10L983 478L245 478L50 10Q47 0 36 0L20 0L604 1400L624 1400L1208 0M253 498L975 498L630 1326Q625 1337 621.50 1346.50Q618 1356 614 1367Q610 1356 606.50 1346.50Q603 1337 598 1326L253 498Z"  horiz-adv-x="1228" vert-adv-y="2000"  />

      
      <glyph glyph-name="uni42" unicode="&#x42;" d="M240 0L240 1400L604 1400Q827 1400 936.50 1310.50Q1046 1221 1046 1052Q1046 990 1021.50 932Q997 874 954.50 828Q912 782 853 751.50Q794 721 725 714Q814 707 885.50 680.50Q957 654 1007.50 609.50Q1058 565 1085 504Q1112 443 1112 368Q1112 279 1081.50 210Q1051 141 992.50 94.50Q934 48 849.50 24Q765 0 658 0L240 0M264 700L264 20L658 20Q759 20 839 42Q919 64 974.50 107.50Q1030 151 1059 216.50Q1088 282 1088 368Q1088 444 1057.50 505.50Q1027 567 971.50 610.50Q916 654 836.50 677Q757 700 660 700L264 700M264 720L614 720Q726 720 804 751Q882 782 931 830.50Q980 879 1002 937.50Q1024 996 1024 1052Q1024 1208 920.50 1294Q817 1380 604 1380L264 1380L264 720Z"  horiz-adv-x="1272" vert-adv-y="2000"  />

      
      <glyph glyph-name="uni43" unicode="&#x43;" d="M1284 189Q1288 189 1291 186L1300 178Q1256 135 1205.50 99.50Q1155 64 1095 38.50Q1035 13 963-1.50Q891-16 804-16Q663-16 544 33.50Q425 83 338 176Q251 269 202.50 401.50Q154 534 154 700Q154 860 202.50 992Q251 1124 339.50 1218.50Q428 1313 551.50 1364.50Q675 1416 824 1416Q900 1416 961 1406Q1022 1396 1075 1375.50Q1128 1355 1175.50 1324Q1223 1293 1272 1252L1269 1247Q1265 1242 1260 1242Q1252 1242 1238.50 1253.50Q1225 1265 1202.50 1282Q1180 1299 1147 1319Q1114 1339 1068 1356Q1022 1373 961.50 1384.50Q901 1396 824 1396Q682 1396 563.50 1347.50Q445 1299 359.50 1208.50Q274 1118 226 989Q178 860 178 700Q178 537 225.50 408Q273 279 357 189Q441 99 555.50 51.50Q670 4 804 4Q889 4 956 16Q1023 28 1078.50 51Q1134 74 1181.50 107.50Q1229 141 1276 184Q1281 189 1284 189Z"  horiz-adv-x="1438" vert-adv-y="2000"  />

      
      <glyph glyph-name="uni44" unicode="&#x44;" d="M1388 700Q1388 534 1340.50 404Q1293 274 1207.50 184Q1122 94 1003 47Q884 0 740 0L240 0L240 1400L740 1400Q884 1400 1003 1353Q1122 1306 1207.50 1216Q1293 1126 1340.50 996Q1388 866 1388 700M1362 700Q1362 863 1316.50 989.50Q1271 1116 1189 1203Q1107 1290 992.50 1335Q878 1380 740 1380L264 1380L264 20L740 20Q878 20 992.50 65Q1107 110 1189 197Q1271 284 1316.50 410.50Q1362 537 1362 700Z"  horiz-adv-x="1532" vert-adv-y="2000"  />

      
      <glyph glyph-name="uni45" unicode="&#x45;" d="M1058 1400L1058 1378L264 1378L264 722L938 722L938 700L264 700L264 22L1060 22L1058 0L240 0L240 1400L1058 1400Z"  horiz-adv-x="1200" vert-adv-y="2000"  />

      
      <glyph glyph-name="uni46" unicode="&#x46;" d="M1058 1400L1058 1378L264 1378L264 702L958 702L958 680L264 680L264 0L240 0L240 1400L1058 1400Z"  horiz-adv-x="1154" vert-adv-y="2000"  />

      
      <glyph glyph-name="uni47" unicode="&#x47;" d="M822 4Q908 4 977.50 13.50Q1047 23 1107 41.50Q1167 60 1220.50 86.50Q1274 113 1328 147L1328 582L1014 582Q1002 582 1002 592L1002 602L1350 602L1350 138Q1298 103 1242.50 74.50Q1187 46 1123.50 26Q1060 6 985.50-5Q911-16 822-16Q671-16 548 33.50Q425 83 337.50 176Q250 269 202 401.50Q154 534 154 700Q154 865 202 997.50Q250 1130 340 1223Q430 1316 557.50 1366Q685 1416 844 1416Q922 1416 987 1406.50Q1052 1397 1107.50 1377Q1163 1357 1212 1327Q1261 1297 1308 1255L1305 1250Q1301 1245 1296 1245Q1288 1245 1262 1268.50Q1236 1292 1183.50 1320.50Q1131 1349 1048 1372.50Q965 1396 844 1396Q692 1396 569 1348.50Q446 1301 359 1211Q272 1121 225 992Q178 863 178 700Q178 537 224.50 408Q271 279 356 189Q441 99 559.50 51.50Q678 4 822 4Z"  horiz-adv-x="1522" vert-adv-y="2000"  />

      
      <glyph glyph-name="uni48" unicode="&#x48;" d="M1272 0L1248 0L1248 700L264 700L264 0L240 0L240 1400L264 1400L264 722L1248 722L1248 1400L1272 1400L1272 0Z"  horiz-adv-x="1512" vert-adv-y="2000"  />

      
      <glyph glyph-name="uni49" unicode="&#x49;" d="M304 0L280 0L280 1400L304 1400L304 0Z"  horiz-adv-x="584" vert-adv-y="2000"  />

      
      <glyph glyph-name="uni4a" unicode="&#x4a;" d="M684 452Q684 334 655 246.50Q626 159 573.50 100.50Q521 42 447.50 13Q374-16 286-16Q204-16 114 14L116 20Q120 30 128 30Q138 30 151 26Q164 22 182.50 17Q201 12 226 8Q251 4 286 4Q371 4 440.50 32Q510 60 558.50 116Q607 172 633.50 256Q660 340 660 452L660 1400L684 1400L684 452Z"  horiz-adv-x="924" vert-adv-y="2000"  />

      
      <glyph glyph-name="uni4b" unicode="&#x4b;" d="M304 724L398 724Q417 724 430 725Q443 726 453.50 729.50Q464 733 474 740Q484 747 496 758L1148 1384Q1159 1393 1166 1396.50Q1173 1400 1184 1400L1196 1400L516 748Q500 733 487.50 725.50Q475 718 456 714Q474 711 487.50 703Q501 695 514 682L1236 0L1226 0Q1211 0 1204.50 3Q1198 6 1190 14L502 664Q487 678 476 686Q465 694 454 698Q443 702 430 703Q417 704 398 704L304 704L304 0L280 0L280 1402L304 1402L304 724Z"  horiz-adv-x="1284" vert-adv-y="2000"  />

      
      <glyph glyph-name="uni4c" unicode="&#x4c;" d="M264 22L978 22L978 0L240 0L240 1400L264 1400L264 22Z"  horiz-adv-x="1018" vert-adv-y="2000"  />

      
      <glyph glyph-name="uni4d" unicode="&#x4d;" d="M898 321Q901 316 903.50 311.50Q906 307 909 300Q912 307 914.50 311.50Q917 316 920 321L1536 1392Q1541 1400 1550 1400L1558 1400L1558 0L1538 0L1538 1338Q1538 1343 1538 1348Q1538 1353 1539 1358L926 290Q919 280 912 280L906 280Q899 280 892 290L259 1357Q260 1352 260 1347.50Q260 1343 260 1338L260 0L240 0L240 1400L248 1400Q257 1400 262 1392L898 321Z"  horiz-adv-x="1798" vert-adv-y="2000"  />

      
      <glyph glyph-name="uni4e" unicode="&#x4e;" d="M248 1400Q257 1400 262 1392L1253 43Q1252 48 1252 53.50Q1252 59 1252 64L1252 1400L1272 1400L1272 0L1266 0Q1260 0 1255 7L259 1362Q260 1356 260 1349.50Q260 1343 260 1338L260 0L240 0L240 1400L248 1400L248 1400Z"  horiz-adv-x="1512" vert-adv-y="2000"  />

      
      <glyph glyph-name="uni4f" unicode="&#x4f;" d="M1444 700Q1444 534 1396.50 402Q1349 270 1263.50 177.50Q1178 85 1059 35.50Q940-14 796-14Q653-14 534.50 35.50Q416 85 330.50 177.50Q245 270 197.50 402Q150 534 150 700Q150 865 197.50 997.50Q245 1130 330.50 1223Q416 1316 534.50 1366Q653 1416 796 1416Q940 1416 1059 1366.50Q1178 1317 1263.50 1224Q1349 1131 1396.50 998.50Q1444 866 1444 700M1418 700Q1418 863 1372.50 992Q1327 1121 1245 1211Q1163 1301 1048.50 1348.50Q934 1396 796 1396Q660 1396 546 1348.50Q432 1301 349.50 1211Q267 1121 220.50 992Q174 863 174 700Q174 537 220.50 408.50Q267 280 349.50 190.50Q432 101 546 53.50Q660 6 796 6Q934 6 1048.50 53.50Q1163 101 1245 190.50Q1327 280 1372.50 408.50Q1418 537 1418 700Z"  horiz-adv-x="1594" vert-adv-y="2000"  />

      
      <glyph glyph-name="uni50" unicode="&#x50;" d="M304 600L304 0L280 0L280 1400L596 1400Q825 1400 947.50 1301Q1070 1202 1070 1000Q1070 913 1035.50 839.50Q1001 766 938 713Q875 660 788 630Q701 600 596 600L304 600M304 620L596 620Q699 620 782 649.50Q865 679 923.50 730.50Q982 782 1014 851Q1046 920 1046 1000Q1046 1187 933.50 1283.50Q821 1380 596 1380L304 1380L304 620Z"  horiz-adv-x="1158" vert-adv-y="2000"  />

      
      <glyph glyph-name="uni51" unicode="&#x51;" d="M1444 700Q1444 587 1422 489.50Q1400 392 1358.50 312Q1317 232 1257.50 170Q1198 108 1123 66L1494-326L1472-326Q1464-326 1459.50-323.50Q1455-321 1452-318L1102 55Q1035 21 958.50 3.50Q882-14 796-14Q653-14 534.50 35.50Q416 85 330.50 177.50Q245 270 197.50 402Q150 534 150 700Q150 865 197.50 997.50Q245 1130 330.50 1223Q416 1316 534.50 1366Q653 1416 796 1416Q940 1416 1059 1366.50Q1178 1317 1263.50 1224Q1349 1131 1396.50 998.50Q1444 866 1444 700M1418 700Q1418 863 1372.50 992Q1327 1121 1245 1211Q1163 1301 1048.50 1348.50Q934 1396 796 1396Q660 1396 546 1348.50Q432 1301 349.50 1211Q267 1121 220.50 992Q174 863 174 700Q174 537 220.50 408.50Q267 280 349.50 190.50Q432 101 546 53.50Q660 6 796 6Q934 6 1048.50 53.50Q1163 101 1245 190.50Q1327 280 1372.50 408.50Q1418 537 1418 700Z"  horiz-adv-x="1594" vert-adv-y="2000"  />

      
      <glyph glyph-name="uni52" unicode="&#x52;" d="M304 676L304 0L280 0L280 1400L604 1400Q823 1400 940.50 1315Q1058 1230 1058 1050Q1058 965 1025 896.50Q992 828 932 780Q872 732 788.50 705Q705 678 604 676Q614 672 622 665.50Q630 659 638 650L1184 0L1168 0Q1160 0 1155 1.50Q1150 3 1142 12L618 640Q609 651 600.50 658Q592 665 581.50 669Q571 673 557 674.50Q543 676 522 676L304 676M304 696L586 696Q689 696 771.50 720.50Q854 745 912.50 790.50Q971 836 1002.50 901.50Q1034 967 1034 1050Q1034 1221 923 1300.50Q812 1380 604 1380L304 1380L304 696Z"  horiz-adv-x="1240" vert-adv-y="2000"  />

      
      <glyph glyph-name="uni53" unicode="&#x53;" d="M882 1272Q877 1266 871 1266Q862 1266 843.50 1286.50Q825 1307 789.50 1331Q754 1355 698 1375.50Q642 1396 558 1396Q472 1396 405.50 1369.50Q339 1343 294 1299Q249 1255 225.50 1197Q202 1139 202 1076Q202 995 233.50 941Q265 887 316 850Q367 813 433 788.50Q499 764 567 741.50Q635 719 701 694Q767 669 818 630.50Q869 592 900.50 535.50Q932 479 932 394Q932 308 903 233.50Q874 159 819 103.50Q764 48 684 16Q604-16 502-16Q431-16 375-3.50Q319 9 272.50 32.50Q226 56 187 89.50Q148 123 112 166L116 170Q119 173 121 174.50Q123 176 128 176Q134 176 145.50 163.50Q157 151 177 131.50Q197 112 225 90Q253 68 293 48.50Q333 29 384.50 16.50Q436 4 502 4Q599 4 674.50 35Q750 66 802.50 118.50Q855 171 882.50 241Q910 311 910 390Q910 456 889.50 504Q869 552 834 586.50Q799 621 752.50 645.50Q706 670 653 689.50Q600 709 545 725.50Q490 742 437 762Q384 782 337.50 807.50Q291 833 256 869.50Q221 906 200.50 956.50Q180 1007 180 1076Q180 1143 205 1204.50Q230 1266 278 1313Q326 1360 396.50 1388Q467 1416 558 1416Q660 1416 738.50 1383Q817 1350 886 1278L882 1272Z"  horiz-adv-x="1032" vert-adv-y="2000"  />

      
      <glyph glyph-name="uni54" unicode="&#x54;" d="M1120 1400L1120 1378L594 1378L594 0L570 0L570 1378L40 1378L40 1400L1120 1400Z"  horiz-adv-x="1160" vert-adv-y="2000"  />

      
      <glyph glyph-name="uni55" unicode="&#x55;" d="M736 4Q849 4 938.50 44.50Q1028 85 1090 155Q1152 225 1185 319Q1218 413 1218 520L1218 1400L1242 1400L1242 520Q1242 409 1207 311Q1172 213 1106 140Q1040 67 946.50 24.50Q853-18 736-18Q619-18 525.50 24.50Q432 67 366 140Q300 213 265 311Q230 409 230 520L230 1400L254 1400L254 522Q254 415 287 320.50Q320 226 382 155.50Q444 85 533.50 44.50Q623 4 736 4Z"  horiz-adv-x="1472" vert-adv-y="2000"  />

      
      <glyph glyph-name="uni56" unicode="&#x56;" d="M20 1400L38 1400Q47 1400 50 1390L598 74Q603 63 607 52.50Q611 42 614 33Q617 42 621 52.50Q625 63 630 74L1178 1390Q1181 1400 1192 1400L1208 1400L624 0L604 0L20 1400Z"  horiz-adv-x="1228" vert-adv-y="2000"  />

      
      <glyph glyph-name="uni57" unicode="&#x57;" d="M20 1400L38 1400Q47 1400 50 1390L459 83Q464 69 467.50 56.50Q471 44 474 30Q477 44 480.50 56.50Q484 69 489 83L944 1390Q947 1400 956 1400L962 1400Q971 1400 974 1390L1429 83Q1439 56 1444 30Q1450 60 1459 83L1868 1390Q1871 1400 1882 1400L1898 1400L1454 0L1434 0L968 1344Q962 1363 959 1375Q956 1363 950 1344L484 0L464 0L20 1400Z"  horiz-adv-x="1918" vert-adv-y="2000"  />

      
      <glyph glyph-name="uni58" unicode="&#x58;" d="M546 716L44 1400L66 1400Q74 1400 77.50 1395Q81 1390 84 1386L563 729L572 744L1040 1386Q1043 1391 1047.50 1395.50Q1052 1400 1058 1400L1080 1400L579 719L1104 0L1082 0Q1074 0 1070 5.50Q1066 11 1064 14L562 706Q561 701 554 692L60 14Q56 9 52 4.50Q48 0 42 0L20 0L546 716Z"  horiz-adv-x="1124" vert-adv-y="2000"  />

      
      <glyph glyph-name="uni59" unicode="&#x59;" d="M586 595L586 0L562 0L562 595L40 1400L60 1400Q69 1400 74 1392L545 662Q553 649 560.50 637.50Q568 626 574 614Q579 626 587 637.50Q595 649 603 662L1074 1392Q1079 1400 1088 1400L1108 1400L586 595Z"  horiz-adv-x="1148" vert-adv-y="2000"  />

      
      <glyph glyph-name="uni5a" unicode="&#x5a;" d="M1156 1400L1156 1396Q1156 1387 1148 1376L174 22L1154 22L1152 0L140 0L140 4Q140 10 141.50 13.50Q143 17 146 22L1122 1378L156 1378L156 1400L1156 1400Z"  horiz-adv-x="1282" vert-adv-y="2000"  />

      
      <glyph glyph-name="uni5b" unicode="&#x5b;" d="M204-242L204 1502L478 1502L478 1496Q478 1484 464 1484L226 1484L226-224L464-224Q478-224 478-236L478-242L204-242Z"  horiz-adv-x="600" vert-adv-y="2000"  />

      
      <glyph glyph-name="uni5c" unicode="&#x5c;" d="M2 1440L12 1440Q26 1440 32 1428L672-78L664-78Q658-78 651.50-76Q645-74 642-66L2 1440Z"  horiz-adv-x="684" vert-adv-y="2000"  />

      
      <glyph glyph-name="uni5d" unicode="&#x5d;" d="M122-236Q122-224 136-224L374-224L374 1484L136 1484Q122 1484 122 1496L122 1502L396 1502L396-242L122-242L122-236Z"  horiz-adv-x="600" vert-adv-y="2000"  />

      
      <glyph glyph-name="uni5e" unicode="&#x5e;" d="M906 812L892 812Q879 812 872 826L592 1332Q587 1342 582 1351.50Q577 1361 574 1372Q567 1352 556 1332L276 826Q273 821 268.50 816.50Q264 812 256 812L242 812L568 1400L580 1400L906 812Z"  horiz-adv-x="1160" vert-adv-y="2000"  />

      
      <glyph glyph-name="uni5f" unicode="&#x5f;" d="M788-240L788-262L0-262L0-240L788-240Z"  horiz-adv-x="788" vert-adv-y="2000"  />

      
      <glyph glyph-name="uni60" unicode="&#x60;" d="M154 1416Q171 1416 179 1412Q187 1408 196 1394L360 1158L346 1158Q335 1158 330 1166L128 1416L154 1416Z"  horiz-adv-x="560" vert-adv-y="2000"  />

      
      <glyph glyph-name="uni61" unicode="&#x61;" d="M784 0Q770 0 770 16L764 175Q722 131 680 95.50Q638 60 591 35.50Q544 11 490-2.50Q436-16 370-16Q326-16 281.50-2.50Q237 11 201 40.50Q165 70 142.50 116.50Q120 163 120 230Q120 296 158.50 348.50Q197 401 276.50 438Q356 475 477 496.50Q598 518 764 522L764 648Q764 725 747 786Q730 847 697 889Q664 931 614 953.50Q564 976 498 976Q446 976 404 965Q362 954 329 938Q296 922 271.50 903Q247 884 229 868Q211 852 200 841Q189 830 184 830Q180 830 174 836L170 840Q242 916 319 956Q396 996 498 996Q573 996 627.50 972Q682 948 718 903Q754 858 771 793.50Q788 729 788 648L788 0L784 0M370 4Q439 4 495 20Q551 36 598 63Q645 90 685.50 125.50Q726 161 764 200L764 502Q449 492 296.50 423.50Q144 355 144 230Q144 171 163.50 128.50Q183 86 214.50 58.50Q246 31 286.50 17.50Q327 4 370 4Z"  horiz-adv-x="938" vert-adv-y="2000"  />

      
      <glyph glyph-name="uni62" unicode="&#x62;" d="M190 0L190 1440L214 1440L214 778Q280 878 373.50 937Q467 996 578 996Q768 996 869 873.50Q970 751 970 496Q970 389 942.50 296.50Q915 204 861 135.50Q807 67 726.50 27.50Q646-12 540-12Q431-12 350 31Q269 74 213 164L210 14Q210 9 208 4.50Q206 0 198 0L190 0M578 976Q469 976 375.50 915Q282 854 214 746L214 195Q278 92 357 50Q436 8 540 8Q643 8 719 45.50Q795 83 845.50 149Q896 215 921 304Q946 393 946 496Q946 740 852.50 858Q759 976 578 976Z"  horiz-adv-x="1070" vert-adv-y="2000"  />

      
      <glyph glyph-name="uni63" unicode="&#x63;" d="M800 888Q796 884 792 884Q786 884 769.50 898.50Q753 913 721.50 930Q690 947 642.50 961.50Q595 976 528 976Q433 976 358 942Q283 908 231 845Q179 782 151.50 692Q124 602 124 490Q124 374 151.50 284.50Q179 195 230 133.50Q281 72 352.50 40Q424 8 512 8Q590 8 644 26Q698 44 733 66Q768 88 786 106Q804 124 810 124Q814 124 818 120L822 116Q807 94 778 71.50Q749 49 709 30.50Q669 12 619 0Q569-12 512-12Q417-12 341 22Q265 56 211.50 120.50Q158 185 129 278Q100 371 100 490Q100 604 129 697.50Q158 791 213 857Q268 923 347.50 959.50Q427 996 528 996Q617 996 686.50 967.50Q756 939 806 894L800 888Z"  horiz-adv-x="890" vert-adv-y="2000"  />

      
      <glyph glyph-name="uni64" unicode="&#x64;" d="M874 0Q860 0 860 16L856 205Q790 105 696.50 46.50Q603-12 492-12Q301-12 200.50 110.50Q100 233 100 488Q100 594 127 687Q154 780 208 848.50Q262 917 342.50 956.50Q423 996 530 996Q638 996 719 953Q800 910 856 820L856 1440L880 1440L880 0L874 0M492 8Q601 8 694.50 69Q788 130 856 237L856 788Q791 891 712 933.50Q633 976 530 976Q427 976 351 938.50Q275 901 224.50 835Q174 769 149 680Q124 591 124 488Q124 244 217.50 126Q311 8 492 8Z"  horiz-adv-x="1070" vert-adv-y="2000"  />

      
      <glyph glyph-name="uni65" unicode="&#x65;" d="M528 996Q605 996 672 968.50Q739 941 788.50 887Q838 833 866 754.50Q894 676 894 574Q894 569 890.50 566.50Q887 564 882 564L126 564Q124 550 124 537Q124 524 124 510Q124 388 153 294.50Q182 201 235.50 137.50Q289 74 364.50 41Q440 8 532 8Q615 8 674.50 26Q734 44 773.50 66Q813 88 833.50 106Q854 124 860 124Q864 124 868 120L872 116Q855 95 821.50 72.50Q788 50 742.50 31Q697 12 643 0Q589-12 532-12Q431-12 351 23.50Q271 59 215.50 126Q160 193 130 290Q100 387 100 510Q100 618 129 707.50Q158 797 213 861Q268 925 347.50 960.50Q427 996 528 996M528 976Q440 976 369.50 947.50Q299 919 248 867.50Q197 816 166.50 743Q136 670 127 582L872 582Q872 677 846 750.50Q820 824 773.50 874Q727 924 664 950Q601 976 528 976Z"  horiz-adv-x="1000" vert-adv-y="2000"  />

      
      <glyph glyph-name="uni66" unicode="&#x66;" d="M210 0L210 918L46 922Q34 922 34 930L34 938L210 938L210 1088Q210 1172 230 1233.50Q250 1295 285.50 1335Q321 1375 370 1394.50Q419 1414 478 1414Q507 1414 538 1408.50Q569 1403 590 1392L588 1384Q586 1378 581 1378Q571 1378 547.50 1386Q524 1394 478 1394Q426 1394 381.50 1377.50Q337 1361 304 1324.50Q271 1288 252.50 1229.50Q234 1171 234 1088L234 938L584 938L584 918L234 918L234 0L210 0Z"  horiz-adv-x="618" vert-adv-y="2000"  />

      
      <glyph glyph-name="uni67" unicode="&#x67;" d="M490 996Q555 996 608.50 979Q662 962 704 932L942 932L942 928Q942 922 937 918Q932 914 926 914L730 910Q775 868 798.50 811Q822 754 822 684Q822 614 798.50 556.50Q775 499 731.50 458Q688 417 627 394.50Q566 372 490 372Q392 372 318 409Q293 395 272 377Q251 359 236 339Q221 319 212.50 298Q204 277 204 258Q204 208 235 181.50Q266 155 317 142Q368 129 433 125.50Q498 122 566 119Q634 116 699 109Q764 102 815 81.50Q866 61 897 23.50Q928-14 928-78Q928-137 897.50-190.50Q867-244 811.50-285.50Q756-327 677.50-351.50Q599-376 502-376Q403-376 327-355Q251-334 199-298Q147-262 120.50-214Q94-166 94-112Q94-28 151 32.50Q208 93 305 126Q249 140 215.50 170.50Q182 201 182 258Q182 278 190.50 300Q199 322 214 343.50Q229 365 250.50 384.50Q272 404 299 419Q231 459 194.50 527Q158 595 158 684Q158 753 181 810.50Q204 868 247.50 909Q291 950 352 973Q413 996 490 996M906-78Q906-22 878.50 11.50Q851 45 805 63.50Q759 82 700 89Q641 96 577 99.50Q513 103 450 106Q387 109 334 119Q287 102 247 80Q207 58 178.50 29Q150 0 134-35Q118-70 118-112Q118-163 145-207.50Q172-252 221.50-285Q271-318 342-337Q413-356 502-356Q581-356 654-335.50Q727-315 783-278.50Q839-242 872.50-191Q906-140 906-78M490 392Q563 392 620 413Q677 434 716.50 472.50Q756 511 777 565Q798 619 798 684Q798 749 776.50 803Q755 857 715 895.50Q675 934 618 955Q561 976 490 976Q419 976 362 955Q305 934 265 895.50Q225 857 203.50 803Q182 749 182 684Q182 619 203.50 565Q225 511 265 472.50Q305 434 362 413Q419 392 490 392Z"  horiz-adv-x="996" vert-adv-y="2000"  />

      
      <glyph glyph-name="uni68" unicode="&#x68;" d="M176 0L176 1440L200 1440L200 776Q234 826 276.50 866.50Q319 907 368 936Q417 965 471 980.50Q525 996 582 996Q745 996 825.50 899Q906 802 906 628L906 0L882 0L882 628Q882 710 864 774.50Q846 839 808.50 884Q771 929 714.50 952.50Q658 976 582 976Q467 976 370 914.50Q273 853 200 745L200 0L176 0Z"  horiz-adv-x="1056" vert-adv-y="2000"  />

      
      <glyph glyph-name="uni69" unicode="&#x69;" d="M234 980L234 0L210 0L210 980L234 980M278 1344Q278 1323 260.50 1306.50Q243 1290 222 1290Q199 1290 182.50 1306.50Q166 1323 166 1344Q166 1367 182.50 1383.50Q199 1400 222 1400Q243 1400 260.50 1383.50Q278 1367 278 1344Z"  horiz-adv-x="444" vert-adv-y="2000"  />

      
      <glyph glyph-name="uni6a" unicode="&#x6a;" d="M234 980L234-172Q234-216 220-253Q206-290 180.50-317Q155-344 119-359Q83-374 38-374Q11-374-8.50-368.50Q-28-363-46-352L-42-344Q-38-336-33-336Q-25-336-8.50-345Q8-354 38-354Q123-354 166.50-303.50Q210-253 210-172L210 980L234 980M278 1344Q278 1323 260.50 1306.50Q243 1290 222 1290Q199 1290 182.50 1306.50Q166 1323 166 1344Q166 1367 182.50 1383.50Q199 1400 222 1400Q243 1400 260.50 1383.50Q278 1367 278 1344Z"  horiz-adv-x="440" vert-adv-y="2000"  />

      
      <glyph glyph-name="uni6b" unicode="&#x6b;" d="M214 1440L214 536L260 536Q269 536 281 538Q293 540 308 554L774 964Q782 972 790 976Q798 980 810 980L828 980L332 546Q319 534 307 529Q321 525 331 518.50Q341 512 350 504L868 0L850 0Q842 0 836 2Q830 4 822 12L330 490Q322 498 314.50 503.50Q307 509 298.50 512Q290 515 279.50 516.50Q269 518 254 518L214 518L214 0L190 0L190 1440L214 1440Z"  horiz-adv-x="928" vert-adv-y="2000"  />

      
      <glyph glyph-name="uni6c" unicode="&#x6c;" d="M234 1440L234 0L210 0L210 1440L234 1440Z"  horiz-adv-x="444" vert-adv-y="2000"  />

      
      <glyph glyph-name="uni6d" unicode="&#x6d;" d="M176 0L176 980L182 980Q196 980 196 964L199 779Q256 878 338 937Q420 996 516 996Q634 996 700.50 923Q767 850 783 715Q795 786 824.50 839Q854 892 896 927Q938 962 989.50 979Q1041 996 1096 996Q1165 996 1221 972Q1277 948 1316 901.50Q1355 855 1376.50 786Q1398 717 1398 628L1398 0L1374 0L1374 628Q1374 797 1301.50 886.50Q1229 976 1096 976Q1037 976 982.50 954Q928 932 886 888.50Q844 845 819 780Q794 715 794 628L794 0L770 0L770 628Q770 710 753.50 774.50Q737 839 704.50 884Q672 929 624 952.50Q576 976 514 976Q419 976 339.50 915.50Q260 855 200 748L200 0L176 0Z"  horiz-adv-x="1548" vert-adv-y="2000"  />

      
      <glyph glyph-name="uni6e" unicode="&#x6e;" d="M176 0L176 980L182 980Q196 980 196 964L199 775Q233 825 275.50 866Q318 907 367 936Q416 965 470 980.50Q524 996 582 996Q745 996 825.50 899Q906 802 906 628L906 0L882 0L882 628Q882 710 864 774.50Q846 839 808.50 884Q771 929 714.50 952.50Q658 976 582 976Q467 976 370 914.50Q273 853 200 745L200 0L176 0Z"  horiz-adv-x="1056" vert-adv-y="2000"  />

      
      <glyph glyph-name="uni6f" unicode="&#x6f;" d="M528 996Q631 996 711 959.50Q791 923 845.50 857Q900 791 928 697.50Q956 604 956 490Q956 376 928 283.50Q900 191 845.50 125Q791 59 711 23.50Q631-12 528-12Q424-12 344.50 23.50Q265 59 210.50 125Q156 191 128 283.50Q100 376 100 490Q100 604 128 697.50Q156 791 210.50 857Q265 923 344.50 959.50Q424 996 528 996M528 8Q628 8 704 43Q780 78 830.50 141Q881 204 906.50 293Q932 382 932 490Q932 598 906.50 687.50Q881 777 830.50 841Q780 905 704 940.50Q628 976 528 976Q427 976 351.50 940.50Q276 905 225.50 841Q175 777 149.50 687.50Q124 598 124 490Q124 382 149.50 293Q175 204 225.50 141Q276 78 351.50 43Q427 8 528 8Z"  horiz-adv-x="1056" vert-adv-y="2000"  />

      
      <glyph glyph-name="uni70" unicode="&#x70;" d="M176-360L176 980L182 980Q196 980 196 964L199 778Q265 879 358.50 937.50Q452 996 564 996Q754 996 855 873.50Q956 751 956 496Q956 389 928.50 296.50Q901 204 847 135.50Q793 67 712.50 27.50Q632-12 526-12Q310-12 200 163L200-360L176-360M564 976Q455 976 361.50 915Q268 854 200 746L200 195Q264 92 343 50Q422 8 526 8Q629 8 705 45.50Q781 83 831.50 149Q882 215 907 304Q932 393 932 496Q932 740 838.50 858Q745 976 564 976Z"  horiz-adv-x="1042" vert-adv-y="2000"  />

      
      <glyph glyph-name="uni71" unicode="&#x71;" d="M880 980L880-360L856-360L856 205Q790 105 696.50 46.50Q603-12 492-12Q301-12 200.50 110.50Q100 233 100 488Q100 594 127 687Q154 780 208 848.50Q262 917 342.50 956.50Q423 996 530 996Q638 996 719 953Q800 910 856 820L860 964Q860 980 874 980L880 980M492 8Q601 8 694.50 69Q788 130 856 237L856 789Q796 888 715 932Q634 976 530 976Q427 976 351 938.50Q275 901 224.50 835Q174 769 149 680Q124 591 124 488Q124 244 217.50 126Q311 8 492 8Z"  horiz-adv-x="1070" vert-adv-y="2000"  />

      
      <glyph glyph-name="uni72" unicode="&#x72;" d="M176 0L176 980L182 980Q196 980 196 964L199 692Q220 765 251 821.50Q282 878 324 917Q366 956 419.50 976Q473 996 540 996Q588 996 629 986Q670 976 708 958L704 950Q702 947 700.50 944.50Q699 942 694 942Q689 942 677.50 947Q666 952 647.50 958Q629 964 602.50 969Q576 974 540 974Q409 974 328 888Q247 802 200 644L200 0L176 0Z"  horiz-adv-x="784" vert-adv-y="2000"  />

      
      <glyph glyph-name="uni73" unicode="&#x73;" d="M696 894Q692 888 686 888Q678 888 662.50 901.50Q647 915 617.50 931.50Q588 948 543 962Q498 976 432 976Q370 976 318.50 957Q267 938 230 906.50Q193 875 172.50 834Q152 793 152 748Q152 695 177 659.50Q202 624 242.50 599.50Q283 575 335 558Q387 541 441 524.50Q495 508 547 489.50Q599 471 639.50 443Q680 415 705 374.50Q730 334 730 274Q730 214 708.50 161Q687 108 646 69Q605 30 545.50 7Q486-16 410-16Q357-16 315.50-7.50Q274 1 238.50 16Q203 31 172.50 53Q142 75 112 102L118 108Q121 111 123 112.50Q125 114 130 114Q138 114 156 97Q174 80 206.50 59Q239 38 288.50 21Q338 4 410 4Q482 4 537.50 25Q593 46 631 82.50Q669 119 688.50 167.50Q708 216 708 272Q708 329 683 366.50Q658 404 617.50 430Q577 456 525 473.50Q473 491 419 507Q365 523 313 541Q261 559 220.50 585.50Q180 612 155 651Q130 690 130 748Q130 797 152 841.50Q174 886 214 920.50Q254 955 309.50 975.50Q365 996 432 996Q515 996 578 973.50Q641 951 700 900L696 894Z"  horiz-adv-x="854" vert-adv-y="2000"  />

      
      <glyph glyph-name="uni74" unicode="&#x74;" d="M418-16Q332-16 283 31Q234 78 234 186L234 918L72 918Q58 918 58 928L58 934L234 938L242 1332Q242 1337 244.50 1341.50Q247 1346 252 1346L258 1346L258 938L592 938L592 918L258 918L258 186Q258 136 270.50 101.50Q283 67 305 45.50Q327 24 356 14Q385 4 418 4Q460 4 491.50 17Q523 30 545 45Q567 60 580.50 73Q594 86 600 86Q604 86 608 82L612 78Q597 58 575.50 40.50Q554 23 528.50 10.50Q503-2 474.50-9Q446-16 418-16Z"  horiz-adv-x="684" vert-adv-y="2000"  />

      
      <glyph glyph-name="uni75" unicode="&#x75;" d="M174 980L174 352Q174 270 192 205.50Q210 141 247.50 96Q285 51 341 27.50Q397 4 474 4Q589 4 685.50 65Q782 126 856 234L856 980L880 980L880 0L874 0Q860 0 860 16L856 204Q821 154 779 113Q737 72 688 43.50Q639 15 585-0.50Q531-16 474-16Q310-16 230 81Q150 178 150 352L150 980L174 980Z"  horiz-adv-x="1056" vert-adv-y="2000"  />

      
      <glyph glyph-name="uni76" unicode="&#x76;" d="M30 980L44 980Q52 980 56 975.50Q60 971 62 966L452 68Q456 59 459.50 50Q463 41 465 31Q467 41 470.50 50Q474 59 478 68L868 966Q875 980 886 980L900 980L474 0L456 0L30 980Z"  horiz-adv-x="930" vert-adv-y="2000"  />

      
      <glyph glyph-name="uni77" unicode="&#x77;" d="M30 980L44 980Q52 980 56 975.50Q60 971 62 966L362 68Q366 57 369.50 47Q373 37 375 26Q377 37 380.50 47Q384 57 388 68L700 976Q703 986 710 986L716 986Q723 986 726 976L1036 68Q1040 57 1043.50 46Q1047 35 1049 27Q1054 46 1062 68L1362 966Q1369 980 1380 980L1394 980L1058 0L1048 0Q1039 0 1036 10L722 922Q716 938 713 950Q711 943 708.50 936.50Q706 930 704 922L386 10Q383 0 376 0L366 0L30 980Z"  horiz-adv-x="1424" vert-adv-y="2000"  />

      
      <glyph glyph-name="uni78" unicode="&#x78;" d="M406 498L54 980L76 980Q84 980 88 974.50Q92 969 94 966L423 511Q425 515 427 518Q429 521 432 526L752 966Q755 971 759.50 975.50Q764 980 770 980L792 980L439 501L806 0L784 0Q776 0 772 5.50Q768 11 766 14L422 488Q421 483 414 474L80 14Q76 9 72 4.50Q68 0 62 0L40 0L406 498Z"  horiz-adv-x="846" vert-adv-y="2000"  />

      
      <glyph glyph-name="uni79" unicode="&#x79;" d="M324-338Q321-346 315-353Q309-360 300-360L286-360L454 17L30 980L44 980Q52 980 57 975.50Q62 971 64 966L454 76Q458 67 461.50 58Q465 49 467 39Q469 49 472.50 58Q476 67 480 76L870 966Q877 980 888 980L902 980L324-338Z"  horiz-adv-x="930" vert-adv-y="2000"  />

      
      <glyph glyph-name="uni7a" unicode="&#x7a;" d="M804 970Q804 967 802.50 965Q801 963 798 958L112 20L774 20L774 0L78 0L78 6Q78 11 79.50 13Q81 15 84 20L771 960L112 960L112 980L804 980L804 970Z"  horiz-adv-x="888" vert-adv-y="2000"  />

      
      <glyph glyph-name="uni7b" unicode="&#x7b;" d="M252 462Q252 496 239 525Q226 554 203 575Q180 596 148.50 608Q117 620 80 620L80 640Q117 640 148.50 651.50Q180 663 203 684Q226 705 239 734Q252 763 252 798Q252 856 241.50 911Q231 966 218 1020Q205 1074 194.50 1129.50Q184 1185 184 1244Q184 1298 201.50 1345Q219 1392 250.50 1427Q282 1462 326.50 1482Q371 1502 424 1502L480 1502L480 1494Q480 1484 468 1484L424 1484Q377 1484 337.50 1467Q298 1450 268.50 1418.50Q239 1387 222.50 1343Q206 1299 206 1244Q206 1187 216.50 1131.50Q227 1076 240 1020.50Q253 965 263.50 909.50Q274 854 274 798Q274 760 260.50 730.50Q247 701 226 680Q205 659 179 646.50Q153 634 128 630Q153 625 179 612.50Q205 600 226 579Q247 558 260.50 529Q274 500 274 462Q274 406 263.50 350.50Q253 295 240 239.50Q227 184 216.50 128.50Q206 73 206 16Q206-39 222.50-83Q239-127 268.50-158.50Q298-190 337.50-207Q377-224 424-224L468-224Q480-224 480-234L480-242L424-242Q371-242 326.50-222Q282-202 250.50-167Q219-132 201.50-85Q184-38 184 16Q184 75 194.50 130.50Q205 186 218 240Q231 294 241.50 348.50Q252 403 252 462Z"  horiz-adv-x="600" vert-adv-y="2000"  />

      
      <glyph glyph-name="uni7c" unicode="&#x7c;" d="M290 1502L310 1502L310-360L290-360L290 1502Z"  horiz-adv-x="600" vert-adv-y="2000"  />

      
      <glyph glyph-name="uni7d" unicode="&#x7d;" d="M348 462Q348 403 358.50 348.50Q369 294 382 240Q395 186 405.50 130.50Q416 75 416 16Q416-38 398.50-85Q381-132 349.50-167Q318-202 273.50-222Q229-242 176-242L120-242L120-234Q120-224 132-224L176-224Q222-224 262-207Q302-190 331.50-158.50Q361-127 377.50-83Q394-39 394 16Q394 73 383.50 128.50Q373 184 360 239.50Q347 295 336.50 350.50Q326 406 326 462Q326 500 339.50 529Q353 558 374 579Q395 600 421 612.50Q447 625 471 630Q447 634 421 646.50Q395 659 374 680Q353 701 339.50 730.50Q326 760 326 798Q326 854 336.50 909.50Q347 965 360 1020.50Q373 1076 383.50 1131.50Q394 1187 394 1244Q394 1299 377.50 1343Q361 1387 331.50 1418.50Q302 1450 262 1467Q222 1484 176 1484L132 1484Q120 1484 120 1494L120 1502L176 1502Q229 1502 273.50 1482Q318 1462 349.50 1427Q381 1392 398.50 1345Q416 1298 416 1244Q416 1185 405.50 1129.50Q395 1074 382 1020Q369 966 358.50 911Q348 856 348 798Q348 763 361 734Q374 705 397 684Q420 663 451.50 651.50Q483 640 520 640L520 620Q483 620 451.50 608Q420 596 397 575Q374 554 361 525Q348 496 348 462Z"  horiz-adv-x="600" vert-adv-y="2000"  />

      
      <glyph glyph-name="uni7e" unicode="&#x7e;" d="M796 528Q838 528 871.50 543.50Q905 559 929 586Q953 613 966 649.50Q979 686 980 728L1000 728Q1000 684 986.50 644.50Q973 605 947 574.50Q921 544 883 526Q845 508 796 508Q745 508 689 530.50Q633 553 577 580Q521 607 466.50 629.50Q412 652 364 652Q322 652 288.50 636.50Q255 621 231 594Q207 567 194 530.50Q181 494 180 452L160 452Q160 495 173.50 535Q187 575 213 605.50Q239 636 277 654Q315 672 364 672Q415 672 471 649.50Q527 627 583 600Q639 573 693.50 550.50Q748 528 796 528Z"  horiz-adv-x="1160" vert-adv-y="2000"  />

      
      <glyph glyph-name="unia1" unicode="&#xa1;" d="M294-360L294 198Q294 242 294.50 280.50Q295 319 295.50 359Q296 399 297 445Q298 491 300 550L316 550Q317 491 318.50 445Q320 399 320.50 359Q321 319 321.50 280.50Q322 242 322 198L322-360L294-360M240 932Q240 959 258.50 977.50Q277 996 304 996Q331 996 350.50 977.50Q370 959 370 932Q370 905 350.50 885.50Q331 866 304 866Q277 866 258.50 885.50Q240 905 240 932Z"  horiz-adv-x="610" vert-adv-y="2000"  />

      
      <glyph glyph-name="unia2" unicode="&#xa2;" d="M612-11Q512-8 431.50 27Q351 62 294 126Q237 190 206.50 282Q176 374 176 490Q176 604 208 697.50Q240 791 300 857Q360 923 447.50 959.50Q535 996 646 996L654 1226Q654 1242 666 1242L676 1242L667 995Q758 992 828.50 964Q899 936 950 894L944 888Q940 884 936 884Q930 884 913 897.50Q896 911 864 927.50Q832 944 783.50 959Q735 974 667 976L634 8Q718 9 777 27Q836 45 873.50 66.50Q911 88 930.50 106Q950 124 956 124Q960 124 964 120L968 116Q952 94 921 71.50Q890 49 847 31Q804 13 750 1Q696-11 634-12L626-252Q626-268 614-268L604-268L612-11M200 490Q200 377 229.50 288.50Q259 200 313 138.50Q367 77 443 44Q519 11 613 8L645 976Q540 976 457.50 942Q375 908 318 845Q261 782 230.50 692Q200 602 200 490Z"  horiz-adv-x="1160" vert-adv-y="2000"  />

      
      <glyph glyph-name="unia3" unicode="&#xa3;" d="M80 656Q80 662 84.50 665Q89 668 94 668L286 668L286 990Q286 1082 311 1160Q336 1238 385 1294.50Q434 1351 507 1382.50Q580 1414 676 1414Q750 1414 806 1396Q862 1378 903 1348Q944 1318 972 1277.50Q1000 1237 1020 1192L1012 1190Q1010 1189 1009 1189L1005 1189Q999 1189 992 1200Q972 1236 947.50 1271Q923 1306 887 1333Q851 1360 800 1377Q749 1394 676 1394Q586 1394 517.50 1364Q449 1334 403 1280.50Q357 1227 333.50 1152.50Q310 1078 310 990L310 668L822 668L822 658Q822 653 818.50 650.50Q815 648 810 648L310 648L310 290Q310 238 298 196.50Q286 155 264 122Q242 89 211 63.50Q180 38 141 19Q161 21 177.50 21.50Q194 22 214 22L1096 22L1096 12Q1096 7 1092 3.50Q1088 0 1082 0L106 0L106 22Q141 38 173.50 60Q206 82 231 114Q256 146 271 189Q286 232 286 290L286 648L80 648L80 656Z"  horiz-adv-x="1160" vert-adv-y="2000"  />

      
      <glyph glyph-name="unia4" unicode="&#xa4;" d="M250 670Q250 736 273.50 794Q297 852 339 897L182 1054L196 1068L353 911Q398 953 456 977.50Q514 1002 580 1002Q646 1002 704.50 978Q763 954 808 912L964 1068L978 1054L822 898Q864 853 888 794.50Q912 736 912 670Q912 604 887.50 546Q863 488 821 443L978 286L964 272L807 429Q762 387 704 363.50Q646 340 580 340Q514 340 456.50 364Q399 388 354 430L196 272L182 286L340 444Q298 489 274 546.50Q250 604 250 670M270 670Q270 606 294.50 549.50Q319 493 361 451Q403 409 459.50 384.50Q516 360 580 360Q644 360 701 384.50Q758 409 800.50 451Q843 493 867.50 549.50Q892 606 892 670Q892 734 867.50 791Q843 848 800.50 890.50Q758 933 701 957.50Q644 982 580 982Q516 982 459.50 957.50Q403 933 361 890.50Q319 848 294.50 791Q270 734 270 670Z"  horiz-adv-x="1160" vert-adv-y="2000"  />

      
      <glyph glyph-name="unia5" unicode="&#xa5;" d="M174 608L555 608L120 1400L140 1400Q149 1400 154 1392L560 642Q565 634 568 627.50Q571 621 574 613Q577 621 580 627.50Q583 634 588 642L994 1392Q999 1400 1008 1400L1028 1400L593 608L974 608L974 588L586 588L586 460L974 460L974 440L586 440L586 0L562 0L562 440L174 440L174 460L562 460L562 588L174 588L174 608Z"  horiz-adv-x="1160" vert-adv-y="2000"  />

      
      <glyph glyph-name="unia6" unicode="&#xa6;" d="M290 1502L310 1502L310 740L290 740L290 1502M290 402L310 402L310-360L290-360L290 402Z"  horiz-adv-x="600" vert-adv-y="2000"  />

      
      <glyph glyph-name="unia7" unicode="&#xa7;" d="M536 1416Q619 1416 682 1393.50Q745 1371 802 1318L799 1313Q795 1308 790 1308Q782 1308 766.50 1321.50Q751 1335 721.50 1351.50Q692 1368 647 1382Q602 1396 536 1396Q474 1396 422.50 1377Q371 1358 334 1326.50Q297 1295 276.50 1254Q256 1213 256 1168Q256 1115 281.50 1076Q307 1037 349 1006.50Q391 976 444 951.50Q497 927 553 902.50Q609 878 662 850.50Q715 823 757 787.50Q799 752 824.50 705.50Q850 659 850 596Q850 511 806 451.50Q762 392 687 356Q741 318 775.50 270Q810 222 810 154Q810 94 788.50 41Q767-12 726-51Q685-90 625.50-113Q566-136 490-136Q437-136 395.50-127.50Q354-119 318.50-104Q283-89 252.50-67Q222-45 192-18L198-12Q201-9 203-7.50Q205-6 210-6Q218-6 236-23Q254-40 286.50-61Q319-82 368.50-99Q418-116 490-116Q562-116 617.50-95Q673-74 711-37.50Q749-1 768.50 47.50Q788 96 788 152Q788 209 761 251Q734 293 690 326Q646 359 589.50 385.50Q533 412 474 437Q415 462 358.50 489Q302 516 258 549.50Q214 583 187 626.50Q160 670 160 728Q160 764 171 798Q182 832 206 862.50Q230 893 269 919.50Q308 946 365 967Q336 985 312 1005Q288 1025 271 1049.50Q254 1074 244 1103.50Q234 1133 234 1168Q234 1217 256 1261.50Q278 1306 318 1340.50Q358 1375 413.50 1395.50Q469 1416 536 1416M182 728Q182 679 205 641.50Q228 604 266.50 573.50Q305 543 355.50 518Q406 493 460 469.50Q514 446 568 421.50Q622 397 668 368Q753 407 790.50 464Q828 521 828 594Q828 648 807.50 689Q787 730 752 762Q717 794 672 818.50Q627 843 577.50 865.50Q528 888 478 909.50Q428 931 384 956Q273 912 227.50 855.50Q182 799 182 728Z"  horiz-adv-x="998" vert-adv-y="2000"  />

      
      <glyph glyph-name="unia8" unicode="&#xa8;" d="M172 1280Q172 1259 154.50 1242.50Q137 1226 116 1226Q93 1226 76.50 1242.50Q60 1259 60 1280Q60 1303 76.50 1319.50Q93 1336 116 1336Q137 1336 154.50 1319.50Q172 1303 172 1280M500 1280Q500 1259 482.50 1242.50Q465 1226 444 1226Q421 1226 404.50 1242.50Q388 1259 388 1280Q388 1303 404.50 1319.50Q421 1336 444 1336Q465 1336 482.50 1319.50Q500 1303 500 1280Z"  horiz-adv-x="560" vert-adv-y="2000"  />

      
      <glyph glyph-name="unia9" unicode="&#xa9;" d="M1136 384Q1138 386 1142 386Q1146 386 1152 380L1156 376Q1126 350 1092.50 328Q1059 306 1018.50 290Q978 274 930 265Q882 256 824 256Q729 256 649.50 287Q570 318 512.50 375.50Q455 433 422.50 515Q390 597 390 700Q390 800 422.50 882Q455 964 514 1022.50Q573 1081 655.50 1113.50Q738 1146 838 1146Q889 1146 930 1139.50Q971 1133 1006.50 1120.50Q1042 1108 1074 1088.50Q1106 1069 1138 1044L1134 1038Q1131 1034 1126 1034Q1118 1034 1101 1048.50Q1084 1063 1051 1080Q1018 1097 966.50 1111.50Q915 1126 838 1126Q744 1126 666 1096.50Q588 1067 532 1011.50Q476 956 445 877Q414 798 414 700Q414 600 445 521.50Q476 443 530.50 388.50Q585 334 660 305Q735 276 824 276Q881 276 925.50 283Q970 290 1006.50 303.50Q1043 317 1074 337.50Q1105 358 1136 384M100 700Q100 848 156 978Q212 1108 309 1205Q406 1302 536 1358Q666 1414 814 1414Q962 1414 1092 1358Q1222 1302 1319 1205Q1416 1108 1472 978Q1528 848 1528 700Q1528 552 1472 422Q1416 292 1319 195Q1222 98 1092 42Q962-14 814-14Q666-14 536 42Q406 98 309 195Q212 292 156 422Q100 552 100 700M124 700Q124 557 178 431Q232 305 325.50 211.50Q419 118 545 64Q671 10 814 10Q910 10 998 34.50Q1086 59 1163 104Q1240 149 1303 212Q1366 275 1411.50 351.50Q1457 428 1481.50 516Q1506 604 1506 700Q1506 795 1481.50 883.50Q1457 972 1411.50 1049Q1366 1126 1303 1189Q1240 1252 1163 1297.50Q1086 1343 997.50 1367.50Q909 1392 814 1392Q718 1392 630 1367.50Q542 1343 465.50 1297.50Q389 1252 326 1189Q263 1126 218 1049Q173 972 148.50 883.50Q124 795 124 700Z"  horiz-adv-x="1628" vert-adv-y="2000"  />

      
      <glyph glyph-name="uniaa" unicode="&#xaa;" d="M530 838Q522 838 520 848L516 936Q464 885 409 856.50Q354 828 276 828Q247 828 219 836Q191 844 168.50 861Q146 878 132 905Q118 932 118 970Q118 1008 141 1039.50Q164 1071 213 1094Q262 1117 337 1130.50Q412 1144 516 1146L516 1210L538 1210L538 838L530 838M278 848Q319 848 352.50 857Q386 866 414.50 881.50Q443 897 468 917.50Q493 938 516 960L516 1126Q324 1120 232 1080.50Q140 1041 140 972Q140 939 152 915.50Q164 892 183.50 877Q203 862 227.50 855Q252 848 278 848M516 1210Q516 1298 477 1345Q438 1392 352 1392Q305 1392 272 1379.50Q239 1367 217 1352Q195 1337 182.50 1324.50Q170 1312 164 1312Q160 1312 156 1316L152 1322Q196 1367 243 1389.50Q290 1412 352 1412Q447 1412 492.50 1358.50Q538 1305 538 1210L516 1210Z"  horiz-adv-x="660" vert-adv-y="2000"  />

      
      <glyph glyph-name="uniab" unicode="&#xab;" d="M170 508L170 512L404 882L410 878Q416 873 416 866Q416 861 412 854L208 532Q194 512 190 510Q196 506 208 488L412 166Q416 159 416 154Q416 146 410 142L404 138L170 508M390 508L390 512L624 882L630 878Q636 873 636 866Q636 861 632 854L428 532Q414 512 410 510Q416 506 428 488L632 166Q636 159 636 154Q636 146 630 142L624 138L390 508Z"  horiz-adv-x="828" vert-adv-y="2000"  />

      
      <glyph glyph-name="uniac" unicode="&#xac;" d="M178 680L980 680L980 360L958 360L958 660L178 660L178 680Z"  horiz-adv-x="1160" vert-adv-y="2000"  />

      
      <glyph glyph-name="uniad" unicode="&#xad;" d="M100 598L540 598L540 578L100 578L100 598Z"  horiz-adv-x="640" vert-adv-y="2000"  />

      
      <glyph glyph-name="uniae" unicode="&#xae;" d="M100 700Q100 848 156 978Q212 1108 309 1205Q406 1302 536 1358Q666 1414 814 1414Q962 1414 1092 1358Q1222 1302 1319 1205Q1416 1108 1472 978Q1528 848 1528 700Q1528 552 1472 422Q1416 292 1319 195Q1222 98 1092 42Q962-14 814-14Q666-14 536 42Q406 98 309 195Q212 292 156 422Q100 552 100 700M124 700Q124 557 178 431Q232 305 325.50 211.50Q419 118 545 64Q671 10 814 10Q910 10 998 34.50Q1086 59 1163 104Q1240 149 1303 212Q1366 275 1411.50 351.50Q1457 428 1481.50 516Q1506 604 1506 700Q1506 795 1481.50 883.50Q1457 972 1411.50 1049Q1366 1126 1303 1189Q1240 1252 1163 1297.50Q1086 1343 997.50 1367.50Q909 1392 814 1392Q718 1392 630 1367.50Q542 1343 465.50 1297.50Q389 1252 326 1189Q263 1126 218 1049Q173 972 148.50 883.50Q124 795 124 700M598 684L598 260L574 260L574 1140L786 1140Q923 1140 997.50 1086.50Q1072 1033 1072 920Q1072 867 1052 824.50Q1032 782 995 751.50Q958 721 907 704Q856 687 794 684Q803 680 810.50 673.50Q818 667 826 658L1160 260L1140 260Q1135 260 1132 261Q1129 262 1124 268L794 662Q786 671 774.50 677.50Q763 684 734 684L598 684M598 704L774 704Q904 704 976 760Q1048 816 1048 920Q1048 1026 982.50 1073Q917 1120 786 1120L598 1120L598 704Z"  horiz-adv-x="1628" vert-adv-y="2000"  />

      
      <glyph glyph-name="uniaf" unicode="&#xaf;" d="M20 1290L540 1290L540 1270L20 1270L20 1290Z"  horiz-adv-x="560" vert-adv-y="2000"  />

      
      <glyph glyph-name="unib0" unicode="&#xb0;" d="M108 1140Q108 1198 130 1248Q152 1298 189.50 1335.50Q227 1373 278 1394.50Q329 1416 388 1416Q446 1416 497.50 1394.50Q549 1373 586.50 1335.50Q624 1298 646 1248Q668 1198 668 1140Q668 1082 646 1031.50Q624 981 586.50 943.50Q549 906 497.50 884Q446 862 388 862Q329 862 278 884Q227 906 189.50 943.50Q152 981 130 1031.50Q108 1082 108 1140M132 1140Q132 1087 152 1040Q172 993 206.50 958.50Q241 924 288 904Q335 884 388 884Q441 884 488 904Q535 924 569.50 958.50Q604 993 624 1040Q644 1087 644 1140Q644 1193 624 1240Q604 1287 569.50 1321.50Q535 1356 488 1376Q441 1396 388 1396Q335 1396 288 1376Q241 1356 206.50 1321.50Q172 1287 152 1240Q132 1193 132 1140Z"  horiz-adv-x="778" vert-adv-y="2000"  />

      
      <glyph glyph-name="unib1" unicode="&#xb1;" d="M588 1110L588 680L1040 680L1040 660L588 660L588 228L568 228L568 660L118 660L118 680L568 680L568 1110L588 1110M118 100L1040 100L1040 80L118 80L118 100Z"  horiz-adv-x="1160" vert-adv-y="2000"  />

      
      <glyph glyph-name="unib2" unicode="&#xb2;" d="M340 1610Q377 1610 412.50 1599Q448 1588 475.50 1565.50Q503 1543 519.50 1508Q536 1473 536 1424Q536 1384 523.50 1350Q511 1316 489.50 1284.50Q468 1253 440 1223Q412 1193 382 1162L140 916Q163 920 202 920L546 920Q554 920 554 912L554 900L112 900L112 908Q112 914 118 920L366 1172Q397 1203 424 1232.50Q451 1262 471 1292Q491 1322 502.50 1354.50Q514 1387 514 1424Q514 1467 499 1498.50Q484 1530 460 1550.50Q436 1571 404.50 1580.50Q373 1590 340 1590Q265 1590 217 1546.50Q169 1503 154 1434Q151 1424 140 1424L130 1426Q136 1469 154 1503Q172 1537 199 1561Q226 1585 262 1597.50Q298 1610 340 1610Z"  horiz-adv-x="660" vert-adv-y="2000"  />

      
      <glyph glyph-name="unib3" unicode="&#xb3;" d="M344 1610Q381 1610 416 1599.50Q451 1589 477.50 1567.50Q504 1546 520 1513Q536 1480 536 1434Q536 1399 523.50 1370Q511 1341 490.50 1319Q470 1297 442.50 1283Q415 1269 385 1263Q468 1253 512 1205.50Q556 1158 556 1088Q556 1047 539.50 1011.50Q523 976 493 949.50Q463 923 422.50 907.50Q382 892 334 892Q272 892 232 909.50Q192 927 167.50 953Q143 979 130 1010Q117 1041 110 1068L118 1072Q122 1074 125 1074Q132 1074 134 1069Q136 1064 138 1057Q141 1045 150.50 1020.50Q160 996 181.50 971.50Q203 947 239.50 928.50Q276 910 334 910Q383 910 420.50 926.50Q458 943 482.50 968.50Q507 994 519.50 1025.50Q532 1057 532 1086Q532 1121 520 1151.50Q508 1182 482.50 1204.50Q457 1227 415.50 1239.50Q374 1252 316 1252L316 1268Q410 1271 462 1315.50Q514 1360 514 1432Q514 1473 500 1503Q486 1533 462 1552.50Q438 1572 407.50 1581Q377 1590 344 1590Q304 1590 272.50 1577.50Q241 1565 217.50 1544Q194 1523 179 1494.50Q164 1466 158 1434Q156 1424 148 1424Q145 1425 142 1425Q136 1425 134 1426Q140 1469 158 1503Q176 1537 203 1561Q230 1585 266 1597.50Q302 1610 344 1610Z"  horiz-adv-x="660" vert-adv-y="2000"  />

      
      <glyph glyph-name="unib4" unicode="&#xb4;" d="M448 1416L246 1166Q239 1158 230 1158L216 1158L380 1394Q389 1408 397 1412Q405 1416 422 1416L448 1416Z"  horiz-adv-x="560" vert-adv-y="2000"  />

      
      <glyph glyph-name="unib5" unicode="&#xb5;" d="M174 980L174 336Q174 260 192.50 199Q211 138 248.50 94.50Q286 51 342.50 27.50Q399 4 474 4Q589 4 685.50 65Q782 126 856 234L856 980L880 980L880 0L874 0Q861 0 856 16L856 204Q821 154 779 113Q737 72 688 43.50Q639 15 585-0.50Q531-16 474-16Q344-16 270 45.50Q196 107 171 220Q172 170 173 112.50Q174 55 174 10L174-360L162-360Q156-360 153-356.50Q150-353 150-348L150 980L174 980Z"  horiz-adv-x="1056" vert-adv-y="2000"  />

      
      <glyph glyph-name="unib6" unicode="&#xb6;" d="M1150 1378L920 1378L920-180L896-180L896 1378L524 1378L524-180L500-180L500 732Q397 732 316 758Q235 784 179 830Q123 876 93.50 939Q64 1002 64 1076Q64 1151 93.50 1211Q123 1271 179 1313Q235 1355 316 1377.50Q397 1400 500 1400L1150 1400L1150 1378Z"  horiz-adv-x="1200" vert-adv-y="2000"  />

      
      <glyph glyph-name="unib7" unicode="&#xb7;" d="M200 590Q200 616 217.50 634Q235 652 258 652Q284 652 302 634Q320 616 320 590Q320 567 302 549.50Q284 532 258 532Q235 532 217.50 549.50Q200 567 200 590Z"  horiz-adv-x="520" vert-adv-y="2000"  />

      
      <glyph glyph-name="unib8" unicode="&#xb8;" d="M146-296Q150-296 159-303Q168-310 184-318Q200-326 223.50-333Q247-340 282-340Q342-340 376-313.50Q410-287 410-240Q410-209 395-189Q380-169 354-156.50Q328-144 293-137.50Q258-131 218-126L258 0L276 0L241-109Q284-116 319-125Q354-134 379-149Q404-164 418-185.50Q432-207 432-238Q432-267 420.50-289Q409-311 388-326.50Q367-342 338.50-350Q310-358 276-358Q235-358 195-343.50Q155-329 132-306L136-302Q142-296 146-296Z"  horiz-adv-x="560" vert-adv-y="2000"  />

      
      <glyph glyph-name="unib9" unicode="&#xb9;" d="M200 918L368 918L368 1544L372 1577L196 1418Q193 1415 189 1415Q184 1415 181 1419L176 1428L376 1606L392 1606L392 918L554 918L554 900L200 900L200 918Z"  horiz-adv-x="660" vert-adv-y="2000"  />

      
      <glyph glyph-name="uniba" unicode="&#xba;" d="M368 1412Q432 1412 481.50 1391Q531 1370 565 1331.50Q599 1293 616.50 1239Q634 1185 634 1118Q634 1051 616.50 997Q599 943 565 905Q531 867 481.50 846.50Q432 826 368 826Q303 826 253.50 846.50Q204 867 169.50 905Q135 943 117.50 997Q100 1051 100 1118Q100 1185 117.50 1239Q135 1293 169.50 1331.50Q204 1370 253.50 1391Q303 1412 368 1412M368 842Q429 842 475 862Q521 882 552 918Q583 954 598.50 1005Q614 1056 614 1118Q614 1180 598.50 1231.50Q583 1283 552 1319.50Q521 1356 475 1376Q429 1396 368 1396Q306 1396 260 1376Q214 1356 182.50 1319.50Q151 1283 135.50 1231.50Q120 1180 120 1118Q120 1056 135.50 1005Q151 954 182.50 918Q214 882 260 862Q306 842 368 842Z"  horiz-adv-x="734" vert-adv-y="2000"  />

      
      <glyph glyph-name="unibb" unicode="&#xbb;" d="M434 512L434 508L200 138L194 142Q188 146 188 154Q188 159 192 166L396 488Q402 498 406.50 503Q411 508 414 510Q408 513 396 532L192 854Q188 861 188 866Q188 873 194 878L200 882L434 512M654 512L654 508L420 138L414 142Q408 146 408 154Q408 159 412 166L616 488Q622 498 626.50 503Q631 508 634 510Q628 513 616 532L412 854Q408 861 408 866Q408 873 414 878L420 882L654 512Z"  horiz-adv-x="828" vert-adv-y="2000"  />

      
      <glyph glyph-name="unibc" unicode="&#xbc;" d="M1242 230L1384 230L1384 220Q1384 212 1374 212L1242 212L1242 0L1220 0L1220 212L878 212Q867 212 866 218L864 228L1224 702L1242 702L1242 230M1220 646Q1220 651 1220 657Q1220 663 1221 669L890 230L1220 230L1220 646M186 716L354 716L354 1342L358 1375L182 1216Q179 1213 175 1213Q170 1213 167 1217L162 1226L362 1404L378 1404L378 716L540 716L540 698L186 698L186 716M385 12Q380 4 374.50 2Q369 0 363 0L353 0L1137 1388Q1143 1400 1157 1400L1169 1400L385 12Z"  horiz-adv-x="1424" vert-adv-y="2000"  />

      
      <glyph glyph-name="unibd" unicode="&#xbd;" d="M1126 710Q1163 710 1198.50 699Q1234 688 1261.50 665.50Q1289 643 1305.50 608Q1322 573 1322 524Q1322 484 1309.50 450Q1297 416 1275.50 384.50Q1254 353 1226 323Q1198 293 1168 262L926 16Q949 20 988 20L1332 20Q1340 20 1340 12L1340 0L898 0L898 8Q898 14 904 20L1152 272Q1183 303 1210 332.50Q1237 362 1257 392Q1277 422 1288.50 454.50Q1300 487 1300 524Q1300 567 1285 598.50Q1270 630 1246 650.50Q1222 671 1190.50 680.50Q1159 690 1126 690Q1051 690 1003 646.50Q955 603 940 534Q937 524 926 524L916 526Q922 569 940 603Q958 637 985 661Q1012 685 1048 697.50Q1084 710 1126 710M186 716L354 716L354 1342L358 1375L182 1216Q179 1213 175 1213Q170 1213 167 1217L162 1226L362 1404L378 1404L378 716L540 716L540 698L186 698L186 716M336 12Q331 4 325.50 2Q320 0 314 0L304 0L1088 1388Q1094 1400 1108 1400L1120 1400L336 12Z"  horiz-adv-x="1424" vert-adv-y="2000"  />

      
      <glyph glyph-name="unibe" unicode="&#xbe;" d="M1242 230L1384 230L1384 220Q1384 212 1374 212L1242 212L1242 0L1220 0L1220 212L878 212Q867 212 866 218L864 228L1224 702L1242 702L1242 230M1220 646Q1220 651 1220 657Q1220 663 1221 669L890 230L1220 230L1220 646M330 1408Q367 1408 402 1397.50Q437 1387 463.50 1365.50Q490 1344 506 1311Q522 1278 522 1232Q522 1197 509.50 1168Q497 1139 476.50 1117Q456 1095 428.50 1081Q401 1067 371 1061Q454 1051 498 1003.50Q542 956 542 886Q542 845 525.50 809.50Q509 774 479 747.50Q449 721 408.50 705.50Q368 690 320 690Q258 690 218 707.50Q178 725 153.50 751Q129 777 116 808Q103 839 96 866L104 870Q108 872 110 872Q118 872 120 866.50Q122 861 124 855Q127 843 136.50 818.50Q146 794 167.50 769.50Q189 745 225.50 726.50Q262 708 320 708Q369 708 406.50 724.50Q444 741 468.50 766.50Q493 792 505.50 823.50Q518 855 518 884Q518 919 506 949.50Q494 980 468.50 1002.50Q443 1025 401.50 1037.50Q360 1050 302 1050L302 1066Q396 1069 448 1113.50Q500 1158 500 1230Q500 1271 486 1301Q472 1331 448 1350.50Q424 1370 393.50 1379Q363 1388 330 1388Q255 1388 207 1344.50Q159 1301 144 1232Q141 1222 132 1222L120 1224Q126 1267 144 1301Q162 1335 189 1359Q216 1383 252 1395.50Q288 1408 330 1408M396 12Q391 4 385.50 2Q380 0 374 0L364 0L1148 1388Q1154 1400 1168 1400L1180 1400L396 12Z"  horiz-adv-x="1430" vert-adv-y="2000"  />

      
      <glyph glyph-name="unibf" unicode="&#xbf;" d="M662-234Q638-260 607.50-284Q577-308 539.50-327.50Q502-347 457-358.50Q412-370 360-370Q298-370 240.50-350.50Q183-331 138.50-294.50Q94-258 67-205.50Q40-153 40-86Q40-11 64.50 43Q89 97 126 136.50Q163 176 206.50 205Q250 234 287 260.50Q324 287 349.50 314.50Q375 342 376 378L382 550L398 550L398 376Q398 337 373.50 308Q349 279 311.50 252Q274 225 231 196.50Q188 168 150.50 129.50Q113 91 88.50 39Q64-13 64-86Q64-148 89-197Q114-246 155-280Q196-314 249.50-332Q303-350 360-350Q432-350 484.50-330Q537-310 571.50-286Q606-262 624.50-242Q643-222 649-222Q652-222 656-226L662-234M326 930Q326 957 344.50 976.50Q363 996 390 996Q417 996 436.50 976.50Q456 957 456 930Q456 903 436.50 884.50Q417 866 390 866Q363 866 344.50 884.50Q326 903 326 930Z"  horiz-adv-x="694" vert-adv-y="2000"  />

      
      <glyph glyph-name="unic0" unicode="&#xc0;" d="M414 1760Q431 1760 439 1757Q447 1754 456 1746L698 1538L686 1538Q677 1538 668 1544L378 1760L414 1760M1208 0L1190 0Q1181 0 1178 10L983 478L245 478L50 10Q47 0 36 0L20 0L604 1400L624 1400L1208 0M253 498L975 498L630 1326Q625 1337 621.50 1346.50Q618 1356 614 1367Q610 1356 606.50 1346.50Q603 1337 598 1326L253 498Z"  horiz-adv-x="1228" vert-adv-y="2000"  />

      
      <glyph glyph-name="unic1" unicode="&#xc1;" d="M858 1760L568 1544Q559 1538 550 1538L538 1538L780 1746Q789 1754 797 1757Q805 1760 822 1760L858 1760M1208 0L1190 0Q1181 0 1178 10L983 478L245 478L50 10Q47 0 36 0L20 0L604 1400L624 1400L1208 0M253 498L975 498L630 1326Q625 1337 621.50 1346.50Q618 1356 614 1367Q610 1356 606.50 1346.50Q603 1337 598 1326L253 498Z"  horiz-adv-x="1228" vert-adv-y="2000"  />

      
      <glyph glyph-name="unic2" unicode="&#xc2;" d="M854 1538L834 1538Q829 1538 824 1539.50Q819 1541 814 1546L618 1706Q616 1707 615.50 1708Q615 1709 614 1710L610 1706L414 1546Q405 1538 394 1538L374 1538L606 1728L622 1728L854 1538M1208 0L1190 0Q1181 0 1178 10L983 478L245 478L50 10Q47 0 36 0L20 0L604 1400L624 1400L1208 0M253 498L975 498L630 1326Q625 1337 621.50 1346.50Q618 1356 614 1367Q610 1356 606.50 1346.50Q603 1337 598 1326L253 498Z"  horiz-adv-x="1228" vert-adv-y="2000"  />

      
      <glyph glyph-name="unic3" unicode="&#xc3;" d="M732 1576Q782 1576 806 1609Q830 1642 832 1690L848 1690Q848 1663 841 1638.50Q834 1614 820 1596Q806 1578 784 1567Q762 1556 732 1556Q700 1556 672 1574Q644 1592 617 1614Q590 1636 563.50 1654Q537 1672 508 1672Q484 1672 465.50 1663Q447 1654 434.50 1638.50Q422 1623 415.50 1602Q409 1581 408 1558L390 1558Q390 1585 397.50 1609.50Q405 1634 420 1652Q435 1670 457 1681Q479 1692 508 1692Q541 1692 569 1674Q597 1656 623.50 1634Q650 1612 676.50 1594Q703 1576 732 1576M1208 0L1190 0Q1181 0 1178 10L983 478L245 478L50 10Q47 0 36 0L20 0L604 1400L624 1400L1208 0M253 498L975 498L630 1326Q625 1337 621.50 1346.50Q618 1356 614 1367Q610 1356 606.50 1346.50Q603 1337 598 1326L253 498Z"  horiz-adv-x="1228" vert-adv-y="2000"  />

      
      <glyph glyph-name="unic4" unicode="&#xc4;" d="M466 1664Q466 1643 448.50 1626.50Q431 1610 410 1610Q387 1610 370.50 1626.50Q354 1643 354 1664Q354 1687 370.50 1703.50Q387 1720 410 1720Q431 1720 448.50 1703.50Q466 1687 466 1664M874 1664Q874 1643 856.50 1626.50Q839 1610 818 1610Q795 1610 778.50 1626.50Q762 1643 762 1664Q762 1687 778.50 1703.50Q795 1720 818 1720Q839 1720 856.50 1703.50Q874 1687 874 1664M1208 0L1190 0Q1181 0 1178 10L983 478L245 478L50 10Q47 0 36 0L20 0L604 1400L624 1400L1208 0M253 498L975 498L630 1326Q625 1337 621.50 1346.50Q618 1356 614 1367Q610 1356 606.50 1346.50Q603 1337 598 1326L253 498Z"  horiz-adv-x="1228" vert-adv-y="2000"  />

      
      <glyph glyph-name="unic5" unicode="&#xc5;" d="M466 1604Q466 1635 477.50 1661Q489 1687 509 1706.50Q529 1726 556 1737Q583 1748 614 1748Q645 1748 672 1737Q699 1726 719 1706.50Q739 1687 750.50 1661Q762 1635 762 1604Q762 1573 750.50 1547Q739 1521 719 1501.50Q699 1482 672 1471Q645 1460 614 1460Q583 1460 556 1471Q529 1482 509 1501.50Q489 1521 477.50 1547Q466 1573 466 1604M488 1604Q488 1577 497.50 1554Q507 1531 524 1514Q541 1497 564 1487.50Q587 1478 614 1478Q641 1478 664 1487.50Q687 1497 704 1514Q721 1531 730.50 1554Q740 1577 740 1604Q740 1631 730.50 1654Q721 1677 704 1694Q687 1711 664 1720.50Q641 1730 614 1730Q587 1730 564 1720.50Q541 1711 524 1694Q507 1677 497.50 1654Q488 1631 488 1604M1208 0L1190 0Q1181 0 1178 10L983 478L245 478L50 10Q47 0 36 0L20 0L604 1400L624 1400L1208 0M253 498L975 498L630 1326Q625 1337 621.50 1346.50Q618 1356 614 1367Q610 1356 606.50 1346.50Q603 1337 598 1326L253 498Z"  horiz-adv-x="1228" vert-adv-y="2000"  />

      
      <glyph glyph-name="unic6" unicode="&#xc6;" d="M790 1400L1696 1400L1696 1378L823 1378L908 722L1576 722L1576 700L911 700L999 22L1698 22L1696 0L980 0L918 478L289 478L19 8Q15 0 6 0L-14 0L790 1400M300 498L915 498L801 1378Q796 1364 790.50 1352.50Q785 1341 776 1326L300 498Z"  horiz-adv-x="1838" vert-adv-y="2000"  />

      
      <glyph glyph-name="unic7" unicode="&#xc7;" d="M668-296Q672-296 681-303Q690-310 706-318Q722-326 745.50-333Q769-340 804-340Q864-340 898-313.50Q932-287 932-240Q932-209 917-189Q902-169 876-156.50Q850-144 815-137.50Q780-131 740-126L775-15Q640-10 526 42Q412 94 329.50 186Q247 278 200.50 408Q154 538 154 700Q154 860 202.50 992Q251 1124 339.50 1218.50Q428 1313 551.50 1364.50Q675 1416 824 1416Q900 1416 961 1406Q1022 1396 1075 1375.50Q1128 1355 1175.50 1324Q1223 1293 1272 1252L1268 1246Q1265 1242 1260 1242Q1253 1242 1239 1253.50Q1225 1265 1202.50 1282Q1180 1299 1146.50 1319Q1113 1339 1067 1356Q1021 1373 960.50 1384.50Q900 1396 824 1396Q682 1396 563.50 1347.50Q445 1299 359.50 1208.50Q274 1118 226 989Q178 860 178 700Q178 537 225.50 408Q273 279 357 189Q441 99 555.50 51.50Q670 4 804 4Q889 4 956 16Q1023 28 1078.50 51Q1134 74 1181.50 107.50Q1229 141 1276 184Q1281 189 1284 189Q1288 189 1291 186L1300 178Q1256 135 1205.50 99.50Q1155 64 1095 38.50Q1035 13 963-1.50Q891-16 804-16L793-16L763-109Q806-116 841-125Q876-134 901-149Q926-164 940-185.50Q954-207 954-238Q954-267 942.50-289Q931-311 910-326.50Q889-342 860.50-350Q832-358 798-358Q757-358 717-343.50Q677-329 654-306L658-302Q664-296 668-296Z"  horiz-adv-x="1438" vert-adv-y="2000"  />

      
      <glyph glyph-name="unic8" unicode="&#xc8;" d="M456 1760Q473 1760 481 1757Q489 1754 498 1746L740 1538L728 1538Q719 1538 710 1544L420 1760L456 1760M1058 1400L1058 1378L264 1378L264 722L938 722L938 700L264 700L264 22L1060 22L1058 0L240 0L240 1400L1058 1400Z"  horiz-adv-x="1200" vert-adv-y="2000"  />

      
      <glyph glyph-name="unic9" unicode="&#xc9;" d="M900 1760L610 1544Q601 1538 592 1538L580 1538L822 1746Q831 1754 839 1757Q847 1760 864 1760L900 1760M1058 1400L1058 1378L264 1378L264 722L938 722L938 700L264 700L264 22L1060 22L1058 0L240 0L240 1400L1058 1400Z"  horiz-adv-x="1200" vert-adv-y="2000"  />

      
      <glyph glyph-name="unica" unicode="&#xca;" d="M896 1538L876 1538Q871 1538 866 1539.50Q861 1541 856 1546L660 1706L656 1710L652 1706L456 1546Q451 1541 446 1539.50Q441 1538 436 1538L416 1538L648 1728L664 1728L896 1538M1058 1400L1058 1378L264 1378L264 722L938 722L938 700L264 700L264 22L1060 22L1058 0L240 0L240 1400L1058 1400Z"  horiz-adv-x="1200" vert-adv-y="2000"  />

      
      <glyph glyph-name="unicb" unicode="&#xcb;" d="M508 1664Q508 1643 490.50 1626.50Q473 1610 452 1610Q429 1610 412.50 1626.50Q396 1643 396 1664Q396 1687 412.50 1703.50Q429 1720 452 1720Q473 1720 490.50 1703.50Q508 1687 508 1664M916 1664Q916 1643 898.50 1626.50Q881 1610 860 1610Q837 1610 820.50 1626.50Q804 1643 804 1664Q804 1687 820.50 1703.50Q837 1720 860 1720Q881 1720 898.50 1703.50Q916 1687 916 1664M1058 1400L1058 1378L264 1378L264 722L938 722L938 700L264 700L264 22L1060 22L1058 0L240 0L240 1400L1058 1400Z"  horiz-adv-x="1200" vert-adv-y="2000"  />

      
      <glyph glyph-name="unicc" unicode="&#xcc;" d="M94 1760Q111 1760 119 1757Q127 1754 136 1746L378 1538L366 1538Q357 1538 348 1544L58 1760L94 1760M304 0L280 0L280 1400L304 1400L304 0Z"  horiz-adv-x="584" vert-adv-y="2000"  />

      
      <glyph glyph-name="unicd" unicode="&#xcd;" d="M538 1760L248 1544Q239 1538 230 1538L218 1538L460 1746Q469 1754 477 1757Q485 1760 502 1760L538 1760M304 0L280 0L280 1400L304 1400L304 0Z"  horiz-adv-x="584" vert-adv-y="2000"  />

      
      <glyph glyph-name="unice" unicode="&#xce;" d="M534 1538L514 1538Q509 1538 504 1539.50Q499 1541 494 1546L298 1706L294 1710L290 1706L94 1546Q85 1538 74 1538L54 1538L286 1728L302 1728L534 1538M304 0L280 0L280 1400L304 1400L304 0Z"  horiz-adv-x="584" vert-adv-y="2000"  />

      
      <glyph glyph-name="unicf" unicode="&#xcf;" d="M146 1664Q146 1643 128.50 1626.50Q111 1610 90 1610Q67 1610 50.50 1626.50Q34 1643 34 1664Q34 1687 50.50 1703.50Q67 1720 90 1720Q111 1720 128.50 1703.50Q146 1687 146 1664M554 1664Q554 1643 536.50 1626.50Q519 1610 498 1610Q475 1610 458.50 1626.50Q442 1643 442 1664Q442 1687 458.50 1703.50Q475 1720 498 1720Q519 1720 536.50 1703.50Q554 1687 554 1664M304 0L280 0L280 1400L304 1400L304 0Z"  horiz-adv-x="584" vert-adv-y="2000"  />

      
      <glyph glyph-name="unid0" unicode="&#xd0;" d="M48 722L280 722L280 1400L780 1400Q924 1400 1043 1353Q1162 1306 1247.50 1216Q1333 1126 1380.50 996Q1428 866 1428 700Q1428 534 1380.50 404Q1333 274 1247.50 184Q1162 94 1043 47Q924 0 780 0L280 0L280 702L48 702L48 722M1402 700Q1402 863 1356.50 989.50Q1311 1116 1229 1203Q1147 1290 1032.50 1335Q918 1380 780 1380L304 1380L304 722L728 722L728 702L304 702L304 20L780 20Q918 20 1032.50 65Q1147 110 1229 197Q1311 284 1356.50 410.50Q1402 537 1402 700Z"  horiz-adv-x="1572" vert-adv-y="2000"  />

      
      <glyph glyph-name="unid1" unicode="&#xd1;" d="M920 1574Q970 1574 994 1607Q1018 1640 1020 1688L1036 1688Q1036 1661 1029 1636.50Q1022 1612 1008 1594Q994 1576 972 1565Q950 1554 920 1554Q888 1554 860 1572Q832 1590 805 1612Q778 1634 751.50 1652Q725 1670 696 1670Q672 1670 653.50 1661Q635 1652 622.50 1636.50Q610 1621 603.50 1600Q597 1579 596 1556L578 1556Q578 1583 585.50 1607.50Q593 1632 608 1650Q623 1668 645 1679Q667 1690 696 1690Q729 1690 757 1672Q785 1654 811.50 1632Q838 1610 864.50 1592Q891 1574 920 1574M248 1400Q257 1400 262 1392L1253 43Q1252 48 1252 53.50Q1252 59 1252 64L1252 1400L1272 1400L1272 0L1266 0Q1260 0 1255 7L259 1362Q260 1356 260 1349.50Q260 1343 260 1338L260 0L240 0L240 1400L248 1400L248 1400Z"  horiz-adv-x="1512" vert-adv-y="2000"  />

      
      <glyph glyph-name="unid2" unicode="&#xd2;" d="M598 1760Q615 1760 623 1757Q631 1754 640 1746L882 1538L870 1538Q861 1538 852 1544L562 1760L598 1760M1444 700Q1444 534 1396.50 402Q1349 270 1263.50 177.50Q1178 85 1059 35.50Q940-14 796-14Q653-14 534.50 35.50Q416 85 330.50 177.50Q245 270 197.50 402Q150 534 150 700Q150 865 197.50 997.50Q245 1130 330.50 1223Q416 1316 534.50 1366Q653 1416 796 1416Q940 1416 1059 1366.50Q1178 1317 1263.50 1224Q1349 1131 1396.50 998.50Q1444 866 1444 700M1418 700Q1418 863 1372.50 992Q1327 1121 1245 1211Q1163 1301 1048.50 1348.50Q934 1396 796 1396Q660 1396 546 1348.50Q432 1301 349.50 1211Q267 1121 220.50 992Q174 863 174 700Q174 537 220.50 408.50Q267 280 349.50 190.50Q432 101 546 53.50Q660 6 796 6Q934 6 1048.50 53.50Q1163 101 1245 190.50Q1327 280 1372.50 408.50Q1418 537 1418 700Z"  horiz-adv-x="1594" vert-adv-y="2000"  />

      
      <glyph glyph-name="unid3" unicode="&#xd3;" d="M1042 1760L752 1544Q743 1538 734 1538L722 1538L964 1746Q973 1754 981 1757Q989 1760 1006 1760L1042 1760M1444 700Q1444 534 1396.50 402Q1349 270 1263.50 177.50Q1178 85 1059 35.50Q940-14 796-14Q653-14 534.50 35.50Q416 85 330.50 177.50Q245 270 197.50 402Q150 534 150 700Q150 865 197.50 997.50Q245 1130 330.50 1223Q416 1316 534.50 1366Q653 1416 796 1416Q940 1416 1059 1366.50Q1178 1317 1263.50 1224Q1349 1131 1396.50 998.50Q1444 866 1444 700M1418 700Q1418 863 1372.50 992Q1327 1121 1245 1211Q1163 1301 1048.50 1348.50Q934 1396 796 1396Q660 1396 546 1348.50Q432 1301 349.50 1211Q267 1121 220.50 992Q174 863 174 700Q174 537 220.50 408.50Q267 280 349.50 190.50Q432 101 546 53.50Q660 6 796 6Q934 6 1048.50 53.50Q1163 101 1245 190.50Q1327 280 1372.50 408.50Q1418 537 1418 700Z"  horiz-adv-x="1594" vert-adv-y="2000"  />

      
      <glyph glyph-name="unid4" unicode="&#xd4;" d="M1038 1538L1018 1538Q1013 1538 1008 1539.50Q1003 1541 998 1546L802 1706L798 1710L794 1706L598 1546Q589 1538 578 1538L558 1538L790 1728L806 1728L1038 1538M1444 700Q1444 534 1396.50 402Q1349 270 1263.50 177.50Q1178 85 1059 35.50Q940-14 796-14Q653-14 534.50 35.50Q416 85 330.50 177.50Q245 270 197.50 402Q150 534 150 700Q150 865 197.50 997.50Q245 1130 330.50 1223Q416 1316 534.50 1366Q653 1416 796 1416Q940 1416 1059 1366.50Q1178 1317 1263.50 1224Q1349 1131 1396.50 998.50Q1444 866 1444 700M1418 700Q1418 863 1372.50 992Q1327 1121 1245 1211Q1163 1301 1048.50 1348.50Q934 1396 796 1396Q660 1396 546 1348.50Q432 1301 349.50 1211Q267 1121 220.50 992Q174 863 174 700Q174 537 220.50 408.50Q267 280 349.50 190.50Q432 101 546 53.50Q660 6 796 6Q934 6 1048.50 53.50Q1163 101 1245 190.50Q1327 280 1372.50 408.50Q1418 537 1418 700Z"  horiz-adv-x="1594" vert-adv-y="2000"  />

      
      <glyph glyph-name="unid5" unicode="&#xd5;" d="M916 1576Q966 1576 990 1609Q1014 1642 1016 1690L1032 1690Q1032 1663 1025 1638.50Q1018 1614 1004 1596Q990 1578 968 1567Q946 1556 916 1556Q884 1556 856 1574Q828 1592 801 1614Q774 1636 747.50 1654Q721 1672 692 1672Q668 1672 649.50 1663Q631 1654 618.50 1638.50Q606 1623 599.50 1602Q593 1581 592 1558L574 1558Q574 1585 581.50 1609.50Q589 1634 604 1652Q619 1670 641 1681Q663 1692 692 1692Q725 1692 753 1674Q781 1656 807.50 1634Q834 1612 860.50 1594Q887 1576 916 1576M1444 700Q1444 534 1396.50 402Q1349 270 1263.50 177.50Q1178 85 1059 35.50Q940-14 796-14Q653-14 534.50 35.50Q416 85 330.50 177.50Q245 270 197.50 402Q150 534 150 700Q150 865 197.50 997.50Q245 1130 330.50 1223Q416 1316 534.50 1366Q653 1416 796 1416Q940 1416 1059 1366.50Q1178 1317 1263.50 1224Q1349 1131 1396.50 998.50Q1444 866 1444 700M1418 700Q1418 863 1372.50 992Q1327 1121 1245 1211Q1163 1301 1048.50 1348.50Q934 1396 796 1396Q660 1396 546 1348.50Q432 1301 349.50 1211Q267 1121 220.50 992Q174 863 174 700Q174 537 220.50 408.50Q267 280 349.50 190.50Q432 101 546 53.50Q660 6 796 6Q934 6 1048.50 53.50Q1163 101 1245 190.50Q1327 280 1372.50 408.50Q1418 537 1418 700Z"  horiz-adv-x="1594" vert-adv-y="2000"  />

      
      <glyph glyph-name="unid6" unicode="&#xd6;" d="M650 1664Q650 1643 632.50 1626.50Q615 1610 594 1610Q571 1610 554.50 1626.50Q538 1643 538 1664Q538 1687 554.50 1703.50Q571 1720 594 1720Q615 1720 632.50 1703.50Q650 1687 650 1664M1058 1664Q1058 1643 1040.50 1626.50Q1023 1610 1002 1610Q979 1610 962.50 1626.50Q946 1643 946 1664Q946 1687 962.50 1703.50Q979 1720 1002 1720Q1023 1720 1040.50 1703.50Q1058 1687 1058 1664M1444 700Q1444 534 1396.50 402Q1349 270 1263.50 177.50Q1178 85 1059 35.50Q940-14 796-14Q653-14 534.50 35.50Q416 85 330.50 177.50Q245 270 197.50 402Q150 534 150 700Q150 865 197.50 997.50Q245 1130 330.50 1223Q416 1316 534.50 1366Q653 1416 796 1416Q940 1416 1059 1366.50Q1178 1317 1263.50 1224Q1349 1131 1396.50 998.50Q1444 866 1444 700M1418 700Q1418 863 1372.50 992Q1327 1121 1245 1211Q1163 1301 1048.50 1348.50Q934 1396 796 1396Q660 1396 546 1348.50Q432 1301 349.50 1211Q267 1121 220.50 992Q174 863 174 700Q174 537 220.50 408.50Q267 280 349.50 190.50Q432 101 546 53.50Q660 6 796 6Q934 6 1048.50 53.50Q1163 101 1245 190.50Q1327 280 1372.50 408.50Q1418 537 1418 700Z"  horiz-adv-x="1594" vert-adv-y="2000"  />

      
      <glyph glyph-name="unid7" unicode="&#xd7;" d="M982 1056L595 670L982 282L968 268L580 655L190 266L176 280L565 670L176 1058L192 1074L580 685L966 1072L982 1056Z"  horiz-adv-x="1160" vert-adv-y="2000"  />

      
      <glyph glyph-name="unid8" unicode="&#xd8;" d="M1444 700Q1444 534 1396.50 402Q1349 270 1263.50 177.50Q1178 85 1059 35.50Q940-14 796-14Q675-14 571.50 21Q468 56 386 124L226-90Q217-102 204-102L190-102L370 138Q266 231 208 372.50Q150 514 150 700Q150 865 197.50 997.50Q245 1130 330.50 1223Q416 1316 534.50 1366Q653 1416 796 1416Q922 1416 1028.50 1378Q1135 1340 1218 1268L1356 1452Q1361 1458 1364.50 1461Q1368 1464 1376 1464L1392 1464L1234 1253Q1334 1159 1389 1019.50Q1444 880 1444 700M174 700Q174 520 229 383Q284 246 383 156L1204 1250Q1124 1322 1021 1359Q918 1396 796 1396Q660 1396 546 1348.50Q432 1301 349.50 1211Q267 1121 220.50 992Q174 863 174 700M1418 700Q1418 875 1366 1009.50Q1314 1144 1220 1235L400 142Q479 75 579 40.50Q679 6 796 6Q934 6 1048.50 53.50Q1163 101 1245 190.50Q1327 280 1372.50 408.50Q1418 537 1418 700Z"  horiz-adv-x="1594" vert-adv-y="2000"  />

      
      <glyph glyph-name="unid9" unicode="&#xd9;" d="M536 1760Q553 1760 561 1757Q569 1754 578 1746L820 1538L808 1538Q799 1538 790 1544L500 1760L536 1760M736 4Q849 4 938.50 44.50Q1028 85 1090 155Q1152 225 1185 319Q1218 413 1218 520L1218 1400L1242 1400L1242 520Q1242 409 1207 311Q1172 213 1106 140Q1040 67 946.50 24.50Q853-18 736-18Q619-18 525.50 24.50Q432 67 366 140Q300 213 265 311Q230 409 230 520L230 1400L254 1400L254 522Q254 415 287 320.50Q320 226 382 155.50Q444 85 533.50 44.50Q623 4 736 4Z"  horiz-adv-x="1472" vert-adv-y="2000"  />

      
      <glyph glyph-name="unida" unicode="&#xda;" d="M980 1760L690 1544Q681 1538 672 1538L660 1538L902 1746Q911 1754 919 1757Q927 1760 944 1760L980 1760M736 4Q849 4 938.50 44.50Q1028 85 1090 155Q1152 225 1185 319Q1218 413 1218 520L1218 1400L1242 1400L1242 520Q1242 409 1207 311Q1172 213 1106 140Q1040 67 946.50 24.50Q853-18 736-18Q619-18 525.50 24.50Q432 67 366 140Q300 213 265 311Q230 409 230 520L230 1400L254 1400L254 522Q254 415 287 320.50Q320 226 382 155.50Q444 85 533.50 44.50Q623 4 736 4Z"  horiz-adv-x="1472" vert-adv-y="2000"  />

      
      <glyph glyph-name="unidb" unicode="&#xdb;" d="M976 1538L956 1538Q951 1538 946 1539.50Q941 1541 936 1546L740 1706L736 1710L732 1706L536 1546Q527 1538 516 1538L496 1538L728 1728L744 1728L976 1538M736 4Q849 4 938.50 44.50Q1028 85 1090 155Q1152 225 1185 319Q1218 413 1218 520L1218 1400L1242 1400L1242 520Q1242 409 1207 311Q1172 213 1106 140Q1040 67 946.50 24.50Q853-18 736-18Q619-18 525.50 24.50Q432 67 366 140Q300 213 265 311Q230 409 230 520L230 1400L254 1400L254 522Q254 415 287 320.50Q320 226 382 155.50Q444 85 533.50 44.50Q623 4 736 4Z"  horiz-adv-x="1472" vert-adv-y="2000"  />

      
      <glyph glyph-name="unidc" unicode="&#xdc;" d="M588 1664Q588 1643 570.50 1626.50Q553 1610 532 1610Q509 1610 492.50 1626.50Q476 1643 476 1664Q476 1687 492.50 1703.50Q509 1720 532 1720Q553 1720 570.50 1703.50Q588 1687 588 1664M996 1664Q996 1643 978.50 1626.50Q961 1610 940 1610Q917 1610 900.50 1626.50Q884 1643 884 1664Q884 1687 900.50 1703.50Q917 1720 940 1720Q961 1720 978.50 1703.50Q996 1687 996 1664M736 4Q849 4 938.50 44.50Q1028 85 1090 155Q1152 225 1185 319Q1218 413 1218 520L1218 1400L1242 1400L1242 520Q1242 409 1207 311Q1172 213 1106 140Q1040 67 946.50 24.50Q853-18 736-18Q619-18 525.50 24.50Q432 67 366 140Q300 213 265 311Q230 409 230 520L230 1400L254 1400L254 522Q254 415 287 320.50Q320 226 382 155.50Q444 85 533.50 44.50Q623 4 736 4Z"  horiz-adv-x="1472" vert-adv-y="2000"  />

      
      <glyph glyph-name="unidd" unicode="&#xdd;" d="M818 1760L528 1544Q519 1538 510 1538L498 1538L740 1746Q749 1754 757 1757Q765 1760 782 1760L818 1760M586 595L586 0L562 0L562 595L40 1400L60 1400Q69 1400 74 1392L545 662Q553 649 560.50 637.50Q568 626 574 614Q579 626 587 637.50Q595 649 603 662L1074 1392Q1079 1400 1088 1400L1108 1400L586 595Z"  horiz-adv-x="1148" vert-adv-y="2000"  />

      
      <glyph glyph-name="unide" unicode="&#xde;" d="M304 298L304 0L280 0L280 1400L304 1400L304 1098L596 1098Q825 1098 947.50 999Q1070 900 1070 698Q1070 611 1035.50 537.50Q1001 464 938 411Q875 358 788 328Q701 298 596 298L304 298M304 318L596 318Q699 318 782 347.50Q865 377 923.50 428.50Q982 480 1014 549Q1046 618 1046 698Q1046 885 933.50 981.50Q821 1078 596 1078L304 1078L304 318Z"  horiz-adv-x="1158" vert-adv-y="2000"  />

      
      <glyph glyph-name="unidf" unicode="&#xdf;" d="M614 1414Q684 1414 742 1393Q800 1372 841.50 1336.50Q883 1301 905.50 1255Q928 1209 928 1160Q928 1095 902.50 1047.50Q877 1000 839 962Q801 924 756 893.50Q711 863 673 833Q635 803 609.50 770Q584 737 584 696Q584 655 601.50 628.50Q619 602 648 583Q677 564 714 550.50Q751 537 790 522.50Q829 508 866 490Q903 472 932 443.50Q961 415 978.50 374.50Q996 334 996 274Q996 214 974.50 161Q953 108 912 69Q871 30 811.50 7Q752-16 676-16Q623-16 581.50-7.50Q540 1 504.50 16Q469 31 438.50 53Q408 75 378 102L384 108Q387 111 389 112.50Q391 114 396 114Q404 114 422 97Q440 80 472.50 59Q505 38 554.50 21Q604 4 676 4Q748 4 803.50 25Q859 46 897 82.50Q935 119 954.50 167.50Q974 216 974 272Q974 330 956.50 369Q939 408 910 434.50Q881 461 844 478Q807 495 768 509.50Q729 524 692 538Q655 552 626 572Q597 592 579.50 621.50Q562 651 562 696Q562 740 587.50 774.50Q613 809 651.50 840Q690 871 735 901.50Q780 932 818.50 969Q857 1006 882.50 1052.50Q908 1099 908 1162Q908 1192 893 1232Q878 1272 843.50 1308Q809 1344 752.50 1369Q696 1394 614 1394Q540 1394 471.50 1372.50Q403 1351 350.50 1304.50Q298 1258 266 1185.50Q234 1113 234 1010L234 0L210 0L210 1010Q210 1109 241.50 1184.50Q273 1260 327.50 1311Q382 1362 455.50 1388Q529 1414 614 1414Z"  horiz-adv-x="1106" vert-adv-y="2000"  />

      
      <glyph glyph-name="unie0" unicode="&#xe0;" d="M784 0Q770 0 770 16L764 175Q722 131 680 95.50Q638 60 591 35.50Q544 11 490-2.50Q436-16 370-16Q326-16 281.50-2.50Q237 11 201 40.50Q165 70 142.50 116.50Q120 163 120 230Q120 296 158.50 348.50Q197 401 276.50 438Q356 475 477 496.50Q598 518 764 522L764 648Q764 725 747 786Q730 847 697 889Q664 931 614 953.50Q564 976 498 976Q446 976 404 965Q362 954 329 938Q296 922 271.50 903Q247 884 229 868Q211 852 200 841Q189 830 184 830Q180 830 174 836L170 840Q242 916 319 956Q396 996 498 996Q573 996 627.50 972Q682 948 718 903Q754 858 771 793.50Q788 729 788 648L788 0L784 0M370 4Q439 4 495 20Q551 36 598 63Q645 90 685.50 125.50Q726 161 764 200L764 502Q449 492 296.50 423.50Q144 355 144 230Q144 171 163.50 128.50Q183 86 214.50 58.50Q246 31 286.50 17.50Q327 4 370 4M362 1416Q379 1416 387 1412Q395 1408 404 1394L568 1158L554 1158Q543 1158 538 1166L336 1416L362 1416Z"  horiz-adv-x="938" vert-adv-y="2000"  />

      
      <glyph glyph-name="unie1" unicode="&#xe1;" d="M784 0Q770 0 770 16L764 175Q722 131 680 95.50Q638 60 591 35.50Q544 11 490-2.50Q436-16 370-16Q326-16 281.50-2.50Q237 11 201 40.50Q165 70 142.50 116.50Q120 163 120 230Q120 296 158.50 348.50Q197 401 276.50 438Q356 475 477 496.50Q598 518 764 522L764 648Q764 725 747 786Q730 847 697 889Q664 931 614 953.50Q564 976 498 976Q446 976 404 965Q362 954 329 938Q296 922 271.50 903Q247 884 229 868Q211 852 200 841Q189 830 184 830Q180 830 174 836L170 840Q242 916 319 956Q396 996 498 996Q573 996 627.50 972Q682 948 718 903Q754 858 771 793.50Q788 729 788 648L788 0L784 0M370 4Q439 4 495 20Q551 36 598 63Q645 90 685.50 125.50Q726 161 764 200L764 502Q449 492 296.50 423.50Q144 355 144 230Q144 171 163.50 128.50Q183 86 214.50 58.50Q246 31 286.50 17.50Q327 4 370 4M656 1416L454 1166Q447 1158 438 1158L424 1158L588 1394Q597 1408 605 1412Q613 1416 630 1416L656 1416Z"  horiz-adv-x="938" vert-adv-y="2000"  />

      
      <glyph glyph-name="unie2" unicode="&#xe2;" d="M784 0Q770 0 770 16L764 175Q722 131 680 95.50Q638 60 591 35.50Q544 11 490-2.50Q436-16 370-16Q326-16 281.50-2.50Q237 11 201 40.50Q165 70 142.50 116.50Q120 163 120 230Q120 296 158.50 348.50Q197 401 276.50 438Q356 475 477 496.50Q598 518 764 522L764 648Q764 725 747 786Q730 847 697 889Q664 931 614 953.50Q564 976 498 976Q446 976 404 965Q362 954 329 938Q296 922 271.50 903Q247 884 229 868Q211 852 200 841Q189 830 184 830Q180 830 174 836L170 840Q242 916 319 956Q396 996 498 996Q573 996 627.50 972Q682 948 718 903Q754 858 771 793.50Q788 729 788 648L788 0L784 0M370 4Q439 4 495 20Q551 36 598 63Q645 90 685.50 125.50Q726 161 764 200L764 502Q449 492 296.50 423.50Q144 355 144 230Q144 171 163.50 128.50Q183 86 214.50 58.50Q246 31 286.50 17.50Q327 4 370 4M708 1170L690 1170Q682 1170 674 1178L494 1374L488 1380L482 1374L302 1178Q299 1175 295 1172.50Q291 1170 286 1170L268 1170L480 1400L496 1400L708 1170Z"  horiz-adv-x="938" vert-adv-y="2000"  />

      
      <glyph glyph-name="unie3" unicode="&#xe3;" d="M784 0Q770 0 770 16L764 175Q722 131 680 95.50Q638 60 591 35.50Q544 11 490-2.50Q436-16 370-16Q326-16 281.50-2.50Q237 11 201 40.50Q165 70 142.50 116.50Q120 163 120 230Q120 296 158.50 348.50Q197 401 276.50 438Q356 475 477 496.50Q598 518 764 522L764 648Q764 725 747 786Q730 847 697 889Q664 931 614 953.50Q564 976 498 976Q446 976 404 965Q362 954 329 938Q296 922 271.50 903Q247 884 229 868Q211 852 200 841Q189 830 184 830Q180 830 174 836L170 840Q242 916 319 956Q396 996 498 996Q573 996 627.50 972Q682 948 718 903Q754 858 771 793.50Q788 729 788 648L788 0L784 0M370 4Q439 4 495 20Q551 36 598 63Q645 90 685.50 125.50Q726 161 764 200L764 502Q449 492 296.50 423.50Q144 355 144 230Q144 171 163.50 128.50Q183 86 214.50 58.50Q246 31 286.50 17.50Q327 4 370 4M606 1242Q656 1242 680 1275Q704 1308 706 1356L722 1356Q722 1329 715 1304.50Q708 1280 694 1262Q680 1244 658 1233Q636 1222 606 1222Q574 1222 546 1240Q518 1258 491 1280Q464 1302 437.50 1320Q411 1338 382 1338Q358 1338 339.50 1329Q321 1320 308.50 1304.50Q296 1289 289.50 1268Q283 1247 282 1224L264 1224Q264 1251 271.50 1275.50Q279 1300 294 1318Q309 1336 331 1347Q353 1358 382 1358Q415 1358 443 1340Q471 1322 497.50 1300Q524 1278 550.50 1260Q577 1242 606 1242Z"  horiz-adv-x="938" vert-adv-y="2000"  />

      
      <glyph glyph-name="unie4" unicode="&#xe4;" d="M784 0Q770 0 770 16L764 175Q722 131 680 95.50Q638 60 591 35.50Q544 11 490-2.50Q436-16 370-16Q326-16 281.50-2.50Q237 11 201 40.50Q165 70 142.50 116.50Q120 163 120 230Q120 296 158.50 348.50Q197 401 276.50 438Q356 475 477 496.50Q598 518 764 522L764 648Q764 725 747 786Q730 847 697 889Q664 931 614 953.50Q564 976 498 976Q446 976 404 965Q362 954 329 938Q296 922 271.50 903Q247 884 229 868Q211 852 200 841Q189 830 184 830Q180 830 174 836L170 840Q242 916 319 956Q396 996 498 996Q573 996 627.50 972Q682 948 718 903Q754 858 771 793.50Q788 729 788 648L788 0L784 0M370 4Q439 4 495 20Q551 36 598 63Q645 90 685.50 125.50Q726 161 764 200L764 502Q449 492 296.50 423.50Q144 355 144 230Q144 171 163.50 128.50Q183 86 214.50 58.50Q246 31 286.50 17.50Q327 4 370 4M380 1280Q380 1259 362.50 1242.50Q345 1226 324 1226Q301 1226 284.50 1242.50Q268 1259 268 1280Q268 1303 284.50 1319.50Q301 1336 324 1336Q345 1336 362.50 1319.50Q380 1303 380 1280M708 1280Q708 1259 690.50 1242.50Q673 1226 652 1226Q629 1226 612.50 1242.50Q596 1259 596 1280Q596 1303 612.50 1319.50Q629 1336 652 1336Q673 1336 690.50 1319.50Q708 1303 708 1280Z"  horiz-adv-x="938" vert-adv-y="2000"  />

      
      <glyph glyph-name="unie5" unicode="&#xe5;" d="M784 0Q770 0 770 16L764 175Q722 131 680 95.50Q638 60 591 35.50Q544 11 490-2.50Q436-16 370-16Q326-16 281.50-2.50Q237 11 201 40.50Q165 70 142.50 116.50Q120 163 120 230Q120 296 158.50 348.50Q197 401 276.50 438Q356 475 477 496.50Q598 518 764 522L764 648Q764 725 747 786Q730 847 697 889Q664 931 614 953.50Q564 976 498 976Q446 976 404 965Q362 954 329 938Q296 922 271.50 903Q247 884 229 868Q211 852 200 841Q189 830 184 830Q180 830 174 836L170 840Q242 916 319 956Q396 996 498 996Q573 996 627.50 972Q682 948 718 903Q754 858 771 793.50Q788 729 788 648L788 0L784 0M370 4Q439 4 495 20Q551 36 598 63Q645 90 685.50 125.50Q726 161 764 200L764 502Q449 492 296.50 423.50Q144 355 144 230Q144 171 163.50 128.50Q183 86 214.50 58.50Q246 31 286.50 17.50Q327 4 370 4M340 1290Q340 1321 351.50 1347Q363 1373 383 1392.50Q403 1412 430 1423Q457 1434 488 1434Q519 1434 546 1423Q573 1412 593 1392.50Q613 1373 624.50 1347Q636 1321 636 1290Q636 1259 624.50 1233Q613 1207 593 1187.50Q573 1168 546 1157Q519 1146 488 1146Q457 1146 430 1157Q403 1168 383 1187.50Q363 1207 351.50 1233Q340 1259 340 1290M362 1290Q362 1263 371.50 1240Q381 1217 398 1200Q415 1183 438 1173.50Q461 1164 488 1164Q515 1164 538 1173.50Q561 1183 578 1200Q595 1217 604.50 1240Q614 1263 614 1290Q614 1317 604.50 1340Q595 1363 578 1380Q561 1397 538 1406.50Q515 1416 488 1416Q461 1416 438 1406.50Q415 1397 398 1380Q381 1363 371.50 1340Q362 1317 362 1290Z"  horiz-adv-x="938" vert-adv-y="2000"  />

      
      <glyph glyph-name="unie6" unicode="&#xe6;" d="M1152 996Q1222 996 1282.50 968Q1343 940 1388 884.50Q1433 829 1458.50 746Q1484 663 1484 554Q1484 544 1474 544L787 544Q786 536 786 527Q786 518 786 510Q786 388 812.50 294.50Q839 201 887.50 137.50Q936 74 1004.50 41Q1073 8 1156 8Q1229 8 1282.50 26Q1336 44 1372 66Q1408 88 1427.50 106Q1447 124 1452 124Q1456 124 1460 120L1464 116Q1449 95 1418.50 72.50Q1388 50 1347 31Q1306 12 1257 0Q1208-12 1156-12Q1004-12 908 81.50Q812 175 781 348Q778 279 759 225Q740 171 710 130.50Q680 90 642 62Q604 34 563 16.50Q522-1 481-8.50Q440-16 404-16Q347-16 295.50-2.50Q244 11 205 42.50Q166 74 143 125Q120 176 120 250Q120 316 158.50 371.50Q197 427 276.50 468Q356 509 477 533.50Q598 558 764 562L764 648Q764 725 747 786Q730 847 697 889Q664 931 614 953.50Q564 976 498 976Q446 976 404 965Q362 954 329 938Q296 922 271.50 903Q247 884 229 868Q211 852 200 841Q189 830 184 830Q180 830 174 836L170 840Q242 916 319 956Q396 996 498 996Q568 996 621 972.50Q674 949 709.50 905.50Q745 862 763 799.50Q781 737 782 659Q797 736 829 798Q861 860 908 904Q955 948 1016 972Q1077 996 1152 996M764 542Q606 537 489.50 514.50Q373 492 296.50 454Q220 416 182 364.50Q144 313 144 250Q144 184 164 137.50Q184 91 218.50 61Q253 31 300.50 17.50Q348 4 404 4Q478 4 543.50 29.50Q609 55 658 103Q707 151 735.50 218.50Q764 286 764 370L764 542M1154 976Q1072 976 1006.50 946Q941 916 894.50 861.50Q848 807 820.50 731Q793 655 787 562L1464 562Q1464 665 1440 742.50Q1416 820 1374 872Q1332 924 1275.50 950Q1219 976 1154 976Z"  horiz-adv-x="1590" vert-adv-y="2000"  />

      
      <glyph glyph-name="unie7" unicode="&#xe7;" d="M388-296Q392-296 401-303Q410-310 426-318Q442-326 465.50-333Q489-340 524-340Q584-340 618-313.50Q652-287 652-240Q652-209 637-189Q622-169 596-156.50Q570-144 535-137.50Q500-131 460-126L496-11Q405-8 331.50 27Q258 62 206.50 126Q155 190 127.50 282Q100 374 100 490Q100 604 129 697.50Q158 791 213 857Q268 923 347.50 959.50Q427 996 528 996Q617 996 686.50 967.50Q756 939 806 894L800 888Q796 884 792 884Q786 884 769.50 898.50Q753 913 721.50 930Q690 947 642.50 961.50Q595 976 528 976Q433 976 358 942Q283 908 231 845Q179 782 151.50 692Q124 602 124 490Q124 374 151.50 284.50Q179 195 230 133.50Q281 72 352.50 40Q424 8 512 8Q590 8 644 26Q698 44 733 66Q768 88 786 106Q804 124 810 124Q814 124 818 120L822 116Q807 94 778 71.50Q749 49 709.50 30.50Q670 12 620.50 0Q571-12 514-12L483-109Q526-116 561-125Q596-134 621-149Q646-164 660-185.50Q674-207 674-238Q674-267 662.50-289Q651-311 630-326.50Q609-342 580.50-350Q552-358 518-358Q477-358 437-343.50Q397-329 374-306L378-302Q384-296 388-296Z"  horiz-adv-x="890" vert-adv-y="2000"  />

      
      </font>
</defs>
</svg>
