<svg version="1.1" xmlns="http://www.w3.org/2000/svg" width="32" height="32" viewBox="0 0 32 32">
  <title>Pasta_green</title>
  <path fill="#31d48c" opacity="0.4" d="M15.678 15.982c-0.262 0-0.473 0.213-0.473 0.472 0 0.261 0.211 0.472 0.473 0.472 1.488 0 2.698 1.211 2.698 2.699 0 0.259 0.213 0.472 0.472 0.472 0.261 0 0.473-0.213 0.473-0.472 0-2.009-1.634-3.643-3.643-3.643z"></path>
  <path fill="#31d48c" opacity="0.4" d="M15.678 14.397c-1.135 0-2.058 0.923-2.058 2.057 0 0.259 0.213 0.472 0.473 0.472s0.472-0.213 0.472-0.472c0-0.615 0.499-1.115 1.113-1.115 2.362 0 4.286 1.923 4.286 4.286 0 0.261 0.211 0.472 0.47 0.472 0.261 0 0.472-0.211 0.472-0.472 0-2.882-2.345-5.227-5.227-5.227z"></path>
  <path fill="#31d48c" opacity="0.4" d="M15.678 17.569c-0.262 0-0.473 0.211-0.473 0.47 0 0.261 0.211 0.472 0.473 0.472 0.614 0 1.114 0.501 1.114 1.114 0 0.259 0.211 0.472 0.472 0.472 0.258 0 0.47-0.213 0.47-0.472 0-1.134-0.922-2.056-2.056-2.056z"></path>
  <path fill="#31d48c" opacity="0.4" d="M15.678 12.81h-1.056c-1.425 0-2.586 1.161-2.586 2.586 0 0.259 0.211 0.472 0.471 0.472s0.472-0.213 0.472-0.472c0-0.905 0.737-1.641 1.643-1.641h1.056c3.237 0 5.87 2.633 5.87 5.87 0 0.259 0.211 0.472 0.472 0.472 0.259 0 0.472-0.213 0.472-0.472 0-3.758-3.057-6.815-6.814-6.815z"></path>
  <path fill="#31d48c" opacity="0.6" d="M13.036 5.234c-0.003 0.015-0.007 0.024-0.010 0.032-0.042 0.137-0.097 0.267-0.162 0.379l-0.079 0.131c-0.311 0.434-0.809 0.693-1.334 0.693h-2.699v-1.168h2.17c0.261 0 0.472-0.213 0.472-0.472 0-0.261-0.211-0.473-0.472-0.473h-2.17v-1.171h2.699c0.527 0 1.025 0.258 1.331 0.69l0.081 0.131c0.067 0.12 0.121 0.247 0.165 0.385 0.003 0.010 0.007 0.019 0.009 0.032 0.038 0.135 0.056 0.267 0.056 0.403 0 0.135-0.019 0.271-0.057 0.407zM13.983 4.312l-0.015-0.069h14.392c0.323 0 0.586 0.262 0.586 0.584 0 0.323-0.263 0.585-0.586 0.585h-14.392l0.015-0.069c0.035-0.165 0.054-0.338 0.054-0.517s-0.018-0.351-0.054-0.515zM13.524 6.356h14.837c0.843 0 1.53-0.686 1.53-1.528 0-0.843-0.687-1.528-1.53-1.528h-14.837l-0.018-0.023c-0.501-0.658-1.25-1.035-2.055-1.035h-2.699v-0.057c0-0.259-0.213-0.47-0.472-0.47-0.261 0-0.471 0.21-0.471 0.47v5.285c0 0.261 0.21 0.472 0.471 0.472 0.259 0 0.472-0.211 0.472-0.472v-0.057h2.699c0.809 0 1.559-0.377 2.055-1.033l0.018-0.023z"></path>
  <path fill="#31d48c" opacity="0.4" d="M6.695 1.714c-0.261 0-0.472 0.211-0.472 0.47v5.285c0 0.261 0.211 0.472 0.472 0.472 0.259 0 0.47-0.211 0.47-0.472v-5.285c0-0.258-0.21-0.47-0.47-0.47z"></path>
  <path fill="#31d48c" opacity="0.4" d="M6.695 8.584c-0.261 0-0.472 0.213-0.472 0.472v5.285c0 0.261 0.211 0.472 0.472 0.472 0.259 0 0.47-0.211 0.47-0.472v-5.285c0-0.259-0.21-0.472-0.47-0.472z"></path>
  <path fill="#31d48c" opacity="0.4" d="M5.108 9.113c-0.261 0-0.472 0.213-0.472 0.472v5.285c0 0.259 0.211 0.47 0.472 0.47s0.472-0.21 0.472-0.47v-5.285c0-0.259-0.211-0.472-0.472-0.472z"></path>
  <path fill="#31d48c" opacity="0.6" d="M5.108 8.623c0.261 0 0.472-0.213 0.472-0.473v-5.966c0-0.258-0.211-0.47-0.472-0.47s-0.472 0.211-0.472 0.47v0.586h-2.17c-0.259 0-0.472 0.211-0.472 0.472s0.213 0.472 0.472 0.472h2.17v0.643h-2.17c-0.259 0-0.472 0.21-0.472 0.47s0.213 0.472 0.472 0.472h2.17v0.642h-2.17c-0.259 0-0.472 0.211-0.472 0.471 0 0.261 0.213 0.472 0.472 0.472h2.17v1.265c0 0.261 0.211 0.473 0.472 0.473z"></path>
  <path fill="#31d48c" opacity="0.6" d="M29.596 26.966l-0.574 0.861c-0.573 0.856-1.528 1.367-2.558 1.367h-21.574c-1.030 0-1.985-0.511-2.558-1.367l-0.573-0.861h27.835zM4.891 30.138h21.574c1.345 0 2.594-0.67 3.343-1.789l1.547-2.327h-4.657l-0.005-0.051c-0.267-2.934-2.785-5.233-5.73-5.233h-3.698c-0.261 0-0.472 0.211-0.472 0.472 0 0.259 0.211 0.472 0.472 0.472h3.698c2.456 0 4.511 1.838 4.782 4.277l0.007 0.064h-0.649l-0.007-0.050c-0.259-2.079-2.037-3.648-4.133-3.648h-3.171c-0.259 0-0.47 0.213-0.47 0.473 0 0.258 0.21 0.47 0.47 0.47h3.171c1.576 0 2.914 1.13 3.181 2.688l0.011 0.067h-0.651l-0.009-0.046c-0.243-1.198-1.307-2.067-2.531-2.067h-2.642c-0.261 0-0.472 0.213-0.472 0.472 0 0.261 0.211 0.471 0.472 0.471h2.642c0.688 0 1.309 0.44 1.542 1.094l0.027 0.077h-1.098v-0.057c0-0.258-0.21-0.469-0.471-0.469h-2.642c-0.261 0-0.472 0.21-0.472 0.469v0.057h-0.65l-0.001-0.056c-0.121-5.082-2.387-10.513-8.389-10.513h-0.529c-2.883 0-5.229 2.345-5.229 5.227v2.642c0 0.261 0.213 0.473 0.473 0.473 0.259 0 0.472-0.213 0.472-0.473v-2.642c0-2.361 1.921-4.283 4.283-4.283h0.529c2.443 0 4.349 1.017 5.663 3.022 1.379 2.104 1.731 4.72 1.785 6.545l0.002 0.058h-0.645l-0.001-0.056c-0.146-5.59-2.69-8.927-6.805-8.927-2.009 0-3.643 1.633-3.643 3.641v0.529c0 0.259 0.213 0.472 0.472 0.472 0.261 0 0.472-0.213 0.472-0.472v-0.529c0-1.488 1.211-2.698 2.699-2.698 2.168 0 3.77 0.997 4.763 2.963 0.831 1.648 1.055 3.638 1.096 5.017l0.002 0.059h-0.641l-0.001-0.056c-0.152-6.069-2.922-7.342-5.219-7.342-0.843 0-1.529 0.687-1.529 1.529 0 0.259 0.211 0.47 0.472 0.47 0.259 0 0.471-0.21 0.471-0.47 0-0.323 0.262-0.586 0.586-0.586 2.769 0 4.167 2.091 4.273 6.397l0.001 0.058h-0.633v-0.057c0-0.258-0.211-0.469-0.472-0.469h-2.643c-0.258 0-0.47 0.21-0.47 0.469v0.057h-1.098l0.029-0.077c0.232-0.654 0.851-1.094 1.539-1.094h2.643c0.261 0 0.472-0.21 0.472-0.471 0-0.259-0.211-0.472-0.472-0.472h-2.643c-1.222 0-2.287 0.87-2.531 2.067l-0.009 0.046h-0.65l0.013-0.067c0.264-1.558 1.601-2.688 3.178-2.688h2.117c0.259 0 0.47-0.211 0.47-0.47 0-0.261-0.21-0.473-0.47-0.473h-2.117c-2.095 0-3.872 1.569-4.134 3.648l-0.007 0.050h-0.647l0.007-0.064c0.273-2.439 2.328-4.277 4.781-4.277h1.058c0.261 0 0.472-0.213 0.472-0.472 0-0.261-0.211-0.472-0.472-0.472h-1.058c-2.945 0-5.462 2.299-5.728 5.233l-0.005 0.051h-3.601l1.551 2.327c0.744 1.119 1.993 1.789 3.339 1.789z"></path>
</svg>
