<svg version="1.1" xmlns="http://www.w3.org/2000/svg" width="32" height="32" viewBox="0 0 32 32">
  <title>Sweet_potatoe_green</title>
  <path fill="#31d48c" opacity="0.6" d="M29.106 5.086c-0.344 0.907-0.732 1.934-1.016 3.131-0.184 0.772-0.319 1.774-0.475 2.935-0.015 0.116-0.031 0.231-0.046 0.35l-4.471-4.475c-0.248-0.248-0.649-0.248-0.897-0.001-0.248 0.248-0.249 0.649-0.001 0.898l5.024 5.029c0.038 0.038 0.081 0.069 0.126 0.096-0.375 2.478-0.945 5.268-2.175 7.564l-3.737-3.742c-0.248-0.248-0.649-0.248-0.897-0.001-0.248 0.248-0.249 0.649-0.001 0.897l3.954 3.959c-0.193 0.276-0.397 0.543-0.616 0.795-1.967 2.268-3.877 3.628-8.851 4.763-1.351 0.308-2.719 0.742-4.040 1.163-2.174 0.69-4.273 1.356-5.991 1.356-1.095 0-2.036-0.27-2.744-0.979-1.817-1.819-0.751-5.183 0.377-8.745 0.122-0.382 0.243-0.767 0.364-1.156l4.42 4.425c0.124 0.124 0.288 0.186 0.449 0.186 0.162 0 0.325-0.062 0.448-0.186 0.248-0.248 0.249-0.649 0.001-0.897l-4.907-4.911c0.142-0.503 0.273-1.005 0.388-1.506 0.735-3.226 1.631-5.108 2.765-6.628l4.661 4.666c0.124 0.126 0.286 0.186 0.448 0.186 0.164 0 0.326-0.060 0.449-0.185 0.248-0.248 0.248-0.649 0-0.897l-4.751-4.756c0.382-0.43 0.786-0.846 1.217-1.278 3.388-3.388 8.188-3.707 11.693-3.941 0.98-0.065 1.826-0.12 2.521-0.237 1.298-0.219 2.425-0.652 3.419-1.035 1.023-0.393 1.755-0.661 2.317-0.661 0.353 0 0.638 0.105 0.883 0.351 0.699 0.7 0.393 1.62-0.307 3.468zM30.31 0.722c-1.249-1.249-2.855-0.632-4.553 0.023-0.939 0.361-2.002 0.77-3.174 0.967-0.632 0.107-1.448 0.16-2.393 0.224-3.497 0.232-8.782 0.583-12.507 4.309-2.248 2.247-3.931 4.244-5.129 9.505-0.296 1.303-0.723 2.645-1.134 3.944-0.614 1.939-1.195 3.769-1.369 5.447-0.206 1.996 0.22 3.494 1.304 4.578 0.908 0.909 2.103 1.356 3.639 1.356 0.299 0 0.612-0.018 0.935-0.051 1.677-0.174 3.506-0.755 5.441-1.37 1.299-0.412 2.641-0.839 3.94-1.135 5.287-1.207 7.428-2.747 9.527-5.167 2.863-3.298 3.543-8.345 4.038-12.030 0.153-1.128 0.283-2.103 0.452-2.812 0.264-1.118 0.639-2.104 0.968-2.974 0.712-1.88 1.327-3.503 0.018-4.814z"></path>
  <path fill="#31d48c" opacity="0.4" d="M16.988 16.74c0.123 0.123 0.286 0.186 0.448 0.186s0.325-0.063 0.449-0.186c0.248-0.248 0.248-0.649 0-0.897l-0.007-0.006c-0.248-0.248-0.648-0.248-0.897 0-0.248 0.248-0.248 0.649 0 0.897l0.007 0.006z"></path>
  <path fill="#31d48c" opacity="0.4" d="M25.954 6.777c-0.248-0.248-0.649-0.248-0.897 0s-0.248 0.649 0 0.897l0.006 0.006c0.124 0.123 0.286 0.186 0.448 0.186 0.164 0 0.325-0.063 0.449-0.186 0.248-0.248 0.248-0.649 0-0.897l-0.006-0.006z"></path>
</svg>
