<svg version="1.1" xmlns="http://www.w3.org/2000/svg" width="32" height="32" viewBox="0 0 32 32">
  <title>Rice_green</title>
  <path fill="#31d48c" opacity="0.4" d="M16.493 17.945c-0.292 0-0.527 0.236-0.527 0.527s0.236 0.529 0.527 0.529h11.086v1.583c-0.004 2.622-2.13 4.747-4.751 4.75-0.292 0-0.529 0.237-0.529 0.529s0.237 0.527 0.529 0.527c3.205-0.004 5.801-2.6 5.806-5.806v-2.112c0-0.292-0.237-0.527-0.527-0.527h-11.614z"></path>
  <path fill="#31d48c" opacity="0.6" d="M27.579 13.722v2.112h-23.227v-2.112c-0.001-0.984 0.455-1.912 1.236-2.511s1.796-0.801 2.746-0.545c0.203 0.053 0.416-0.018 0.549-0.18 0.129-0.164 0.152-0.39 0.055-0.575-0.239-0.453-0.363-0.955-0.361-1.466 0.001-1.749 1.419-3.166 3.167-3.168 0.292 0 0.527-0.236 0.527-0.527 0-2.041 1.655-3.694 3.695-3.694s3.694 1.653 3.694 3.694c0 0.292 0.237 0.527 0.53 0.527 1.747 0.002 3.164 1.419 3.167 3.168 0 0.511-0.124 1.013-0.361 1.466-0.098 0.185-0.077 0.411 0.055 0.575 0.13 0.162 0.346 0.233 0.549 0.18 0.949-0.256 1.965-0.053 2.745 0.545 0.78 0.6 1.237 1.528 1.236 2.511zM29.69 20.584c-0.005 3.788-3.073 6.857-6.862 6.862h-13.724c-3.788-0.005-6.857-3.074-6.862-6.862v-3.694h27.449v3.694zM9.632 30.615v-2.112h12.668v2.112h-12.668zM20.691 4.251c-0.256-2.417-2.295-4.251-4.725-4.251-2.43 0-4.468 1.835-4.724 4.251-1.21 0.143-2.299 0.804-2.985 1.809-0.687 1.006-0.905 2.26-0.601 3.439-1.143-0.037-2.252 0.392-3.073 1.188-0.823 0.796-1.285 1.892-1.285 3.035v2.112h-1.583c-0.292 0-0.529 0.236-0.529 0.529v4.222c0.007 4.165 3.236 7.612 7.391 7.891v2.667c0 0.292 0.236 0.529 0.527 0.529h13.724c0.292 0 0.529-0.237 0.529-0.529v-2.667c4.153-0.279 7.383-3.726 7.39-7.891v-4.222c0-0.293-0.236-0.529-0.527-0.529h-1.583v-2.112c-0.001-1.143-0.466-2.238-1.287-3.033s-1.929-1.224-3.072-1.19c0.307-1.179 0.088-2.433-0.6-3.441-0.686-1.006-1.775-1.666-2.985-1.81v0.002z"></path>
  <path fill="#31d48c" opacity="0.4" d="M10.159 11.611c-0.875 0-1.583 0.71-1.583 1.583v1.585h1.056v-1.585c0-0.29 0.236-0.527 0.527-0.527s0.527 0.237 0.527 0.527v1.585h1.056v-1.585c0-0.873-0.709-1.583-1.583-1.583z"></path>
  <path fill="#31d48c" opacity="0.4" d="M12.27 5.804c-0.873 0-1.583 0.71-1.583 1.585v1.583h1.056v-1.583c0-0.292 0.236-0.529 0.527-0.529s0.529 0.237 0.529 0.529v1.583h1.056v-1.583c0-0.875-0.71-1.585-1.585-1.585z"></path>
  <path fill="#31d48c" opacity="0.4" d="M18.077 10.556c0 0.292-0.236 0.527-0.527 0.527s-0.529-0.236-0.529-0.527v-1.583h-1.055v1.583c0 0.875 0.708 1.583 1.583 1.583 0.875 0 1.583-0.709 1.583-1.583v-1.583h-1.056v1.583z"></path>
  <path fill="#31d48c" opacity="0.4" d="M14.382 17.945h-1.056c-0.293 0-0.527 0.236-0.527 0.527s0.235 0.529 0.527 0.529h1.056c0.292 0 0.527-0.237 0.527-0.529s-0.236-0.527-0.527-0.527z"></path>
</svg>
